<?xml version="1.0" encoding="UTF-8"?>
<svg id="Ebene_2" data-name="Ebene 2" xmlns="http://www.w3.org/2000/svg" viewBox="0 0 2073.7 2204.3">
  <defs>
    <style>
      .cls-1 {
        fill: none;
        stroke: #1e0032;
        stroke-miterlimit: 10;
        stroke-width: 5px;
      }
    </style>
  </defs>
  <g id="key_visual_01" data-name="key visual 01">
    <g>
      <path class="cls-1" d="M1700.63,2203.56c-75.4-242.66-194.12-451.02-388.61-491.13-192.83-39.77-299.49,119-583.62,131.49-220,9.67-534.45-68.88-664.44-303.07-135.49-244.13-43.38-608.43,240.77-879.63"/>
      <path class="cls-1" d="M1705.13,2201.7c-70.01-252.36-188.62-462.53-382.6-504.26-191.22-40.52-298.3,115.09-579.64,127.09-207.69,8.7-498.81-60.5-638.91-266.07-7.61-11.17-14.77-22.73-21.45-34.71-135.43-242.72-44.61-604.86,235.12-874.54"/>
      <path class="cls-1" d="M1709.63,2199.85c-64.61-262.06-182.99-474.63-376.59-517.4-189.48-41.86-297.12,111.17-575.66,122.68-206.72,8.22-495.33-59.99-634.91-264.05-7.58-11.08-14.71-22.56-21.36-34.44-135.37-241.31-45.84-601.29,229.48-869.45"/>
      <path class="cls-1" d="M1714.12,2197.99c-59.21-271.76-177.42-486.43-370.58-530.53-187.8-42.88-295.93,107.25-571.68,118.28-205.75,7.74-491.85-59.47-630.92-262.02-7.55-11-14.65-22.38-21.28-34.16-135.31-239.9-47.07-597.72,223.83-864.36"/>
      <path class="cls-1" d="M1718.62,2196.14c-53.82-281.46-171.85-498.21-364.57-543.67-186.12-43.9-294.75,103.33-567.7,113.87-204.78,7.27-488.37-58.96-626.92-260-7.52-10.91-14.59-22.2-21.2-33.89C2.99,1233.96,89.94,878.3,356.42,613.17"/>
      <path class="cls-1" d="M1723.12,2194.28c-48.42-291.16-166.28-509.99-358.56-556.8-184.44-44.91-293.57,99.41-563.72,109.47-203.81,6.79-484.88-58.44-622.93-257.97-7.48-10.82-14.53-22.03-21.11-33.62-135.18-237.08-49.52-590.58,212.55-854.19"/>
      <path class="cls-1" d="M1727.62,2192.42c-43.03-300.86-160.7-521.76-352.55-569.94-182.76-45.9-292.36,96.12-559.74,105.06-202.82,6.78-481.4-57.93-618.93-255.95-7.45-10.74-14.47-21.85-21.03-33.35-135.12-235.67-50.75-587.02,206.9-849.1"/>
      <path class="cls-1" d="M1732.12,2190.57c-37.63-310.57-155.12-533.52-346.54-583.07-181.08-46.88-291.18,92.29-555.76,100.66-201.85,6.38-477.92-57.42-614.94-253.93-7.42-10.65-14.42-21.68-20.95-33.08-135.06-234.26-51.98-583.45,201.26-844.01"/>
      <path class="cls-1" d="M1736.62,2188.71c-32.23-320.27-149.54-545.27-340.53-596.21-179.4-47.85-289.99,88.47-551.79,96.25-200.88,5.97-474.44-56.9-610.94-251.9-7.39-10.57-14.36-21.5-20.87-32.8-135-232.85-53.21-579.88,195.61-838.92"/>
      <path class="cls-1" d="M1741.12,2186.86c-26.84-329.97-143.96-557.01-334.52-609.34-177.72-48.81-288.81,84.63-547.81,91.85-199.91,5.57-470.96-56.39-606.94-249.88-7.36-10.48-14.3-21.32-20.78-32.53-134.93-231.44-54.44-576.31,189.97-833.84"/>
      <path class="cls-1" d="M1745.62,2185c-21.44-339.67-138.37-568.74-328.51-622.48-176.04-49.75-287.62,80.8-543.83,87.44-198.94,5.16-467.48-55.88-602.95-247.86-7.33-10.39-14.24-21.15-20.7-32.26-134.87-230.04-55.67-572.74,184.32-828.75"/>
      <path class="cls-1" d="M1750.12,2183.14c-16.04-349.37-132.79-580.46-322.5-635.61-174.36-50.69-286.44,76.96-539.85,83.04-197.97,4.75-464-55.36-598.95-245.83-7.3-10.31-14.18-20.97-20.62-31.99-134.81-228.63-56.9-569.17,178.68-823.66"/>
      <path class="cls-1" d="M1754.62,2181.29c-10.65-359.07-127.2-592.17-316.49-648.75-172.68-51.61-285.25,73.12-535.87,78.63-197,4.33-460.52-54.85-594.96-243.81-7.26-10.22-14.09-20.81-20.53-31.72-134.27-227.5-58.13-565.6,173.04-818.57"/>
      <path class="cls-1" d="M1759.12,2179.43c-5.25-368.77-121.61-603.87-310.48-661.88-171-52.52-284.07,69.27-531.89,74.23-196.03,3.92-457.04-54.33-590.96-241.79-7.23-10.14-14.03-20.63-20.45-31.44-134.17-226.11-59.36-562.03,167.39-813.49"/>
      <path class="cls-1" d="M1763.62,2177.58c.15-378.47-116.03-615.56-304.47-675.01-169.32-53.42-282.89,65.42-527.91,69.82-195.06,3.5-453.56-53.82-586.97-239.76-7.2-10.05-13.97-20.46-20.37-31.17-134.08-224.72-60.58-558.46,161.75-808.4"/>
      <path class="cls-1" d="M1768.11,2175.72c5.54-388.17-110.44-627.24-298.46-688.15-167.64-54.3-281.7,61.57-523.93,65.42-194.09,3.08-450.08-53.31-582.97-237.74-7.17-9.97-13.91-20.28-20.28-30.9-133.99-223.33-61.81-554.89,156.1-803.31"/>
      <path class="cls-1" d="M1772.61,2173.86c10.94-397.87-104.85-638.91-292.45-701.28-165.97-55.18-280.52,57.71-519.95,61.01-193.12,2.66-446.6-52.79-578.97-235.72-7.14-9.88-13.85-20.1-20.2-30.63-133.9-221.94-63.04-551.32,150.46-798.22"/>
      <path class="cls-1" d="M1777.11,2172.01c16.34-407.57-99.27-650.57-286.45-714.42-164.29-56.04-279.34,53.85-515.97,56.6-192.15,2.24-443.11-52.28-574.98-233.69-7.11-9.79-13.79-19.93-20.12-30.35-133.82-220.55-64.27-547.75,144.81-793.14"/>
      <path class="cls-1" d="M1781.61,2170.15c21.73-417.27-93.68-662.22-280.44-727.55-162.62-56.89-278.16,49.98-511.99,52.2-191.18,1.81-439.63-51.76-570.98-231.67-7.08-9.71-13.73-19.75-20.03-30.08-133.73-219.16-65.5-544.18,139.17-788.05"/>
      <path class="cls-1" d="M1786.11,2168.3c27.13-426.97-88.1-673.85-274.43-740.69-160.95-57.73-276.98,46.11-508.01,47.79-190.21,1.38-436.15-51.25-566.99-229.65-7.04-9.62-13.67-19.58-19.95-29.81-133.65-217.76-66.73-540.61,133.53-782.96"/>
      <path class="cls-1" d="M1790.61,2166.44c32.53-436.67-82.51-685.48-268.42-753.82-159.28-58.56-275.8,42.24-504.03,43.39-189.25.95-432.67-50.74-562.99-227.62-7.01-9.54-13.61-19.4-19.87-29.54-133.57-216.37-67.96-537.04,127.88-777.87"/>
      <path class="cls-1" d="M1795.11,2164.59c37.92-446.37-76.93-697.09-262.41-766.96-157.61-59.37-274.62,38.36-500.05,38.98-188.28.52-429.19-50.22-559-225.6-6.98-9.45-13.55-19.23-19.78-29.27-133.48-214.98-69.19-533.47,122.24-772.79"/>
      <path class="cls-1" d="M1799.61,2162.73c43.32-456.07-71.35-708.69-256.4-780.09-155.95-60.17-273.44,34.48-496.07,34.58-187.31.08-425.71-49.71-555-223.58-6.95-9.37-13.49-19.05-19.7-28.99-133.41-213.58-70.42-529.9,116.59-767.7"/>
      <path class="cls-1" d="M1804.11,2160.87c48.71-465.77-65.78-720.28-250.39-793.23-154.29-60.97-272.26,30.59-492.09,30.17-186.35-.36-422.23-49.2-551.01-221.55-6.92-9.28-13.43-18.87-19.62-28.72-133.33-212.18-71.65-526.33,110.95-762.61"/>
      <path class="cls-1" d="M1808.61,2159.02c54.11-475.48-60.21-731.86-244.38-806.36-152.63-61.75-271.08,26.7-488.11,25.77-185.38-.8-418.75-48.68-547.01-219.53-6.89-9.19-13.37-18.7-19.54-28.45-133.25-210.78-72.87-522.76,105.3-757.52"/>
      <path class="cls-1" d="M1813.11,2157.16c59.51-485.18-54.64-743.42-238.37-819.5-150.98-62.51-269.9,22.81-484.13,21.36-184.41-1.25-415.27-48.17-543.01-217.5-6.86-9.11-13.31-18.52-19.45-28.18-133.18-209.38-74.1-519.2,99.66-752.43"/>
      <path class="cls-1" d="M1817.61,2155.31c64.9-494.88-49.07-754.97-232.36-832.63-149.33-63.27-268.72,18.91-480.16,16.96-183.45-1.69-411.79-47.65-539.02-215.48-6.83-9.02-13.25-18.35-19.37-27.91-133.11-207.98-75.33-515.63,94.02-747.35"/>
      <path class="cls-1" d="M1822.1,2153.45c70.3-504.58-43.51-766.51-226.35-845.76-147.68-64.02-267.54,15.01-476.18,12.55-182.48-2.15-408.31-47.14-535.02-213.46-6.79-8.94-13.19-18.17-19.29-27.63-133.04-206.58-76.56-512.06,88.37-742.26"/>
      <path class="cls-1" d="M1826.6,2151.59c75.7-514.28-37.96-778.03-220.34-858.9-146.04-64.75-266.36,11.1-472.2,8.15-181.51-2.6-404.83-46.63-531.03-211.43-6.76-8.85-13.13-17.99-19.2-27.36-132.97-205.18-77.79-508.49,82.73-737.17"/>
      <path class="cls-1" d="M1831.1,2149.74c81.09-523.98-32.41-789.54-214.33-872.03-144.4-65.48-265.18,7.18-468.22,3.74-180.55-3.06-401.35-46.11-527.03-209.41-6.73-8.76-13.07-17.82-19.12-27.09-132.91-203.78-79.02-504.92,77.08-732.08"/>
      <path class="cls-1" d="M1835.6,2147.88c86.49-533.68-26.87-801.04-208.32-885.17-142.77-66.19-264,3.27-464.24-.66-179.58-3.53-397.86-45.6-523.04-207.39-6.7-8.68-13.01-17.64-19.04-26.82-132.85-202.37-80.25-501.35,71.44-727"/>
      <path class="cls-1" d="M1840.1,2146.03c91.89-543.38-21.33-812.53-202.31-898.3-141.14-66.89-262.82-.66-460.26-5.07-178.62-3.99-394.38-45.09-519.04-205.36-6.67-8.59-12.95-17.46-18.95-26.54-132.79-200.96-81.48-497.78,65.8-721.91"/>
      <path class="cls-1" d="M1844.6,2144.17c97.28-553.08-15.8-824-196.3-911.44-139.52-67.59-261.64-4.58-456.28-9.48-177.65-4.46-390.9-44.57-515.04-203.34-6.64-8.51-12.9-17.29-18.87-26.27-132.73-199.56-82.71-494.21,60.15-716.82"/>
      <path class="cls-1" d="M1849.1,2142.32c102.68-562.78-10.27-835.46-190.29-924.57-137.91-68.27-260.46-8.52-452.3-13.88-176.69-4.94-387.42-44.06-511.05-201.32-6.61-8.42-12.84-17.11-18.79-26-132.67-198.15-83.94-490.64,54.51-711.73"/>
      <path class="cls-1" d="M1853.6,2140.46c108.08-572.48-4.76-846.9-184.29-937.71-136.29-68.94-259.28-12.45-448.32-18.29-175.72-5.42-383.94-43.54-507.05-199.29-6.57-8.34-12.78-16.94-18.7-25.73-132.62-196.74-85.16-487.07,48.86-706.65"/>
      <path class="cls-1" d="M1858.1,2138.6c113.47-582.18.75-858.33-178.28-950.84-134.69-69.6-258.1-16.4-444.34-22.69-174.75-5.91-380.46-43.03-503.06-197.27-6.54-8.25-12.72-16.76-18.62-25.46-132.56-195.32-86.39-483.5,43.22-701.56"/>
      <path class="cls-1" d="M1862.6,2136.75c118.87-591.88,6.25-869.74-172.27-963.98-133.09-70.25-256.92-20.35-440.36-27.1-173.79-6.4-376.98-42.52-499.06-195.25-6.51-8.16-12.66-16.58-18.54-25.18-132.51-193.91-87.62-479.93,37.57-696.47"/>
      <path class="cls-1" d="M1867.1,2134.89c124.27-601.58,11.74-881.15-166.26-977.11-131.5-70.9-255.74-24.3-436.38-31.5-172.82-6.89-373.5-42-495.07-193.22-6.48-8.08-12.6-16.4-18.46-24.91-132.47-192.49-88.85-476.36,31.93-691.38"/>
      <path class="cls-1" d="M1871.6,2133.04c129.66-611.28,17.21-892.53-160.25-990.24-129.91-71.53-254.56-28.26-432.4-35.91-171.85-7.39-370.02-41.49-491.07-191.2-6.45-7.99-12.54-16.23-18.37-24.64-132.42-191.08-90.08-472.79,26.29-686.3"/>
      <path class="cls-1" d="M1876.09,2131.18c135.06-620.98,22.68-903.9-154.24-1003.38-128.33-72.16-253.38-32.22-428.42-40.31-170.89-7.9-366.54-40.97-487.07-189.18-6.42-7.91-12.48-16.05-18.29-24.37-132.38-189.66-91.31-469.22,20.64-681.21"/>
      <path class="cls-1" d="M1880.59,2129.32c140.45-630.69,28.14-915.26-148.23-1016.51-126.76-72.77-252.2-36.19-424.44-44.72-169.92-8.41-363.06-40.46-483.08-187.15-6.39-7.82-12.43-15.87-18.21-24.1-132.34-188.24-92.54-465.65,15-676.12"/>
      <path class="cls-1" d="M1885.09,2127.47c145.85-640.39,33.59-926.61-142.22-1029.65-125.2-73.38-251.02-40.17-420.46-49.12-168.95-8.93-359.58-39.95-479.08-185.13-6.35-7.73-12.37-15.7-18.12-23.82-132.3-186.81-93.77-462.08,9.35-671.03"/>
      <path class="cls-1" d="M1889.59,2125.61c151.25-650.09,39.02-937.93-136.21-1042.78-123.64-73.98-249.84-44.15-416.48-53.53-167.98-9.45-356.1-39.43-475.09-183.11-6.32-7.65-12.31-15.52-18.04-23.55-132.27-185.39-95-458.51,3.71-665.94"/>
      <path class="cls-1" d="M1894.09,2123.76c156.64-659.79,44.44-949.25-130.2-1055.92-122.09-74.57-248.66-48.14-412.5-57.93-167.01-9.99-352.61-38.92-471.09-181.08-6.29-7.56-12.25-15.34-17.96-23.28-132.23-183.96-96.23-454.94-1.94-660.86"/>
      <path class="cls-1" d="M1898.59,2121.9c162.04-669.49,49.85-960.55-124.19-1069.05-120.55-75.16-247.47-52.13-408.53-62.34-166.04-10.53-349.13-38.41-467.1-179.06-6.26-7.48-12.19-15.17-17.87-23.01-132.21-182.53-97.45-451.37-7.58-655.77"/>
      <path class="cls-1" d="M1903.09,2120.04c167.44-679.19,55.24-971.83-118.18-1082.19-119.02-75.73-246.29-56.13-404.55-66.74-165.07-11.07-345.65-37.89-463.1-177.03-6.23-7.39-12.14-14.99-17.79-22.73-132.18-181.1-98.68-447.81-13.22-650.68"/>
      <path class="cls-1" d="M1907.59,2118.19c172.83-688.89,60.62-983.1-112.17-1095.32-117.5-76.3-245.1-60.13-400.57-71.15-164.1-11.63-342.17-37.38-459.11-175.01-6.2-7.31-12.08-14.81-17.71-22.46-132.15-179.67-99.91-444.24-18.87-645.59"/>
      <path class="cls-1" d="M1912.09,2116.33c178.23-698.59,65.99-994.36-106.16-1108.46-115.98-76.87-243.92-64.15-396.59-75.55-163.13-12.19-338.69-36.86-455.11-172.99-6.17-7.22-12.02-14.63-17.62-22.19-132.13-178.23-101.14-440.67-24.51-640.51"/>
      <path class="cls-1" d="M1916.59,2114.48c183.63-708.29,71.33-1005.6-100.15-1121.59-114.47-77.43-242.73-68.16-392.61-79.96-162.15-12.76-335.21-36.35-451.11-170.96-6.13-7.13-11.96-14.45-17.54-21.92-132.12-176.79-102.37-437.1-30.16-635.42"/>
      <path class="cls-1" d="M1921.09,2112.62c189.02-717.99,76.67-1016.83-94.14-1134.73-112.98-77.98-241.54-72.19-388.63-84.37-161.18-13.34-331.73-35.84-447.12-168.94-6.1-7.05-11.92-14.27-17.46-21.65-132.45-175.08-103.6-433.53-35.8-630.33"/>
      <path class="cls-1" d="M1925.59,2110.77c194.42-727.69,81.98-1028.04-88.13-1147.86-111.49-78.52-240.35-76.22-384.65-88.77-160.2-13.94-328.25-35.32-443.12-166.92-6.07-6.96-11.86-14.09-17.37-21.37-132.39-173.67-104.83-429.96-41.45-625.24"/>
      <path class="cls-1" d="M1930.08,2108.91c199.82-737.39,87.28-1039.24-82.13-1160.99-110.01-79.07-239.16-80.26-380.67-93.18-159.22-14.54-324.77-34.81-439.13-164.89-6.04-6.88-11.8-13.91-17.29-21.1-132.33-172.26-106.06-426.39-47.09-620.16"/>
      <path class="cls-1" d="M1934.58,2107.05c205.21-747.09,92.56-1050.43-76.12-1174.13-108.54-79.6-237.97-84.3-376.69-97.58-158.24-15.15-321.29-34.3-435.13-162.87-6.01-6.79-11.74-13.74-17.21-20.83-132.26-170.86-107.29-422.82-52.73-615.07"/>
      <path class="cls-1" d="M1939.08,2105.2c210.61-756.79,97.82-1061.6-70.11-1187.26-107.09-80.13-236.77-88.35-372.71-101.99-157.26-15.77-317.81-33.78-431.14-160.85-5.98-6.7-11.68-13.56-17.13-20.56-132.2-169.45-108.52-419.25-58.38-609.98"/>
      <path class="cls-1" d="M1943.58,2103.34c216.01-766.49,103.06-1072.76-64.1-1200.4-105.64-80.66-235.56-92.56-368.73-106.39-156.25-16.58-314.33-33.27-427.14-158.82-5.95-6.62-11.62-13.38-17.04-20.29-132.14-168.04-109.74-415.68-64.02-604.89"/>
      <path class="cls-1" d="M1948.08,2101.49c221.4-776.19,108.28-1083.91-58.09-1213.53-228.31-177.88-581.31-39.4-787.9-267.6C951.37,453.86,972.48,195.9,1015.47.54"/>
    </g>
  </g>
</svg>