<?xml version="1.0" encoding="UTF-8"?>
<svg id="Ebene_2" data-name="Ebene 2" xmlns="http://www.w3.org/2000/svg" viewBox="0 0 1946.98 1055">
  <defs>
    <style>
      .cls-1 {
        fill: none;
        stroke: #1e0032;
        stroke-miterlimit: 10;
        stroke-width: 3px;
      }
    </style>
  </defs>
  <g id="key_visual_03" data-name="key visual 03">
    <g>
      <path class="cls-1" d="M198.32,1027.46c183.16,37.66,269.77-98.44,420.28-82.69,150.5,15.74,247.48,134.02,383.27,103.82,135.79-30.2,257.08-220.6,354.09-303.83,97.01-83.23,301.66,63.6,440.52-37.43"/>
      <path class="cls-1" d="M192.81,1011.03c178.08,36.62,268.18-95.41,420.8-80.22,150.41,15.23,248.94,129.98,383.86,100,135.29-30.05,259.41-217.66,359.99-300.72,101.82-84.07,308.17,55.85,443.18-42.37"/>
      <path class="cls-1" d="M187.31,994.59c172.99,35.57,266.59-92.38,421.32-77.75,150.31,14.72,250.4,125.93,384.45,96.19,134.78-29.9,261.77-214.7,365.9-297.61,106.65-84.91,314.68,48.1,445.83-47.31"/>
      <path class="cls-1" d="M181.8,978.16c167.9,34.52,265.04-89.73,421.84-75.28,150.25,13.85,251.85,121.89,385.04,92.37,134.27-29.75,264.15-211.73,371.8-294.49,111.5-85.73,321.19,40.36,448.49-52.25"/>
      <path class="cls-1" d="M176.29,961.73c162.81,33.48,263.46-86.81,422.36-72.81,150.16,13.24,253.31,117.84,385.63,88.55,133.77-29.6,266.56-208.73,377.71-291.38,116.37-86.53,327.71,32.61,451.14-57.19"/>
      <path class="cls-1" d="M170.79,945.3c157.72,32.43,261.87-83.89,422.89-70.33,150.07,12.63,254.77,113.79,386.22,84.73,133.26-29.44,268.98-205.72,383.61-288.27,121.25-87.32,334.22,24.86,453.8-62.13"/>
      <path class="cls-1" d="M165.28,928.86c152.64,31.39,260.29-80.96,423.41-67.86,149.98,12.04,256.23,109.75,386.81,80.91,132.75-29.29,271.42-202.7,389.51-285.16,126.16-88.1,340.73,17.11,456.46-67.08"/>
      <path class="cls-1" d="M159.77,912.43c147.55,30.34,258.7-78.02,423.93-65.39,149.89,11.46,257.69,105.7,387.4,77.09,132.25-29.14,273.87-199.65,395.42-282.05,131.07-88.86,347.25,9.36,459.11-72.02"/>
      <path class="cls-1" d="M154.27,896c142.46,29.29,257.11-75.07,424.45-62.92,149.79,10.88,259.15,101.65,387.99,73.28,131.74-28.99,276.34-196.6,401.32-278.94,136-89.6,353.76,1.62,461.77-76.96"/>
      <path class="cls-1" d="M148.76,879.56c137.37,28.25,255.53-72.12,424.97-60.44,149.7,10.32,260.61,97.61,388.58,69.46,131.23-28.84,278.82-193.53,407.23-275.83,140.94-90.34,360.27-6.13,464.42-81.9"/>
      <path class="cls-1" d="M143.25,863.13c132.28,27.2,253.94-69.16,425.5-57.97,149.6,9.76,262.06,93.56,389.17,65.64,130.73-28.69,281.3-190.44,413.13-272.72,145.89-91.05,366.79-13.88,467.08-86.84"/>
      <path class="cls-1" d="M137.75,846.7c127.2,26.16,252.35-66.19,426.02-55.5,149.51,9.2,263.52,89.52,389.76,61.82,130.22-28.54,283.8-187.35,419.03-269.61,150.85-91.76,373.3-21.63,469.73-91.79"/>
      <path class="cls-1" d="M132.24,830.27c122.11,25.11,250.76-63.22,426.54-53.03,149.41,8.66,264.98,85.47,390.35,58,129.72-28.38,286.3-184.24,424.94-266.5,155.82-92.45,379.81-29.38,472.39-96.73"/>
      <path class="cls-1" d="M126.73,813.83c117.02,24.06,249.17-60.23,427.06-50.55,149.31,8.12,266.44,81.42,390.94,54.18,129.21-28.23,288.81-181.12,430.84-263.39,160.79-93.13,386.32-37.12,475.04-101.67"/>
      <path class="cls-1" d="M121.23,797.4c111.93,23.02,247.57-57.24,427.58-48.08,149.21,7.59,267.9,77.38,391.53,50.36,128.7-28.08,291.32-177.99,436.75-260.28,165.77-93.8,392.84-44.87,477.7-106.61"/>
      <path class="cls-1" d="M115.72,780.97c106.85,21.97,245.98-54.24,428.1-45.61,149.11,7.07,269.36,73.33,392.12,46.55,128.2-27.93,293.84-174.85,442.65-257.17,170.76-94.46,399.35-52.62,480.36-111.55"/>
      <path class="cls-1" d="M110.21,764.54c101.76,20.92,244.39-51.24,428.63-43.14,149.01,6.55,270.82,69.28,392.71,42.73,127.69-27.78,296.36-171.7,448.56-254.05,175.75-95.1,405.86-60.37,483.01-116.49"/>
      <path class="cls-1" d="M104.7,748.1c96.67,19.88,242.79-48.22,429.15-40.67,148.91,6.04,272.27,65.24,393.29,38.91,127.18-27.63,298.89-168.55,454.46-250.94,180.75-95.73,412.38-68.12,485.67-121.44"/>
      <path class="cls-1" d="M99.2,731.67c91.58,18.83,241.2-45.2,429.67-38.19,148.81,5.53,273.73,61.19,393.88,35.09,126.68-27.48,301.42-165.38,460.36-247.83,185.75-96.36,418.89-75.86,488.32-126.38"/>
      <path class="cls-1" d="M93.69,715.24c86.49,17.79,239.61-42.17,430.19-35.72,148.72,5.04,275.19,57.15,394.47,31.27,126.17-27.32,303.95-162.21,466.27-244.72,190.76-96.97,425.4-83.61,490.98-131.32"/>
      <path class="cls-1" d="M88.18,698.81c81.41,16.74,238.01-39.14,430.71-33.25,148.62,4.54,276.65,53.1,395.06,27.45,125.66-27.17,306.49-159.03,472.17-241.61,195.77-97.58,431.92-91.36,493.63-136.26"/>
      <path class="cls-1" d="M82.68,682.37c76.32,15.69,236.42-36.09,431.24-30.78,148.52,4.05,278.11,49.05,395.65,23.64,125.16-27.02,309.03-155.84,478.08-238.5,200.78-98.17,438.43-99.11,496.29-141.2"/>
      <path class="cls-1" d="M77.17,665.94c71.23,14.65,234.82-33.04,431.76-28.3,148.42,3.57,279.57,45.01,396.24,19.82,124.65-26.87,311.57-152.65,483.98-235.39,205.79-98.76,444.94-106.86,498.94-146.14"/>
      <path class="cls-1" d="M71.66,649.51c66.14,13.6,233.23-29.98,432.28-25.83,148.32,3.09,281.03,40.96,396.83,16,124.14-26.72,314.11-149.45,489.89-232.28,210.81-99.34,451.45-114.6,501.6-151.09"/>
      <path class="cls-1" d="M66.16,633.08c61.05,12.55,231.64-26.91,432.8-23.36,148.22,2.62,282.48,36.92,397.42,12.18,123.64-26.57,316.65-146.24,495.79-229.17,215.83-99.91,457.97-122.35,504.26-156.03"/>
      <path class="cls-1" d="M60.65,616.64c55.97,11.51,230.04-23.84,433.32-20.89,148.12,2.15,283.94,32.87,398.01,8.36,123.13-26.42,319.19-143.03,501.69-226.06,220.85-100.48,464.48-130.1,506.91-160.97"/>
      <path class="cls-1" d="M55.14,600.21c50.88,10.46,228.45-20.76,433.85-18.42,148.02,1.69,285.4,28.82,398.6,4.54,122.62-26.26,321.74-139.81,507.6-222.95,225.87-101.03,470.99-137.85,509.57-165.91"/>
      <path class="cls-1" d="M49.64,583.78c45.79,9.42,226.86-17.67,434.37-15.94,147.92,1.23,286.86,24.78,399.19.72,122.12-26.11,324.28-136.59,513.5-219.84,230.9-101.58,477.51-145.6,512.22-170.85"/>
      <path class="cls-1" d="M44.13,567.34c40.7,8.37,225.26-14.57,434.89-13.47,147.82.77,288.32,20.73,399.78-3.09,121.61-25.96,326.83-133.36,519.41-216.73,235.92-102.12,484.02-153.34,514.88-175.79"/>
      <path class="cls-1" d="M38.62,550.91c35.62,7.32,223.67-11.46,435.41-11,147.72.32,289.78,16.68,400.37-6.91,121.1-25.81,329.38-130.13,525.31-213.61,240.95-102.66,490.53-161.09,517.53-180.74"/>
      <path class="cls-1" d="M33.12,534.48c30.53,6.28,222.08-8.35,435.93-8.53,147.62-.12,291.23,12.64,400.96-10.73,120.6-25.66,331.92-126.9,531.21-210.5,245.97-103.19,497.04-168.84,520.19-185.68"/>
      <path class="cls-1" d="M27.61,518.05c25.44,5.23,220.49-5.23,436.46-6.05,147.53-.57,292.69,8.59,401.55-14.55,120.09-25.51,334.47-123.66,537.12-207.39,251-103.72,503.56-176.59,522.84-190.62"/>
      <path class="cls-1" d="M22.1,501.61c20.35,4.18,218.9-2.1,436.98-3.58,147.43-1,294.15,4.55,402.14-18.37,119.58-25.35,337.02-120.41,543.02-204.28,256.03-104.23,510.07-184.34,525.5-195.56"/>
      <path class="cls-1" d="M16.59,485.18c15.26,3.14,217.31,1.42,437.5-1.11,147.34-1.18,295.61.5,402.73-22.19,119.08-25.2,339.7-116.84,548.93-201.17,261.22-104.34,516.58-192.08,528.16-200.5"/>
      <path class="cls-1" d="M11.09,468.75c10.18,2.09,215.72,4.45,438.02,1.36,147.24-1.7,297.07-3.55,403.32-26,118.57-25.05,342.2-113.69,554.83-198.06,266.2-104.98,523.1-199.83,530.81-205.44"/>
      <path class="cls-1" d="M5.58,452.32c5.09,1.05,214.13,7.48,438.54,3.84,147.14-2.21,298.53-7.59,403.91-29.82,118.06-24.9,344.7-110.55,560.74-194.95C1679.94,125.76,1938.37,23.8,1942.23,20.99"/>
      <path class="cls-1" d="M.07,435.88s578.06,28.56,843.56-27.33C1109.14,352.65,1946.4,1.38,1946.4,1.38"/>
    </g>
  </g>
</svg>