<?xml version="1.0" encoding="UTF-8"?>
<svg id="Ebene_2" data-name="Ebene 2" xmlns="http://www.w3.org/2000/svg" viewBox="0 0 2304.6 1771.46">
  <defs>
    <style>
      .cls-1 {
        fill: none;
        stroke: #505078;
        stroke-miterlimit: 10;
        stroke-width: 5px;
      }
    </style>
  </defs>
  <g id="key_visual_01" data-name="key visual 01">
    <g>
      <path class="cls-1" d="M2246.72,895.26c-247.24,74.1-490.48,96.52-635.67-30.22-143.96-125.66-71.61-293.26-223.97-517C1269.11,174.79,1022.83-22.69,751.42,5.14,468.5,34.16,215.01,302.19,149.86,666.33"/>
      <path class="cls-1" d="M2247.74,899.7c-252.31,83.49-497,106.96-643.27-18.5-143.55-123.99-74.06-290.06-225.14-511.32C1261.53,197.72,1017.84,1.66,748.17,28.64,466.28,56.67,213.67,322.67,147.17,682.71"/>
      <path class="cls-1" d="M2248.76,904.14c-257.37,92.87-503.94,117.91-650.87-6.79-143.55-121.83-76.5-286.87-226.32-505.63C1253.96,220.65,1012.86,26.01,744.92,52.13,464.06,79.19,212.33,343.15,144.48,699.1"/>
      <path class="cls-1" d="M2249.77,908.58c-262.43,102.26-510.66,128.59-658.47,4.93-143.33-119.93-78.95-283.67-227.5-499.94-117.43-169.99-355.94-363.21-622.14-337.95C461.83,101.71,210.99,363.64,141.78,715.48"/>
      <path class="cls-1" d="M2250.79,913.03c-267.49,111.64-517.38,139.28-666.07,16.65-143.1-118.03-81.4-280.47-228.68-494.25-117.25-168.91-353.17-360.71-617.64-336.3C459.61,124.23,209.65,384.12,139.09,731.87"/>
      <path class="cls-1" d="M2251.81,917.47c-272.56,121.03-524.08,149.96-673.66,28.36-142.86-116.14-83.39-277.59-229.86-488.57-116.7-168.09-350.4-358.21-613.13-334.65C457.38,146.74,208.31,404.6,136.4,748.26"/>
      <path class="cls-1" d="M2252.83,921.91c-277.62,130.41-530.78,160.64-681.26,40.08-142.61-114.25-85.75-274.45-231.03-482.88-116.45-167.06-347.63-355.7-608.63-333C455.16,169.26,206.97,425.08,133.71,764.64"/>
      <path class="cls-1" d="M2253.85,926.35c-282.68,139.8-537.46,171.32-688.86,51.8-142.35-112.37-88.12-271.31-232.21-477.19-116.2-166.03-344.85-353.2-604.12-331.35C452.93,191.78,205.63,445.57,131.01,781.03"/>
      <path class="cls-1" d="M2254.87,930.8c-287.74,149.18-544.14,181.99-696.46,63.51-142.07-110.51-90.49-268.17-233.39-471.5-115.96-164.99-342.04-350.14-599.61-329.71C450.76,214.89,204.29,466.05,128.32,797.42"/>
      <path class="cls-1" d="M2255.89,935.24c-292.81,158.57-550.81,192.65-704.06,75.23-141.79-108.64-92.87-265.03-234.57-465.81-115.71-163.96-339.27-347.58-595.11-328.06C448.53,237.47,202.96,486.53,125.63,813.8"/>
      <path class="cls-1" d="M2256.9,939.68c-297.87,167.95-557.46,203.32-711.66,86.94-141.5-106.79-95.24-261.88-235.75-460.13-115.47-162.93-336.49-345.02-590.6-326.41C446.31,260.05,201.62,507.01,122.94,830.19"/>
      <path class="cls-1" d="M2257.92,944.12c-302.93,177.34-564.11,213.97-719.26,98.66-141.2-104.95-97.63-258.73-236.92-454.44-115.23-161.89-333.72-342.46-586.1-324.76-271.56,19.04-515.37,263.91-595.4,582.99"/>
      <path class="cls-1" d="M2258.94,948.57c-308,186.72-570.76,224.62-726.85,110.38-140.88-103.11-100.01-255.58-238.1-448.75-114.99-160.85-330.95-339.9-581.59-323.11-270.53,18.12-513.45,260.9-594.84,575.88"/>
      <path class="cls-1" d="M2259.96,953.01c-313.06,196.11-577.39,235.27-734.45,122.09-140.56-101.28-102.4-252.43-239.28-443.06-114.75-159.82-328.18-337.35-577.09-321.47-269.5,17.2-511.54,257.89-594.28,568.77"/>
      <path class="cls-1" d="M2260.98,957.45c-318.12,205.49-584.01,245.91-742.05,133.81-140.23-99.46-104.79-249.27-240.46-437.37-114.52-158.78-325.41-334.8-572.58-319.82-268.47,16.28-509.63,254.87-593.72,561.66"/>
      <path class="cls-1" d="M2262,961.9c-323.18,214.88-590.63,256.54-749.65,145.53-139.89-97.65-107.18-246.12-241.64-431.69-114.29-157.74-322.63-332.25-568.07-318.17-267.44,15.35-507.71,251.86-593.16,554.55"/>
      <path class="cls-1" d="M2263.01,966.34c-328.25,224.26-597.23,267.16-757.25,157.24-139.54-95.85-109.58-242.96-242.81-426-114.06-156.7-319.86-329.71-563.57-316.52-266.41,14.42-505.8,248.85-592.6,547.44"/>
      <path class="cls-1" d="M2264.03,970.78c-333.31,233.65-603.83,277.78-764.85,168.96-139.18-94.06-111.99-239.8-243.99-420.31-113.83-155.66-317.09-327.17-559.06-314.87-265.39,13.49-503.88,245.84-592.04,540.34"/>
      <path class="cls-1" d="M2265.05,975.22c-338.37,243.03-610.42,288.39-772.45,180.68-138.81-92.27-114.39-236.64-245.17-414.62-113.6-154.61-314.33-324.63-554.56-313.23-264.36,12.55-501.97,242.82-591.48,533.23"/>
      <path class="cls-1" d="M2266.07,979.67c-343.44,252.42-616.99,298.99-780.05,192.39-138.43-90.5-116.8-233.47-246.35-408.93-113.38-153.57-311.56-322.09-550.05-311.58-263.34,11.61-500.06,239.81-590.92,526.12"/>
      <path class="cls-1" d="M2267.09,984.11c-348.5,261.8-623.56,309.58-787.64,204.11-138.04-88.74-119.21-230.3-247.53-403.25-113.16-152.52-308.79-319.56-545.55-309.93-262.31,10.67-498.14,236.8-590.37,519.01"/>
      <path class="cls-1" d="M2268.11,988.55c-353.56,271.19-630.13,320.16-795.24,215.82-137.65-86.98-121.63-227.13-248.7-397.56-112.94-151.47-306.02-317.03-541.04-308.28-261.29,9.73-496.23,233.79-589.81,511.9"/>
      <path class="cls-1" d="M2269.13,992.99c-358.62,280.57-636.68,330.73-802.84,227.54-137.25-85.24-124.05-223.96-249.88-391.87-112.73-150.42-303.25-314.5-536.53-306.63-260.26,8.78-494.32,230.77-589.25,504.79"/>
      <path class="cls-1" d="M2270.14,997.44c-363.69,289.96-643.22,341.3-810.44,239.26-136.84-83.5-126.47-220.79-251.06-386.18-112.51-149.37-300.49-311.98-532.03-304.98-259.24,7.83-492.4,227.76-588.69,497.68"/>
      <path class="cls-1" d="M2271.16,1001.88c-368.75,299.34-649.76,351.85-818.04,250.97-136.42-81.78-128.9-217.61-252.24-380.5-112.31-148.32-297.72-309.46-527.52-303.34-258.21,6.88-490.49,224.75-588.13,490.57"/>
      <path class="cls-1" d="M2272.18,1006.32c-373.81,308.73-656.29,362.39-825.64,262.69-135.99-80.06-131.33-214.43-253.42-374.81-112.1-147.26-294.95-306.94-523.02-301.69-257.19,5.92-488.58,221.73-587.57,483.47"/>
      <path class="cls-1" d="M2273.2,1010.76c-378.88,318.11-662.81,372.92-833.24,274.41-135.56-78.36-133.77-211.25-254.59-369.12-111.89-146.21-292.18-304.42-518.51-300.04-256.17,4.96-486.66,218.72-587.01,476.36"/>
      <path class="cls-1" d="M2274.22,1015.21c-383.94,327.49-669.32,383.43-840.83,286.12-135.12-76.66-136.21-208.06-255.77-363.43-111.69-145.15-289.42-301.91-514.01-298.39-255.14,4-484.75,215.71-586.45,469.25"/>
      <path class="cls-1" d="M2275.24,1019.65c-389,336.88-675.82,393.94-848.43,297.84-134.68-74.98-138.65-204.87-256.95-357.74-111.5-144.09-286.65-299.4-509.5-296.74-254.12,3.03-482.83,212.7-585.89,462.14"/>
      <path class="cls-1" d="M2276.26,1024.09c-394.06,346.26-682.32,404.43-856.03,309.55-134.23-73.31-141.1-201.68-258.13-352.06-111.3-143.02-283.89-296.9-504.99-295.1-253.1,2.06-480.92,209.68-585.33,455.03"/>
      <path class="cls-1" d="M2277.27,1028.53c-399.13,355.65-688.81,414.91-863.63,321.27-133.77-71.65-143.55-198.49-259.31-346.37-111.11-141.96-281.12-294.39-500.49-293.45-252.07,1.09-479.01,206.67-584.77,447.92"/>
      <path class="cls-1" d="M2278.29,1032.98c-404.19,365.03-695.29,425.37-871.23,332.99-133.3-69.99-146.01-195.29-260.48-340.68s-278.35-291.89-495.98-291.8c-251.05.11-477.09,203.66-584.21,440.81"/>
      <path class="cls-1" d="M2279.31,1037.42c-409.25,374.42-701.76,435.82-878.83,344.7-132.84-68.35-148.47-192.09-261.66-334.99-110.74-139.82-275.59-289.4-491.48-290.15-250.03-.87-475.18,200.65-583.65,433.7"/>
      <path class="cls-1" d="M2280.33,1041.86c-414.31,383.8-708.23,446.25-886.43,356.42-132.36-66.72-150.94-188.88-262.84-329.3-110.56-138.74-272.82-286.91-486.97-288.5-249.01-1.86-473.27,197.63-583.09,426.6"/>
      <path class="cls-1" d="M2281.35,1046.31c-419.38,393.19-714.69,456.67-894.03,368.14-131.88-65.11-153.41-185.68-264.02-323.62-110.39-137.66-270.06-284.42-482.47-286.86-247.98-2.85-471.35,194.62-582.53,419.49"/>
      <path class="cls-1" d="M2282.37,1050.75c-424.44,402.57-721.14,467.07-901.62,379.85-131.4-63.5-155.88-182.47-265.2-317.93-110.22-136.58-267.29-281.93-477.96-285.21-246.96-3.84-469.44,191.61-581.97,412.38"/>
      <path class="cls-1" d="M2283.38,1055.19c-429.5,411.96-727.59,477.45-909.22,391.57-130.91-61.9-158.36-179.25-266.37-312.24-110.05-135.5-264.52-279.45-473.45-283.56-245.94-4.84-467.53,188.6-581.41,405.27"/>
      <path class="cls-1" d="M2284.4,1059.63c-434.57,421.34-734.03,487.82-916.82,403.29-130.42-60.32-160.84-176.03-267.55-306.55s-261.76-276.97-468.95-281.91c-244.92-5.84-465.61,185.58-580.85,398.16"/>
      <path class="cls-1" d="M2285.42,1064.08c-439.63,430.73-740.46,498.17-924.42,415-129.93-58.74-163.33-172.81-268.73-300.87-109.74-133.32-258.99-274.5-464.44-280.26-243.89-6.85-463.7,182.57-580.29,391.05"/>
      <path class="cls-1" d="M2286.44,1068.52c-444.69,440.11-746.89,508.5-932.02,426.72-129.43-57.18-165.82-169.59-269.91-295.18-109.58-132.22-256.22-272.02-459.94-278.61-242.87-7.86-461.78,179.56-579.73,383.94"/>
      <path class="cls-1" d="M2287.46,1072.96c-449.75,449.5-753.31,518.81-939.62,438.43-128.93-55.63-168.31-166.36-271.09-289.49-109.44-131.12-253.46-269.56-455.43-276.97-241.84-8.87-459.87,176.55-579.17,376.84"/>
      <path class="cls-1" d="M2288.48,1077.4c-454.82,458.88-759.73,529.11-947.22,450.15-128.43-54.09-170.81-163.12-272.26-283.8-109.3-130.01-250.69-267.09-450.93-275.32-240.82-9.89-457.96,173.53-578.61,369.73"/>
      <path class="cls-1" d="M2289.5,1081.85c-459.88,468.27-766.14,539.38-954.81,461.87-127.92-52.56-173.32-159.88-273.44-278.11-109.16-128.9-247.92-264.63-446.42-273.67-239.79-10.92-456.04,170.52-578.05,362.62"/>
      <path class="cls-1" d="M2290.51,1086.29c-464.94,477.65-772.55,549.63-962.41,473.58-127.42-51.04-175.83-156.64-274.62-272.43-109.03-127.78-245.15-262.18-441.91-272.02-238.77-11.95-454.13,167.51-577.49,355.51"/>
      <path class="cls-1" d="M2291.53,1090.73c-470.01,487.04-778.96,559.86-970.01,485.3-126.91-49.53-178.34-153.4-275.8-266.74-108.91-126.66-242.38-259.72-437.41-270.37-237.74-12.98-452.22,164.5-576.93,348.4"/>
      <path class="cls-1" d="M2292.55,1095.17c-475.07,496.42-785.36,570.07-977.61,497.02-126.4-48.03-180.86-150.15-276.97-261.05-108.79-125.53-239.61-257.27-432.9-268.73-236.71-14.02-450.3,161.48-576.37,341.29"/>
      <path class="cls-1" d="M2293.57,1099.62c-480.13,505.81-791.75,580.26-985.21,508.73-125.89-46.55-183.38-146.89-278.15-255.36-108.68-124.4-236.84-254.83-428.4-267.08-235.69-15.07-448.39,158.47-575.81,334.18"/>
      <path class="cls-1" d="M2294.59,1104.06c-485.19,515.19-798.15,590.43-992.81,520.45-125.38-45.07-185.91-143.63-279.33-249.67-108.58-123.25-234.07-252.39-423.89-265.43-234.66-16.12-446.48,155.46-575.25,327.07"/>
      <path class="cls-1" d="M2295.61,1108.5c-490.26,524.58-804.54,600.57-1000.41,532.17-124.88-43.61-188.44-140.36-280.51-243.99-108.48-122.1-231.3-249.95-419.38-263.78-233.63-17.18-444.56,152.45-574.69,319.97"/>
      <path class="cls-1" d="M2296.63,1112.94c-495.32,533.96-810.93,610.69-1008.01,543.88-124.37-42.16-190.98-137.09-281.69-238.3-108.4-120.95-228.52-247.52-414.88-262.13-232.6-18.24-442.65,149.43-574.14,312.86"/>
      <path class="cls-1" d="M2297.64,1117.39c-500.38,543.35-817.32,620.78-1015.6,555.6-123.86-40.72-193.52-133.81-282.86-232.61-108.32-119.78-225.75-245.09-410.37-260.49-231.56-19.31-440.74,146.42-573.58,305.75"/>
      <path class="cls-1" d="M2298.66,1121.83c-505.44,552.73-823.71,630.85-1023.2,567.31-123.36-39.29-196.07-130.53-284.04-226.92-108.24-118.6-222.94-243.02-405.87-258.84-230.49-20.84-438.82,143.41-573.02,298.64"/>
      <path class="cls-1" d="M2299.68,1126.27c-510.51,562.12-830.09,640.9-1030.8,579.03-122.86-37.87-198.62-127.24-285.22-221.24-108.18-117.42-220.17-240.52-401.36-257.19-229.46-21.81-436.91,140.4-572.46,291.53"/>
      <path class="cls-1" d="M2300.7,1130.72c-515.57,571.5-836.48,650.92-1038.4,590.75-122.36-36.46-201.18-123.95-286.4-215.55-108.13-116.22-217.4-238.02-396.86-255.54-228.43-22.79-434.99,137.38-571.9,284.42"/>
      <path class="cls-1" d="M2301.72,1135.16c-520.63,580.89-842.86,660.91-1046,602.46-121.86-35.06-203.85-120.54-287.58-209.86-108.24-114.87-214.63-235.51-392.35-253.89-227.4-23.77-433.08,134.37-571.34,277.31"/>
      <path class="cls-1" d="M2302.74,1139.6c-525.7,590.27-849.25,670.88-1053.6,614.18-280.42-77.81-366.33-422.5-676.6-456.42-226.38-24.75-431.17,131.36-570.78,270.2"/>
    </g>
  </g>
</svg>