<?xml version="1.0" encoding="UTF-8"?>
<svg id="Ebene_2" data-name="Ebene 2" xmlns="http://www.w3.org/2000/svg" viewBox="0 0 1729.7 1330.11">
  <defs>
    <style>
      .cls-1 {
        fill: none;
        stroke: #505078;
        stroke-miterlimit: 10;
        stroke-width: 5px;
      }
    </style>
  </defs>
  <g id="key_visual_01" data-name="key visual 01">
    <g>
      <path class="cls-1" d="M1685.81,672.2c-185.47,55.59-367.93,72.41-476.85-22.67-107.99-94.27-53.72-219.99-168.01-387.83C952.46,131.75,767.71-16.4,564.12,4.48,351.89,26.25,161.73,227.31,112.86,500.47"/>
      <path class="cls-1" d="M1686.57,675.53c-189.27,62.63-372.82,80.24-482.55-13.88-107.68-93.01-55.55-217.59-168.89-383.56C946.78,148.95,763.97,1.87,561.68,22.11c-211.46,21.03-400.96,220.57-450.84,490.65"/>
      <path class="cls-1" d="M1687.34,678.86c-193.06,69.67-378.03,88.45-488.25-5.09-107.69-91.39-57.39-215.19-169.78-379.3C941.09,166.14,760.23,20.13,559.24,39.73c-210.69,20.3-399.52,218.31-450.42,485.32"/>
      <path class="cls-1" d="M1688.1,682.2c-196.86,76.71-383.07,96.47-493.95,3.7s-59.23-212.79-170.66-375.03c-88.09-127.52-267.01-272.46-466.7-253.51-209.92,19.57-398.08,216.05-450,479.99"/>
      <path class="cls-1" d="M1688.86,685.53c-200.66,83.75-388.11,104.48-499.65,12.49-107.35-88.54-61.06-210.39-171.54-370.76-87.95-126.71-264.93-270.59-463.32-252.27-209.14,18.83-396.65,213.79-449.58,474.65"/>
      <path class="cls-1" d="M1689.63,688.86c-204.46,90.79-393.14,112.49-505.35,21.28-107.17-87.12-62.55-208.23-172.43-366.5-87.54-126.09-262.85-268.71-459.94-251.04-208.37,18.1-395.21,211.53-449.16,469.32"/>
      <path class="cls-1" d="M1690.39,692.19c-208.26,97.83-398.16,120.51-511.05,30.07-106.98-85.71-64.33-205.88-173.31-362.23-87.35-125.32-260.77-266.83-456.56-249.8-207.6,17.37-393.78,209.27-448.74,463.99"/>
      <path class="cls-1" d="M1691.16,695.53c-212.05,104.87-403.17,128.51-516.75,38.85-106.78-84.3-66.1-203.52-174.19-357.96-87.17-124.54-258.69-264.95-453.18-248.56-206.83,16.63-392.34,207.01-448.32,458.66"/>
      <path class="cls-1" d="M1691.92,698.86c-215.85,111.91-408.18,136.52-522.45,47.64-106.58-82.9-67.88-201.17-175.08-353.7-86.98-123.77-256.58-262.66-449.8-247.33-206.03,16.34-390.91,204.75-447.9,453.32"/>
      <path class="cls-1" d="M1692.69,702.19c-219.65,118.95-413.18,144.52-528.15,56.43-106.36-81.5-69.66-198.81-175.96-349.43-86.8-122.99-254.5-260.73-446.42-246.09-205.25,15.66-389.47,202.49-447.48,447.99"/>
      <path class="cls-1" d="M1693.45,705.52c-223.45,125.99-418.18,152.52-533.85,65.22-106.14-80.11-71.45-196.45-176.84-345.16-86.62-122.22-252.42-258.81-443.04-244.86-204.48,14.97-388.04,200.23-447.06,442.66"/>
      <path class="cls-1" d="M1694.21,708.86c-227.24,133.03-423.17,160.51-539.55,74.01-105.92-78.73-73.23-194.09-177.73-340.9-86.44-121.44-250.34-256.89-439.66-243.62-203.71,14.28-386.6,197.97-446.64,437.33"/>
      <path class="cls-1" d="M1694.98,712.19c-231.04,140.07-428.15,168.5-545.25,82.8-105.68-77.35-75.02-191.72-178.61-336.63-86.26-120.66-248.26-254.98-436.28-242.38-202.93,13.59-385.16,195.71-446.22,431.99"/>
      <path class="cls-1" d="M1695.74,715.52c-234.84,147.11-433.13,176.49-550.95,91.59-105.44-75.98-76.81-189.36-179.5-332.36-86.08-119.89-246.18-253.06-432.9-241.15-202.16,12.9-383.73,193.45-445.8,426.66"/>
      <path class="cls-1" d="M1696.51,718.85c-238.64,154.15-438.09,184.47-556.65,100.38-105.19-74.61-78.61-186.99-180.38-328.09-85.91-119.11-244.1-251.15-429.52-239.91-201.39,12.21-382.29,191.19-445.38,421.33"/>
      <path class="cls-1" d="M1697.27,722.19c-242.44,161.19-443.06,192.44-562.35,109.17-104.94-73.25-80.4-184.62-181.26-323.83-85.73-118.33-242.02-249.24-426.14-238.67-200.62,11.51-380.86,188.93-444.96,416"/>
      <path class="cls-1" d="M1698.03,725.52c-246.23,168.23-448.01,200.41-568.05,117.95-104.67-71.9-82.2-182.25-182.15-319.56-85.56-117.55-239.95-247.33-422.76-237.44-199.85,10.82-379.42,186.67-444.54,410.66"/>
      <path class="cls-1" d="M1698.8,728.85c-250.03,175.27-452.96,208.37-573.75,126.74-104.4-70.56-84.01-179.88-183.03-315.29-85.39-116.76-237.87-245.42-419.38-236.2-199.08,10.12-377.99,184.41-444.12,405.33"/>
      <path class="cls-1" d="M1699.56,732.19c-253.83,182.31-457.9,216.33-579.45,135.53-104.13-69.22-85.81-177.51-183.91-311.03-85.22-115.98-235.79-243.52-416-234.96-198.31,9.41-376.55,182.15-443.7,400"/>
      <path class="cls-1" d="M1700.33,735.52c-257.63,189.35-462.84,224.28-585.15,144.32-103.84-67.89-87.62-175.14-184.8-306.76-85.05-115.2-233.71-241.62-412.62-233.73-197.54,8.71-375.12,179.89-443.28,394.67"/>
      <path class="cls-1" d="M1701.09,738.85c-261.42,196.39-467.76,232.23-590.85,153.11-103.55-66.56-89.43-172.76-185.68-302.49-84.89-114.41-231.64-239.72-409.24-232.49-196.77,8-373.68,177.63-442.86,389.33"/>
      <path class="cls-1" d="M1701.85,742.18c-265.22,203.43-472.69,240.17-596.55,161.9-103.26-65.25-91.24-170.38-186.56-298.23-84.72-113.63-229.56-237.82-405.86-231.26-196,7.3-372.25,175.37-442.44,384"/>
      <path class="cls-1" d="M1702.62,745.52c-269.02,210.47-477.6,248.1-602.25,170.69-102.96-63.94-93.06-168-187.45-293.96-84.56-112.84-227.48-235.92-402.48-230.02-195.23,6.59-370.81,173.11-442.02,378.67"/>
      <path class="cls-1" d="M1703.38,748.85c-272.82,217.51-482.51,256.02-607.95,179.48-102.65-62.64-94.87-165.62-188.33-289.69-84.4-112.05-225.41-234.03-399.1-228.78-194.47,5.87-369.37,170.85-441.6,373.34"/>
      <path class="cls-1" d="M1704.15,752.18c-276.62,224.55-487.42,263.94-613.65,188.27-102.33-61.34-96.7-163.24-189.22-285.43-84.25-111.26-223.33-232.14-395.72-227.55-193.7,5.16-367.94,168.59-441.18,368"/>
      <path class="cls-1" d="M1704.91,755.51c-280.41,231.59-492.31,271.84-619.35,197.06-102.02-60.06-98.52-160.85-190.1-281.16-84.09-110.47-221.26-230.25-392.34-226.31-192.93,4.44-366.5,166.33-440.76,362.67"/>
      <path class="cls-1" d="M1705.67,758.85c-284.21,238.63-497.2,279.74-625.05,205.84-101.69-58.78-100.35-158.46-190.98-276.89-83.94-109.68-219.18-228.36-388.96-225.07-192.16,3.72-365.07,164.07-440.34,357.34"/>
      <path class="cls-1" d="M1706.44,762.18c-288.01,245.67-502.09,287.63-630.75,214.63-101.36-57.51-102.18-156.08-191.87-272.63-83.79-108.88-217.11-226.48-385.58-223.84-191.39,3-363.63,161.81-439.92,352.01"/>
      <path class="cls-1" d="M1707.2,765.51c-291.81,252.71-506.97,295.51-636.45,223.42-101.03-56.25-104.01-153.68-192.75-268.36-83.64-108.09-215.03-224.6-382.2-222.6-190.63,2.27-362.2,159.55-439.5,346.67"/>
      <path class="cls-1" d="M1707.97,768.84c-295.61,259.75-511.84,303.38-642.15,232.21-100.69-54.99-105.85-151.29-193.63-264.09-83.49-107.29-212.96-222.72-378.82-221.37-189.86,1.55-360.76,157.29-439.08,341.34"/>
      <path class="cls-1" d="M1708.73,772.18c-299.4,266.79-516.71,311.24-647.85,241-100.35-53.74-107.69-148.89-194.52-259.83-83.35-106.49-210.88-220.84-375.44-220.13-189.09.81-359.33,155.03-438.66,336.01"/>
      <path class="cls-1" d="M1709.49,775.51c-303.2,273.83-521.57,319.09-653.55,249.79-100-52.51-109.53-146.49-195.4-255.56-83.21-105.69-208.81-218.96-372.06-218.89-188.33.08-357.89,152.77-438.24,330.67"/>
      <path class="cls-1" d="M1710.26,778.84c-307,280.87-526.42,326.93-659.25,258.58-99.65-51.28-111.38-144.09-196.28-251.29-83.07-104.88-206.73-217.09-368.68-217.66-187.56-.65-356.45,150.51-437.82,325.34"/>
      <path class="cls-1" d="M1711.02,782.17c-310.8,287.91-531.28,334.75-664.95,267.37-99.29-50.05-113.22-141.69-197.17-247.03-82.94-104.08-204.66-215.22-365.3-216.42-186.79-1.39-355.02,148.26-437.4,320.01"/>
      <path class="cls-1" d="M1711.79,785.51c-314.59,294.95-536.12,342.57-670.65,276.16-98.93-48.84-115.08-139.28-198.05-242.76-82.81-103.27-202.58-213.35-361.92-215.18-186.02-2.14-353.58,146-436.98,314.68"/>
      <path class="cls-1" d="M1712.55,788.84c-318.39,301.99-540.96,350.37-676.35,284.95-98.57-47.63-116.93-136.88-198.94-238.49-82.68-102.46-200.51-211.49-358.54-213.95-185.26-2.88-352.15,143.74-436.56,309.34"/>
      <path class="cls-1" d="M1713.31,792.17c-322.19,309.03-545.8,358.16-682.05,293.73-98.2-46.43-118.79-134.46-199.82-234.23s-198.43-209.63-355.16-212.71c-184.49-3.63-350.71,141.48-436.14,304.01"/>
      <path class="cls-1" d="M1714.08,795.5c-325.99,316.07-550.63,365.94-687.75,302.52-97.84-45.25-120.65-132.05-200.7-229.96-82.44-100.83-196.36-207.77-351.78-211.47-183.72-4.38-349.28,139.22-435.72,298.68"/>
      <path class="cls-1" d="M1714.84,798.84c-329.79,323.11-555.45,373.7-693.45,311.31-97.46-44.06-122.52-129.63-201.59-225.69-82.32-100.01-194.28-205.91-348.4-210.24-182.95-5.14-347.84,136.96-435.3,293.35"/>
      <path class="cls-1" d="M1715.61,802.17c-333.58,330.15-560.28,381.45-699.15,320.1-97.09-42.89-124.39-127.21-202.47-221.43-82.2-99.18-192.2-204.06-345.02-209-182.19-5.89-346.41,134.7-434.88,288.01"/>
      <path class="cls-1" d="M1716.37,805.5c-337.38,337.19-565.1,389.19-704.85,328.89-96.72-41.73-126.26-124.79-203.35-217.16-82.09-98.36-190.13-202.21-341.64-207.77-181.42-6.66-344.97,132.44-434.46,282.68"/>
      <path class="cls-1" d="M1717.13,808.84c-341.18,344.23-569.91,396.91-710.55,337.68-96.34-40.57-128.13-122.37-204.24-212.89-81.99-97.53-188.05-200.36-338.26-206.53-180.65-7.42-343.54,130.18-434.04,277.35"/>
      <path class="cls-1" d="M1717.9,812.17c-344.98,351.27-574.72,404.61-716.25,346.47-95.96-39.42-130.01-119.94-205.12-208.63-81.89-96.69-185.98-198.51-334.88-205.29-179.88-8.19-342.1,127.92-433.62,272.02"/>
      <path class="cls-1" d="M1718.66,815.5c-348.77,358.31-579.53,412.31-721.95,355.26-95.58-38.29-131.9-117.51-206-204.36-81.79-95.86-183.9-196.67-331.5-204.06-179.11-8.96-340.66,125.66-433.2,266.68"/>
      <path class="cls-1" d="M1719.43,818.83c-352.57,365.35-584.33,419.98-727.65,364.05-95.2-37.15-133.78-115.07-206.89-200.09-81.7-95.01-181.82-194.83-328.12-202.82-178.34-9.74-339.23,123.4-432.78,261.35"/>
      <path class="cls-1" d="M1720.19,822.17c-356.37,372.39-589.13,427.64-733.35,372.84-94.82-36.03-135.67-112.63-207.77-195.83-81.61-94.17-179.74-192.99-324.74-201.58-177.57-10.52-337.79,121.14-432.36,256.02"/>
      <path class="cls-1" d="M1720.95,825.5c-360.17,379.43-593.93,435.28-739.05,381.62-94.44-34.92-137.56-110.19-208.66-191.56-81.53-93.32-177.67-191.16-321.36-200.35-176.8-11.3-336.36,118.88-431.94,250.69"/>
      <path class="cls-1" d="M1721.72,828.83c-363.97,386.47-598.73,442.91-744.75,390.41-94.06-33.81-139.46-107.74-209.54-187.29-81.45-92.46-175.59-189.33-317.98-199.11-176.03-12.09-334.92,116.62-431.53,245.35"/>
      <path class="cls-1" d="M1722.48,832.16c-367.76,393.51-603.52,450.51-750.45,399.2-93.68-32.71-141.36-105.29-210.42-183.03-81.38-91.6-173.51-187.5-314.6-197.87-175.25-12.89-333.49,114.36-431.11,240.02"/>
      <path class="cls-1" d="M1723.25,835.5c-371.56,400.55-608.32,458.1-756.15,407.99-93.3-31.63-143.26-102.84-211.31-178.76-81.31-90.73-171.43-185.68-311.22-196.64-174.48-13.68-332.05,112.1-430.69,234.69"/>
      <path class="cls-1" d="M1724.01,838.83c-375.36,407.59-613.11,465.68-761.85,416.78-92.92-30.54-145.17-100.38-212.19-174.49-81.25-89.85-169.35-183.85-307.84-195.4-173.71-14.48-330.62,109.84-430.27,229.36"/>
      <path class="cls-1" d="M1724.77,842.16c-379.16,414.63-617.9,473.23-767.55,425.57-92.54-29.47-147.08-97.92-213.07-170.23-81.2-88.97-167.24-182.3-304.46-194.17-172.9-15.63-329.18,107.58-429.85,224.02"/>
      <path class="cls-1" d="M1725.54,845.49c-382.96,421.67-622.69,480.77-773.25,434.36-92.16-28.41-148.99-95.45-213.96-165.96-81.15-88.08-165.16-180.43-301.08-192.93-172.13-16.36-327.75,105.32-429.43,218.69"/>
      <path class="cls-1" d="M1726.3,848.83c-386.75,428.71-627.48,488.28-778.95,443.15-91.79-27.35-150.91-92.98-214.84-161.69-81.11-87.18-163.08-178.55-297.7-191.69-171.36-17.1-326.31,103.06-429.01,213.36"/>
      <path class="cls-1" d="M1727.07,852.16c-390.55,435.75-632.27,495.78-784.65,451.94-91.41-26.3-152.92-90.42-215.72-157.43-81.19-86.17-161-176.67-294.32-190.46-170.59-17.83-324.87,100.8-428.59,208.03"/>
      <path class="cls-1" d="M1727.83,855.49c-394.35,442.79-637.06,503.26-790.35,460.73-210.36-58.37-274.8-316.94-507.55-342.38-169.82-18.56-323.44,98.54-428.17,202.69"/>
    </g>
  </g>
</svg>