<?xml version="1.0" encoding="UTF-8"?>
<svg id="Ebene_2" data-name="Ebene 2" xmlns="http://www.w3.org/2000/svg" viewBox="0 0 1080 244.26">
  <defs>
    <style>
      .cls-1 {
        fill: none;
        stroke: #505078;
        stroke-miterlimit: 10;
        stroke-width: 4px;
      }
    </style>
  </defs>
  <g id="text">
    <g>
      <line class="cls-1" x1="992.04" y1="54.99" y2="54.99"/>
      <line class="cls-1" x1="992.04" y1="63.91" y2="63.91"/>
      <line class="cls-1" x1="1080" y1="72.82" y2="72.82"/>
      <line class="cls-1" x1="1080" y1="81.74" y2="81.74"/>
      <line class="cls-1" x1="1080" y1="90.66" y2="90.66"/>
      <line class="cls-1" x1="1080" y1="99.58" y2="99.58"/>
      <line class="cls-1" x1="1080" y1="108.49" y2="108.49"/>
      <line class="cls-1" x1="1080" y1="117.41" y2="117.41"/>
      <line class="cls-1" x1="1080" y1="126.33" y2="126.33"/>
      <line class="cls-1" x1="1080" y1="135.25" y2="135.25"/>
      <line class="cls-1" x1="1080" y1="144.16" y2="144.16"/>
      <line class="cls-1" x1="1080" y1="153.08" y2="153.08"/>
      <line class="cls-1" x1="1080" y1="162" y2="162"/>
      <line class="cls-1" x1="1080" y1="170.92" y2="170.92"/>
      <line class="cls-1" x1="1080" y1="179.83" y2="179.83"/>
      <line class="cls-1" x1="1080" y1="188.75" y2="188.75"/>
      <line class="cls-1" x1="1080" y1="197.67" x2="601.61" y2="197.67"/>
      <line class="cls-1" x1="1080" y1="206.59" x2="601.61" y2="206.59"/>
      <line class="cls-1" x1="1080" y1="215.5" x2="141.79" y2="215.5"/>
      <line class="cls-1" x1="1080" y1="224.42" x2="141.79" y2="224.42"/>
      <line class="cls-1" x1="1080" y1="233.34" x2="326.38" y2="233.34"/>
      <line class="cls-1" x1="1080" y1="242.26" x2="326.38" y2="242.26"/>
      <line class="cls-1" x1="928.43" y1="2" x2="601.61" y2="2"/>
      <line class="cls-1" x1="1080" y1="10.92" x2="601.61" y2="10.92"/>
      <line class="cls-1" x1="1027.42" y1="19.83" x2="141.79" y2="19.83"/>
      <line class="cls-1" x1="1027.42" y1="28.75" x2="141.79" y2="28.75"/>
      <line class="cls-1" x1="1080" y1="37.67" x2="326.38" y2="37.67"/>
      <line class="cls-1" x1="1080" y1="46.59" x2="326.38" y2="46.59"/>
    </g>
  </g>
</svg>