<?xml version="1.0" encoding="UTF-8"?>
<svg id="Ebene_2" data-name="Ebene 2" xmlns="http://www.w3.org/2000/svg" viewBox="0 0 2194.74 1717.03">
  <defs>
    <style>
      .cls-1 {
        fill: none;
        stroke: #505078;
        stroke-miterlimit: 10;
        stroke-width: 3px;
      }
    </style>
  </defs>
  <g id="key_visual_01" data-name="key visual 01">
    <g>
      <path class="cls-1" d="M592.93,1716.48c228.71-587.26,448.08-737.46,616.55-751.91,231.19-19.83,391.22,213.87,632.51,152.94,176.04-44.45,285.67-218.05,351.39-360.62"/>
      <path class="cls-1" d="M2187.89,743.66c-66.77,139.86-177.64,310.13-354.18,354.02-240.5,60.06-401.6-168.82-632.48-147.84-170.41,16.14-390.66,167.06-618.87,749.66"/>
      <path class="cls-1" d="M2182.4,730.43c-67.82,137.14-179.94,304.1-356.96,347.42-239.71,59.19-401.95-165.73-632.46-142.74-172.42,17.2-393.49,169.47-621.18,747.4"/>
      <path class="cls-1" d="M2176.91,717.2c-68.87,134.43-182.23,298.06-359.74,340.82-238.91,58.32-402.27-162.17-632.44-137.64-174.4,18.59-396.32,171.88-623.5,745.15"/>
      <path class="cls-1" d="M2171.42,703.97c-69.92,131.71-184.61,291.67-362.53,334.22-238.24,56.97-402.59-158.59-632.41-132.55-176.39,19.99-399.14,174.29-625.82,742.89"/>
      <path class="cls-1" d="M2165.93,690.74c-70.97,128.99-186.92,285.55-365.31,327.62-237.47,56-402.91-154.98-632.39-127.45-178.37,21.4-401.97,176.69-628.13,740.64"/>
      <path class="cls-1" d="M2160.44,677.51c-72.02,126.28-189.23,279.44-368.09,321.02-236.7,55.03-403.24-151.35-632.36-122.35-180.36,22.83-404.79,179.1-630.45,738.38"/>
      <path class="cls-1" d="M2154.95,664.28c-73.07,123.56-191.54,273.32-370.88,314.42-235.93,54.06-403.56-147.69-632.34-117.25-182.36,24.27-407.62,181.51-632.77,736.13"/>
      <path class="cls-1" d="M2149.46,651.05c-74.12,120.85-193.85,267.22-373.66,307.82-235.16,53.1-403.88-144.02-632.32-112.15-184.35,25.72-410.45,183.92-635.08,733.87"/>
      <path class="cls-1" d="M2143.97,637.82c-75.17,118.13-196.16,261.11-376.44,301.22-234.39,52.15-404.21-140.32-632.29-107.05-186.34,27.18-413.27,186.33-637.4,731.62"/>
      <path class="cls-1" d="M2138.48,624.59c-76.22,115.42-198.46,255.01-379.22,294.62-233.61,51.19-404.53-136.6-632.27-101.96-188.34,28.65-416.1,188.74-639.72,729.36"/>
      <path class="cls-1" d="M2132.99,611.36c-77.27,112.7-200.77,248.9-382.01,288.02-232.83,50.25-404.86-132.86-632.24-96.86-190.34,30.14-418.93,191.15-642.03,727.11"/>
      <path class="cls-1" d="M2127.5,598.12c-78.32,109.98-203.07,242.81-384.79,281.42-232.06,49.31-405.18-129.1-632.22-91.76-192.33,31.64-421.75,193.56-644.35,724.85"/>
      <path class="cls-1" d="M2122.01,584.89c-79.37,107.27-205.38,236.71-387.57,274.82-231.28,48.37-405.5-125.33-632.2-86.66-194.33,33.15-424.58,195.96-646.67,722.6"/>
      <path class="cls-1" d="M2116.53,571.66c-80.42,104.55-207.68,230.62-390.36,268.22-230.49,47.44-405.82-121.53-632.17-81.56-196.33,34.67-427.4,198.37-648.98,720.34"/>
      <path class="cls-1" d="M2111.04,558.43c-81.47,101.84-209.98,224.53-393.14,261.62-229.71,46.51-406.14-117.72-632.15-76.46-198.32,36.2-430.23,200.78-651.3,718.09"/>
      <path class="cls-1" d="M2105.55,545.2c-82.52,99.12-212.28,218.45-395.92,255.02-228.93,45.59-406.46-113.89-632.12-71.37-200.32,37.75-433.06,203.19-653.62,715.83"/>
      <path class="cls-1" d="M2100.06,531.97c-83.57,96.41-214.58,212.36-398.7,248.42-228.14,44.67-406.77-110.05-632.1-66.27-202.31,39.31-435.88,205.6-655.93,713.58"/>
      <path class="cls-1" d="M2094.57,518.74c-84.62,93.69-216.87,206.29-401.49,241.82-227.35,43.76-407.09-106.19-632.08-61.17-204.3,40.88-438.71,208.01-658.25,711.32"/>
      <path class="cls-1" d="M2089.08,505.51c-85.67,90.97-219.17,200.21-404.27,235.22-226.57,42.85-407.4-102.31-632.05-56.07-206.29,42.46-441.54,210.42-660.56,709.07"/>
      <path class="cls-1" d="M2083.59,492.28c-86.72,88.26-221.47,194.14-407.05,228.62-225.78,41.94-407.71-98.42-632.03-50.97-208.28,44.06-444.36,212.83-662.88,706.81"/>
      <path class="cls-1" d="M2078.1,479.05c-87.77,85.54-223.76,188.07-409.84,222.01-224.99,41.05-408.01-94.52-632-45.88-210.27,45.66-447.19,215.23-665.2,704.56"/>
      <path class="cls-1" d="M2072.61,465.82c-88.82,82.83-226.06,182-412.62,215.41-224.2,40.15-408.32-90.6-631.98-40.78-212.26,47.28-450.02,217.64-667.51,702.3"/>
      <path class="cls-1" d="M2067.12,452.59c-89.87,80.11-228.35,175.94-415.4,208.81-223.4,39.26-408.62-86.67-631.96-35.68-214.24,48.91-452.84,220.05-669.83,700.05"/>
      <path class="cls-1" d="M2061.63,439.36c-90.92,77.4-230.64,169.88-418.19,202.21-222.61,38.38-408.92-82.73-631.93-30.58-216.22,50.56-455.67,222.46-672.15,697.79"/>
      <path class="cls-1" d="M2056.14,426.13c-91.97,74.68-232.93,163.83-420.97,195.61-221.81,37.5-409.22-78.77-631.91-25.48-218.2,52.21-458.49,224.87-674.46,695.54"/>
      <path class="cls-1" d="M2050.65,412.9c-93.02,71.97-235.23,157.78-423.75,189.01-221.02,36.62-409.51-74.8-631.88-20.38-220.17,53.88-461.32,227.28-676.78,693.28"/>
      <path class="cls-1" d="M2045.16,399.66c-94.07,69.25-237.52,151.73-426.53,182.41-220.22,35.75-409.8-70.82-631.86-15.29-222.14,55.56-464.15,229.69-679.1,691.03"/>
      <path class="cls-1" d="M2039.67,386.43c-95.12,66.53-239.81,145.69-429.32,175.81-219.43,34.88-410.09-66.83-631.84-10.19-224.11,57.25-466.97,232.1-681.41,688.77"/>
      <path class="cls-1" d="M2034.18,373.2c-96.17,63.82-242.1,139.65-432.1,169.21-218.63,34.02-410.37-62.83-631.81-5.09-226.08,58.95-469.8,234.51-683.73,686.52"/>
      <path class="cls-1" d="M2028.69,359.97c-97.22,61.1-244.38,133.61-434.88,162.61-217.83,33.16-410.65-58.82-631.79,0-228.04,60.66-472.63,236.91-686.05,684.26"/>
      <path class="cls-1" d="M2023.2,346.74c-98.26,58.39-246.67,127.58-437.67,156.01-217.03,32.31-410.93-54.8-631.76,5.11-230,62.39-475.45,239.32-688.36,682.01"/>
      <path class="cls-1" d="M2017.71,333.51c-99.31,55.67-248.96,121.55-440.45,149.41-216.23,31.46-411.2-50.77-631.74,10.21-231.95,64.13-478.28,241.73-690.68,679.75"/>
      <path class="cls-1" d="M2012.22,320.28c-100.36,52.96-251.25,115.53-443.23,142.81-215.43,30.61-411.47-46.73-631.71,15.3-233.9,65.88-481.1,244.14-693,677.5"/>
      <path class="cls-1" d="M2006.73,307.05c-101.41,50.24-253.53,109.51-446.01,136.21-214.63,29.77-411.74-42.68-631.69,20.4-235.84,67.64-483.93,246.55-695.31,675.24"/>
      <path class="cls-1" d="M2001.24,293.82c-102.46,47.52-255.82,103.5-448.8,129.61-213.83,28.94-412-38.62-631.67,25.5-237.78,69.41-486.76,248.96-697.63,672.99"/>
      <path class="cls-1" d="M1995.75,280.59c-103.51,44.81-258.11,97.49-451.58,123.01-213.03,28.11-412.26-34.55-631.64,30.6-239.72,71.19-489.58,251.37-699.95,670.73"/>
      <path class="cls-1" d="M1990.26,267.36c-104.56,42.09-260.39,91.48-454.36,116.41-212.23,27.28-412.52-30.48-631.62,35.7-241.65,72.98-492.41,253.78-702.26,668.48"/>
      <path class="cls-1" d="M1984.77,254.13c-105.61,39.38-262.68,85.48-457.15,109.81-211.42,26.46-412.77-26.39-631.59,40.8-243.58,74.79-495.24,256.18-704.58,666.22"/>
      <path class="cls-1" d="M1979.28,240.9c-106.66,36.66-264.96,79.48-459.93,103.21-210.62,25.64-413.02-22.3-631.57,45.89-245.5,76.61-498.06,258.59-706.9,663.97"/>
      <path class="cls-1" d="M1973.79,227.67c-107.71,33.95-267.24,73.49-462.71,96.61-209.82,24.82-413.26-18.21-631.55,50.99-247.42,78.43-500.89,261-709.21,661.71"/>
      <path class="cls-1" d="M1968.3,214.44c-108.76,31.23-269.53,67.5-465.5,90.01-209.02,24.01-413.5-14.1-631.52,56.09-249.33,80.27-503.71,263.41-711.53,659.46"/>
      <path class="cls-1" d="M1962.81,201.2c-109.81,28.51-271.81,61.51-468.28,83.41-208.21,23.21-413.74-9.99-631.5,61.19-251.24,82.12-506.54,265.82-713.85,657.21"/>
      <path class="cls-1" d="M1957.32,187.97c-110.86,25.8-274.1,55.53-471.06,76.81-207.41,22.41-413.97-5.87-631.47,66.29-253.14,83.98-509.37,268.23-716.16,654.95"/>
      <path class="cls-1" d="M1951.84,174.74c-111.91,23.08-276.38,49.56-473.84,70.21-206.61,21.61-414.2-1.75-631.45,71.38-255.04,85.86-512.19,270.64-718.48,652.7"/>
      <path class="cls-1" d="M1946.35,161.51c-112.96,20.37-278.66,43.59-476.63,63.61-205.8,20.81-414.43,2.38-631.43,76.48-256.93,87.74-515.02,273.05-720.8,650.44"/>
      <path class="cls-1" d="M1940.86,148.28c-114.01,17.65-280.95,37.62-479.41,57.01-205,20.03-414.65,6.51-631.4,81.58-258.81,89.63-517.85,275.46-723.11,648.19"/>
      <path class="cls-1" d="M1935.37,135.05c-115.06,14.94-283.23,31.66-482.19,50.41-204.2,19.24-414.87,10.66-631.38,86.68-260.69,91.54-520.67,277.86-725.43,645.93"/>
      <path class="cls-1" d="M1929.88,121.82c-116.11,12.22-285.52,25.71-484.98,43.81-203.4,18.46-415.08,14.8-631.35,91.78-262.56,93.45-523.5,280.27-727.75,643.68"/>
      <path class="cls-1" d="M1924.39,108.59c-117.16,9.5-287.8,19.76-487.76,37.21-202.59,17.68-415.29,18.95-631.33,96.88-264.43,95.37-526.33,282.68-730.06,641.42"/>
      <path class="cls-1" d="M1918.9,95.36c-118.21,6.79-290.08,13.81-490.54,30.61-201.79,16.91-415.49,23.11-631.31,101.97-266.29,97.31-529.15,285.09-732.38,639.17"/>
      <path class="cls-1" d="M1913.41,82.13c-119.26,4.07-292.37,7.87-493.32,24.01-200.99,16.14-415.69,27.27-631.28,107.07C520.65,312.47,256.82,500.71,54.1,850.12"/>
      <path class="cls-1" d="M1907.92,68.9c-120.31,1.36-294.65,1.94-496.11,17.41s-415.89,31.44-631.26,112.17C510.55,299.69,245.75,488.39,43.54,833.13"/>
      <path class="cls-1" d="M1902.43,55.67c-121.36-1.36-296.91-3.65-498.89,10.81-199.36,14.95-416.08,35.61-631.23,117.27C500.46,286.92,234.67,476.06,32.97,816.15"/>
      <path class="cls-1" d="M1896.94,42.44c-122.41-4.07-299.2-9.68-501.67,4.21-198.57,14.09-416.27,39.78-631.21,122.37C490.37,274.17,223.6,463.74,22.41,799.16"/>
      <path class="cls-1" d="M1891.45,29.21c-123.46-6.79-301.5-15.72-504.46-2.39-197.78,13.22-416.37,44.2-631.19,127.47C480.41,261.73,212.52,451.41,11.84,782.17"/>
      <path class="cls-1" d="M1885.96,15.98C1485.03-14.63,516.19-73.64,1.28,765.18"/>
    </g>
  </g>
</svg>