<?xml version="1.0" encoding="UTF-8"?>
<svg id="Ebene_2" data-name="Ebene 2" xmlns="http://www.w3.org/2000/svg" viewBox="0 0 1710.91 1668.3">
  <defs>
    <style>
      .cls-1 {
        fill: none;
        stroke: #1e0032;
        stroke-miterlimit: 10;
        stroke-width: 3px;
      }
    </style>
  </defs>
  <g id="key_visual_02" data-name="key visual 02">
    <g>
      <path class="cls-1" d="M604.23,1394.12c57.54,22.13,123.17,31.34,181.57,34.45,60.53,3.22,122.1-17.51,179.43-32.88,57.9-15.53,161.56,33.27,211.88.69,49.82-32.26,69.47-129.08,107.63-176.17,36.82-45.44,66.55-107.74,88.67-165.28,22.13-57.54,43.47-123.61,46.58-182.02,3.22-60.53,18.61-136.74,3.24-194.07-15.53-57.9-99.56-95.1-132.14-145.42-32.26-49.82-15.35-162.11-62.44-200.28s-156.88,16.93-214.42-5.2c-57.54-22.13-111.01-9.64-169.41-12.75-60.53-3.22-129.93-85.84-187.26-70.47-57.9,15.53-117.3,59.37-167.62,91.95-49.82,32.26-57.63,114.34-95.8,161.43-36.82,45.44-37,99.95-59.13,157.49-22.13,57.54-11.62,100.62-14.72,159.02-3.22,60.53-2.4,98.21,12.97,155.54,15.53,57.9-55.17,148.79-22.59,199.11,32.26,49.82,55.2,131.8,102.29,169.97,45.44,36.82,133.73,32.75,191.27,54.88Z"/>
      <path class="cls-1" d="M486.28,329.87c-50.72,32.87-60.89,113.36-99.81,161.43-37.63,46.48-37.95,102.13-60.41,160.61-22.5,58.6-15.91,102.5-19.05,162.08-3.25,61.65-1.29,101.27,14.41,159.72,15.84,58.97-53.17,151.02-19.91,202.32,32.87,50.72,60.67,129.08,108.74,167.99,46.48,37.63,132.47,38.67,190.95,61.13,58.6,22.5,125.82,28.22,185.4,31.36,61.65,3.25,124.45-14.05,182.9-29.75,58.97-15.84,161.02,27.96,212.32-5.29,50.72-32.87,73.17-127.09,112.08-175.16,37.63-46.48,65.81-110.37,88.27-168.84,22.5-58.6,44.77-124.94,47.91-184.52,3.25-61.65,20.56-139,4.86-197.46-15.84-58.97-98.8-98.32-132.05-149.62-32.87-50.72-19.6-161.37-67.66-200.28-46.48-37.63-156.8,11.47-215.27-10.99-58.6-22.5-114.3-6.53-173.88-9.67-61.65-3.25-131.61-84.47-190.07-68.77-58.97,15.84-118.42,60.44-169.72,93.7Z"/>
      <path class="cls-1" d="M482.62,323.05c-51.61,33.49-64.15,112.39-103.82,161.42-38.43,47.52-38.9,104.32-61.68,163.72-22.88,59.65-20.2,104.39-23.37,165.14-3.28,62.78-.17,104.32,15.86,163.9,16.15,60.04-51.17,153.25-17.24,205.54,33.49,51.61,66.15,126.36,115.18,166.02,47.52,38.43,131.22,44.6,190.63,67.38,59.65,22.88,128.47,25.1,189.22,28.27,62.78,3.28,126.79-10.58,186.38-26.61,60.04-16.15,160.48,22.66,212.76-11.27,51.61-33.49,76.87-125.11,116.53-174.15,38.43-47.52,65.07-113,87.86-172.41,22.88-59.65,46.07-126.26,49.24-187.02,3.28-62.78,22.51-141.26,6.48-200.84-16.15-60.04-98.03-101.53-131.96-153.81-33.49-51.61-23.85-160.63-72.88-200.29-47.52-38.43-156.72,6-216.13-16.79-59.65-22.88-117.6-3.42-178.35-6.59-62.78-3.28-133.29-83.1-192.88-67.07-60.04,16.15-119.54,61.51-171.82,95.44Z"/>
      <path class="cls-1" d="M478.96,316.23c-52.5,34.11-67.41,111.41-107.82,161.41-39.24,48.56-39.84,106.5-62.96,166.84-23.25,60.71-24.5,106.28-27.69,168.21-3.3,63.9.95,107.37,17.3,168.09,16.46,61.11-49.17,155.49-14.57,208.75,34.11,52.5,71.62,123.64,121.63,164.05,48.56,39.24,129.96,50.52,190.31,73.64,60.71,23.25,131.12,21.98,193.05,25.18,63.9,3.3,129.14-7.12,189.85-23.47,61.11-16.46,159.93,17.35,213.2-17.25,52.5-34.11,80.57-123.13,120.98-173.14,39.24-48.56,64.33-115.64,87.45-175.98,23.25-60.71,47.38-127.59,50.57-189.51,3.3-63.9,24.45-143.51,8.1-204.23-16.46-61.11-97.27-104.74-131.87-158.01-34.11-52.5-28.09-159.89-78.1-200.3-48.56-39.24-156.64.53-216.99-22.59-60.71-23.25-120.89-.31-182.82-3.5-63.9-3.3-134.98-81.73-195.69-65.37-61.11,16.46-120.66,62.58-173.92,97.18Z"/>
      <path class="cls-1" d="M475.3,309.41c-53.4,34.72-70.67,110.43-111.83,161.41-40.04,49.6-40.79,108.69-64.24,169.96-23.63,61.76-28.79,108.17-32.02,171.27-3.33,65.02,2.07,110.43,18.75,172.27,16.77,62.18-47.17,157.72-11.89,211.97,34.72,53.4,77.1,120.92,128.07,162.08,49.6,40.04,128.71,56.45,189.99,79.89,61.76,23.63,133.77,18.85,196.87,22.08,65.02,3.33,131.48-3.66,193.32-20.34,62.18-16.77,159.39,12.04,213.64-23.24,53.4-34.72,84.26-121.15,125.43-172.12,40.04-49.6,63.6-118.27,87.04-179.55,23.63-61.76,48.68-128.91,51.91-192.01,3.33-65.02,26.4-145.77,9.72-207.61-16.77-62.18-96.5-107.95-131.78-162.2-34.72-53.4-32.34-159.15-83.32-200.31-49.6-40.04-156.56-4.94-217.84-28.38-61.76-23.63-124.18,2.81-187.29-.42-65.02-3.33-136.66-80.36-198.5-63.68-62.18,16.77-121.78,63.65-176.02,98.93Z"/>
      <path class="cls-1" d="M471.65,302.59c-54.29,35.34-73.93,109.45-115.84,161.4-40.85,50.64-41.74,110.87-65.52,173.08-24,62.82-33.08,110.05-36.34,174.33-3.36,66.14,3.19,113.48,20.19,176.45,17.08,63.25-45.17,159.95-9.22,215.18,35.34,54.29,82.57,118.2,134.52,160.11,50.64,40.85,127.45,62.37,189.67,86.15,62.82,24,136.42,15.73,200.69,18.99,66.14,3.36,133.82-.19,196.8-17.2,63.25-17.08,158.85,6.73,214.08-29.22,54.29-35.34,87.96-119.17,129.88-171.11,40.85-50.64,62.86-120.9,86.64-183.11,24-62.82,49.98-130.24,53.24-194.51,3.36-66.14,28.35-148.03,11.34-211-17.08-63.25-95.74-111.17-131.69-166.39-35.34-54.29-36.59-158.4-88.54-200.32-50.64-40.85-156.49-10.4-218.7-34.18-62.82-24-127.48,5.92-191.76,2.66-66.14-3.36-138.34-78.98-201.31-61.98-63.25,17.08-122.9,64.72-178.12,100.67Z"/>
      <path class="cls-1" d="M467.99,295.77c-55.19,35.96-77.19,108.47-119.85,161.39-41.66,51.68-42.69,113.06-66.79,176.2-24.38,63.87-37.37,111.94-40.66,177.39-3.38,67.27,4.3,116.54,21.64,180.64,17.39,64.32-43.17,162.18-6.55,218.4,35.96,55.19,88.04,115.48,140.96,158.14,51.68,41.66,126.2,68.3,189.35,92.4,63.87,24.38,139.07,12.61,204.52,15.9,67.27,3.38,136.17,3.27,200.27-14.06,64.32-17.39,158.31,1.42,214.52-35.2,55.19-35.96,91.66-117.18,134.32-170.1,41.66-51.68,62.12-123.53,86.23-186.68,24.38-63.87,51.28-131.56,54.57-197.01,3.38-67.27,30.3-150.28,12.96-214.38-17.39-64.32-94.97-114.38-131.6-170.59-35.96-55.19-40.84-157.66-93.76-200.32-51.68-41.66-156.41-15.87-219.55-39.98-63.87-24.38-130.77,9.03-196.23,5.74-67.27-3.38-140.02-77.61-204.12-60.28-64.32,17.39-124.01,65.79-180.23,102.42Z"/>
      <path class="cls-1" d="M464.33,288.95c-56.08,36.58-80.45,107.5-123.86,161.38-42.46,52.72-43.64,115.24-68.07,179.32-24.75,64.93-41.67,113.83-44.99,180.45-3.41,68.39,5.42,119.59,23.08,184.82,17.7,65.39-41.18,164.42-3.87,221.61,36.58,56.08,93.52,112.75,147.4,156.16,52.72,42.46,124.94,74.22,189.03,98.66,64.93,24.75,141.72,9.49,208.34,12.81,68.39,3.41,138.51,6.74,203.74-10.93,65.39-17.7,157.77-3.88,214.96-41.19,56.08-36.58,95.36-115.2,138.77-169.09,42.46-52.72,61.39-126.17,85.82-190.25,24.75-64.93,52.59-132.88,55.9-199.51,3.41-68.39,32.24-152.54,14.58-217.77-17.7-65.39-94.2-117.59-131.51-174.78-36.58-56.08-45.09-156.92-98.98-200.33-52.72-42.46-156.33-21.34-220.41-45.77-64.93-24.75-134.07,12.14-200.69,8.82-68.39-3.41-141.7-76.24-206.93-58.58-65.39,17.7-125.13,66.86-182.33,104.16Z"/>
      <path class="cls-1" d="M460.67,282.13c-56.98,37.19-83.71,106.52-127.87,161.38-43.27,53.76-44.58,117.43-69.35,182.44-25.13,65.99-45.96,115.71-49.31,183.52-3.44,69.51,6.54,122.64,24.53,189,18.01,66.46-39.18,166.65-1.2,224.82,37.19,56.98,98.99,110.03,153.85,154.19,53.76,43.27,123.69,80.15,188.7,104.91,65.99,25.13,144.37,6.37,212.17,9.71,69.51,3.44,140.86,10.2,207.21-7.79,66.46-18.01,157.22-9.19,215.4-47.17,56.98-37.19,99.06-113.22,143.22-168.08,43.27-53.76,60.65-128.8,85.41-193.81,25.13-65.99,53.89-134.21,57.24-202.01,3.44-69.51,34.19-154.8,16.21-221.15-18.01-66.46-93.44-120.8-131.42-178.98-37.19-56.98-49.34-156.18-104.19-200.34-53.76-43.27-156.25-26.81-221.27-51.57-65.99-25.13-137.36,15.25-205.16,11.91-69.51-3.44-143.39-74.87-209.74-56.88-66.46,18.01-126.25,67.92-184.43,105.9Z"/>
      <path class="cls-1" d="M457.01,275.31c-57.87,37.81-86.97,105.54-131.88,161.37-44.07,54.8-45.53,119.61-70.63,185.56-25.5,67.04-50.25,117.6-53.63,186.58-3.46,70.63,7.66,125.7,25.97,193.18,18.32,67.53-37.18,168.88,1.47,228.04,37.81,57.87,104.46,107.31,160.29,152.22,54.8,44.07,122.43,86.07,188.38,111.17,67.04,25.5,147.01,3.24,215.99,6.62,70.63,3.46,143.2,13.66,210.69-4.65,67.53-18.32,156.68-14.5,215.84-53.15,57.87-37.81,102.76-111.24,147.67-167.07,44.07-54.8,59.91-131.43,85.01-197.38,25.5-67.04,55.19-135.53,58.57-204.51,3.46-70.63,36.14-157.05,17.83-224.54-18.32-67.53-92.67-124.02-131.33-183.17-37.81-57.87-53.58-155.44-109.41-200.35-54.8-44.07-156.17-32.27-222.12-57.37-67.04-25.5-140.66,18.37-209.63,14.99-70.63-3.46-145.07-73.5-212.55-55.19-67.53,18.32-127.37,68.99-186.53,107.65Z"/>
      <path class="cls-1" d="M453.35,268.49c-58.77,38.43-90.23,104.56-135.89,161.36-44.88,55.83-46.48,121.8-71.9,188.68-25.88,68.1-54.55,119.49-57.96,189.64-3.49,71.75,8.78,128.75,27.42,197.37,18.63,68.6-35.18,171.12,4.15,231.25,38.43,58.77,109.94,104.59,166.74,150.25,55.83,44.88,121.18,92,188.06,117.42,68.1,25.88,149.66.12,219.82,3.53,71.75,3.49,145.54,17.13,214.16-1.51,68.6-18.63,156.14-19.81,216.28-59.14,58.77-38.43,106.46-109.26,152.12-166.06,44.88-55.83,59.17-134.06,84.6-200.95,25.88-68.1,56.49-136.86,59.9-207.01,3.49-71.75,38.09-159.31,19.45-227.92-18.63-68.6-91.91-127.23-131.24-187.37-38.43-58.77-57.83-154.7-114.63-200.36-55.83-44.88-156.1-37.74-222.98-63.17-68.1-25.88-143.95,21.48-214.1,18.07-71.75-3.49-146.75-72.13-215.36-53.49-68.6,18.63-128.49,70.06-188.63,109.39Z"/>
      <path class="cls-1" d="M449.69,261.67c-59.66,39.04-93.49,103.58-139.9,161.36-45.68,56.87-47.43,123.98-73.18,191.8-26.26,69.15-58.84,121.37-62.28,192.7-3.52,72.88,9.9,131.8,28.86,201.55,18.95,69.67-33.18,173.35,6.82,234.47,39.04,59.66,115.41,101.87,173.18,148.28,56.87,45.68,119.92,97.92,187.74,123.68,69.15,26.26,152.31-3,223.64.44,72.88,3.52,147.89,20.59,217.63,1.62,69.67-18.95,155.6-25.12,216.72-65.12,59.66-39.04,110.16-107.27,156.56-165.05,45.68-56.87,58.44-136.7,84.19-204.52,26.26-69.15,57.8-138.18,61.23-209.51,3.52-72.88,40.04-161.56,21.07-231.31-18.95-69.67-91.14-130.44-131.15-191.56-39.04-59.66-62.08-153.96-119.85-200.36-56.87-45.68-156.02-43.21-223.84-68.96-69.15-26.26-147.24,24.59-218.57,21.15-72.88-3.52-148.43-70.76-218.18-51.79-69.67,18.95-129.61,71.13-190.73,111.14Z"/>
      <path class="cls-1" d="M446.04,254.86c-60.55,39.66-96.75,102.61-143.9,161.35-46.49,57.91-48.37,126.17-74.46,194.92-26.63,70.21-63.13,123.26-66.6,195.76-3.54,74,11.01,134.86,30.31,205.73,19.26,70.74-31.18,175.58,9.5,237.68,39.66,60.55,120.89,99.15,179.63,146.31,57.91,46.49,118.67,103.85,187.42,129.93,70.21,26.63,154.96-6.12,227.47-2.66,74,3.54,150.23,24.05,221.11,4.76,70.74-19.26,155.06-30.42,217.16-71.1,60.55-39.66,113.86-105.29,161.01-164.03,46.49-57.91,57.7-139.33,83.78-208.08,26.63-70.21,59.1-139.51,62.57-212.01,3.54-74,41.98-163.82,22.69-234.69-19.26-70.74-90.38-133.65-131.06-195.76-39.66-60.55-66.33-153.22-125.07-200.37-57.91-46.49-155.94-48.68-224.69-74.76-70.21-26.63-150.54,27.7-223.04,24.23-74-3.54-150.11-69.39-220.99-50.09-70.74,19.26-130.73,72.2-192.83,112.88Z"/>
      <path class="cls-1" d="M442.38,248.04c-61.45,40.28-100.01,101.63-147.91,161.34-47.29,58.95-49.32,128.35-75.74,198.04-27.01,71.27-67.43,125.15-70.92,198.83-3.57,75.12,12.13,137.91,31.75,209.91,19.57,71.81-29.19,177.81,12.17,240.9,40.28,61.45,126.36,96.43,186.07,144.34,58.95,47.29,117.41,109.77,187.1,136.18,71.27,27.01,157.61-9.25,231.29-5.75,75.12,3.57,152.58,27.52,224.58,7.9,71.81-19.57,154.51-35.73,217.6-77.09,61.45-40.28,117.56-103.31,165.46-163.02,47.29-58.95,56.96-141.96,83.38-211.65,27.01-71.27,60.4-140.83,63.9-214.51,3.57-75.12,43.93-166.08,24.31-238.08-19.57-71.81-89.61-136.87-130.97-199.95-40.28-61.45-70.58-152.47-130.29-200.38-58.95-47.29-155.86-54.14-225.55-80.56-71.27-27.01-153.83,30.81-227.51,27.32-75.12-3.57-151.8-68.01-223.8-48.39-71.81,19.57-131.84,73.27-194.93,114.62Z"/>
      <path class="cls-1" d="M438.72,241.22c-62.34,40.9-103.27,100.65-151.92,161.34-48.1,59.99-50.27,130.54-77.01,201.16-27.38,72.32-71.72,127.04-75.25,201.89-3.6,76.24,13.25,140.97,33.2,214.1,19.88,72.88-27.19,180.05,14.84,244.11,40.9,62.34,131.83,93.71,192.52,142.36,59.99,48.1,116.16,115.7,186.78,142.44,72.32,27.38,160.26-12.37,235.12-8.84,76.24,3.6,154.92,30.98,228.05,11.03,72.88-19.88,153.97-41.04,218.04-83.07,62.34-40.9,121.25-101.33,169.91-162.01,48.1-59.99,56.23-144.59,82.97-215.22,27.38-72.32,61.7-142.16,65.23-217.01,3.6-76.24,45.88-168.33,25.93-241.46-19.88-72.88-88.85-140.08-130.88-204.14-40.9-62.34-74.83-151.73-135.51-200.39-59.99-48.1-155.78-59.61-226.4-86.35-72.32-27.38-157.13,33.93-231.98,30.4-76.24-3.6-153.48-66.64-226.61-46.7-72.88,19.88-132.96,74.34-197.03,116.37Z"/>
      <path class="cls-1" d="M435.06,234.4c-63.24,41.51-106.53,99.67-155.93,161.33-48.9,61.03-51.22,132.72-78.29,204.28-27.76,73.38-76.01,128.92-79.57,204.95-3.62,77.37,14.37,144.02,34.64,218.28,20.19,73.95-25.19,182.28,17.52,247.32,41.51,63.24,137.31,90.99,198.96,140.39,61.03,48.9,114.9,121.62,186.46,148.69,73.38,27.76,162.91-15.49,238.94-11.93,77.37,3.62,157.27,34.45,231.52,14.17,73.95-20.19,153.43-46.35,218.48-89.05,63.24-41.51,124.95-99.35,174.36-161,48.9-61.03,55.49-147.23,82.56-218.78,27.76-73.38,63.01-143.48,66.56-219.51,3.62-77.37,47.83-170.59,27.55-244.85-20.19-73.95-88.08-143.29-130.78-208.34-41.51-63.24-79.07-150.99-140.73-200.39-61.03-48.9-155.7-65.08-227.26-92.15-73.38-27.76-160.42,37.04-236.45,33.48-77.37-3.62-155.16-65.27-229.42-45-73.95,20.19-134.08,75.41-199.13,118.11Z"/>
      <path class="cls-1" d="M431.4,227.58c-64.13,42.13-109.79,98.7-159.94,161.32-49.71,62.07-52.17,134.91-79.57,207.4-28.13,74.43-80.31,130.81-83.89,208.01-3.65,78.49,15.49,147.07,36.09,222.46,20.5,75.02-23.19,184.51,20.19,250.54,42.13,64.13,142.78,88.27,205.41,138.42,62.07,49.71,113.65,127.55,186.14,154.95,74.43,28.13,165.56-18.61,242.76-15.03,78.49,3.65,159.61,37.91,235,17.31,75.02-20.5,152.89-51.66,218.92-95.03,64.13-42.13,128.65-97.36,178.81-159.99,49.71-62.07,54.75-149.86,82.15-222.35,28.13-74.43,64.31-144.81,67.9-222.01,3.65-78.49,49.78-172.85,29.17-248.23-20.5-75.02-87.31-146.5-130.69-212.53-42.13-64.13-83.32-150.25-145.95-200.4-62.07-49.71-155.63-70.54-228.12-97.95-74.43-28.13-163.71,40.15-240.92,36.56-78.49-3.65-156.84-63.9-232.23-43.3-75.02,20.5-135.2,76.48-201.23,119.85Z"/>
      <path class="cls-1" d="M427.74,220.76c-65.03,42.75-113.05,97.72-163.95,161.31-50.51,63.11-53.11,137.09-80.85,210.52-28.51,75.49-84.6,132.7-88.22,211.07-3.68,79.61,16.61,150.13,37.53,226.64,20.81,76.09-21.19,186.74,22.86,253.75,42.75,65.03,148.26,85.55,211.85,136.45,63.11,50.51,112.39,133.47,185.82,161.2,75.49,28.51,168.21-21.74,246.59-18.12,79.61,3.68,161.95,41.37,238.47,20.44,76.09-20.81,152.35-56.96,219.36-101.02,65.03-42.75,132.35-95.38,183.25-158.98,50.51-63.11,54.01-152.49,81.75-225.92,28.51-75.49,65.61-146.13,69.23-224.51,3.68-79.61,51.72-175.1,30.8-251.62-20.81-76.09-86.55-149.72-130.6-216.73-42.75-65.03-87.57-149.51-151.17-200.41-63.11-50.51-155.55-76.01-228.97-103.74-75.49-28.51-167.01,43.26-245.39,39.64-79.61-3.68-158.52-62.53-235.04-41.6-76.09,20.81-136.32,77.54-203.33,121.6Z"/>
      <path class="cls-1" d="M424.09,213.94c-65.92,43.36-116.31,96.74-167.96,161.31-51.32,64.15-54.06,139.28-82.12,213.64-28.88,76.54-88.89,134.58-92.54,214.14-3.71,80.73,17.72,153.18,38.98,230.83,21.12,77.16-19.19,188.98,25.54,256.97,43.36,65.92,153.73,82.83,218.3,134.48,64.15,51.32,111.14,139.4,185.5,167.46,76.54,28.88,170.86-24.86,250.41-21.21,80.73,3.71,164.3,44.84,241.94,23.58,77.16-21.12,151.81-62.27,219.8-107,65.92-43.36,136.05-93.4,187.7-157.97,51.32-64.15,53.28-155.12,81.34-229.48,28.88-76.54,66.91-147.45,70.56-227.01,3.71-80.73,53.67-177.36,32.42-255.01-21.12-77.16-85.78-152.93-130.51-220.92-43.36-65.92-91.82-148.77-156.39-200.42-64.15-51.32-155.47-81.48-229.83-109.54-76.54-28.88-170.3,46.37-249.85,42.73-80.73-3.71-160.2-61.16-237.85-39.9-77.16,21.12-137.44,78.61-205.43,123.34Z"/>
      <path class="cls-1" d="M420.43,207.12c-66.81,43.98-119.57,95.76-171.97,161.3-52.12,65.19-55.01,141.46-83.4,216.76-29.26,77.6-93.19,136.47-96.86,217.2-3.73,81.86,18.84,156.23,40.42,235.01,21.43,78.23-17.2,191.21,28.21,260.18,43.98,66.81,159.2,80.11,224.74,132.51,65.19,52.12,109.88,145.32,185.18,173.71,77.6,29.26,173.51-27.98,254.24-24.3,81.86,3.73,166.64,48.3,245.42,26.72,78.23-21.43,151.26-67.58,220.24-112.98,66.81-43.98,139.75-91.42,192.15-156.96,52.12-65.19,52.54-157.76,80.93-233.05,29.26-77.6,68.21-148.78,71.89-229.51,3.73-81.86,55.62-179.62,34.04-258.39-21.43-78.23-85.02-156.14-130.42-225.12-43.98-66.81-96.07-148.03-161.6-200.43-65.19-52.12-155.39-86.95-230.69-115.34-77.6-29.26-173.6,49.49-254.32,45.81-81.86-3.73-161.89-59.79-240.66-38.2-78.23,21.43-138.56,79.68-207.53,125.09Z"/>
      <path class="cls-1" d="M416.77,200.3c-67.71,44.6-122.83,94.78-175.98,161.29-52.93,66.23-55.96,143.65-84.68,219.88-29.63,78.66-97.48,138.36-101.19,220.26-3.76,82.98,19.96,159.29,41.87,239.19,21.74,79.3-15.2,193.44,30.88,263.4,44.6,67.71,164.68,77.38,231.19,130.53,66.23,52.93,108.63,151.25,184.86,179.97,78.66,29.63,176.16-31.1,258.06-27.4,82.98,3.76,168.99,51.76,248.89,29.86,79.3-21.74,150.72-72.89,220.68-118.97,67.71-44.6,143.45-89.44,196.6-155.94,52.93-66.23,51.8-160.39,80.52-236.62,29.63-78.66,69.52-150.1,73.23-232.01,3.76-82.98,57.57-181.87,35.66-261.78-21.74-79.3-84.25-159.36-130.33-229.31-44.6-67.71-100.32-147.28-166.82-200.43-66.23-52.93-155.31-92.41-231.54-121.13-78.66-29.63-176.89,52.6-258.79,48.89-82.98-3.76-163.57-58.42-243.47-36.51-79.3,21.74-139.67,80.75-209.63,126.83Z"/>
      <path class="cls-1" d="M413.11,193.48c-68.6,45.22-126.08,93.81-179.98,161.29-53.73,67.27-56.91,145.83-85.96,223-30.01,79.71-101.77,140.24-105.51,223.32-3.79,84.1,21.08,162.34,43.31,243.37,22.05,80.37-13.2,195.67,33.56,266.61,45.22,68.6,170.15,74.66,237.63,128.56,67.27,53.73,107.37,157.17,184.54,186.22,79.71,30.01,178.81-34.23,261.89-30.49,84.1,3.79,171.33,55.23,252.36,32.99,80.37-22.05,150.18-78.19,221.12-124.95,68.6-45.22,147.15-87.45,201.05-154.93,53.73-67.27,51.07-163.02,80.12-240.19,30.01-79.71,70.82-151.43,74.56-234.51,3.79-84.1,59.52-184.13,37.28-265.16-22.05-80.37-83.49-162.57-130.24-233.51-45.22-68.6-104.56-146.54-172.04-200.44-67.27-53.73-155.23-97.88-232.4-126.93-79.71-30.01-180.18,55.71-263.26,51.97-84.1-3.79-165.25-57.05-246.28-34.81-80.37,22.05-140.79,81.82-211.73,128.57Z"/>
      <path class="cls-1" d="M409.45,186.66c-69.5,45.83-129.34,92.83-183.99,161.28-54.54,68.31-57.85,148.02-87.23,226.12-30.38,80.77-106.06,142.13-109.83,226.38-3.81,85.22,22.2,165.39,44.76,247.56,22.37,81.44-11.2,197.91,36.23,269.82,45.83,69.5,175.63,71.94,244.08,126.59,68.31,54.54,106.12,163.1,184.22,192.48,80.77,30.38,181.46-37.35,265.71-33.58,85.22,3.81,173.67,58.69,255.84,36.13,81.44-22.37,149.64-83.5,221.56-130.93,69.5-45.83,150.85-85.47,205.49-153.92,54.54-68.31,50.33-165.66,79.71-243.75,30.38-80.77,72.12-152.75,75.89-237,3.81-85.22,61.46-186.38,38.9-268.55-22.37-81.44-82.72-165.78-130.15-237.7-45.83-69.5-108.81-145.8-177.26-200.45-68.31-54.54-155.16-103.35-233.25-132.73-80.77-30.38-183.48,58.82-267.73,55.05-85.22-3.81-166.93-55.67-249.09-33.11-81.44,22.37-141.91,82.89-213.83,130.32Z"/>
      <path class="cls-1" d="M405.79,179.84c-70.39,46.45-132.6,91.85-188,161.27-55.34,69.35-58.8,150.2-88.51,229.24-30.76,81.82-110.36,144.02-114.16,229.45-3.84,86.35,23.31,168.45,46.2,251.74,22.68,82.51-9.2,200.14,38.9,273.04,46.45,70.39,181.1,69.22,250.52,124.62,69.35,55.34,104.87,169.02,183.9,198.73,81.82,30.76,184.11-40.47,269.54-36.67,86.35,3.84,176.02,62.16,259.31,39.27,82.51-22.68,149.1-88.81,222-136.92,70.39-46.45,154.55-83.49,209.94-152.91,55.34-69.35,49.59-168.29,79.3-247.32,30.76-81.82,73.42-154.08,77.22-239.5,3.84-86.35,63.41-188.64,40.52-271.93-22.68-82.51-81.95-168.99-130.06-241.89-46.45-70.39-113.06-145.06-182.48-200.46-69.35-55.34-155.08-108.82-234.11-138.53-81.82-30.76-186.77,61.93-272.2,58.14-86.35-3.84-168.61-54.3-251.91-31.41-82.51,22.68-143.03,83.96-215.93,132.06Z"/>
      <path class="cls-1" d="M348.05,1453.98c70.39,56.15,103.61,174.95,183.58,204.98,82.88,31.13,186.76-43.59,273.36-39.77,87.47,3.87,178.36,65.62,262.78,42.4,83.58-22.99,148.55-94.12,222.44-142.9,71.29-47.07,158.24-81.51,214.39-151.9,56.15-70.39,48.85-170.92,78.89-250.89,31.13-82.88,74.73-155.4,78.56-242,3.87-87.47,65.36-190.9,42.14-275.32-22.99-83.58-81.19-172.21-129.97-246.09-47.07-71.29-117.31-144.32-187.7-200.47-70.39-56.15-155-114.28-234.97-144.32-82.88-31.13-190.07,65.05-276.67,61.22-87.47-3.87-170.3-52.93-254.72-29.71-83.58,22.99-144.15,85.03-218.03,133.81-71.29,47.07-135.86,90.87-192.01,161.27-56.15,70.39-59.75,152.39-89.79,232.36C89.2,649.52,5.69,712.55,1.86,799.15c-3.87,87.47,24.43,171.5,47.65,255.92,22.99,83.58-7.2,202.37,41.58,276.25,47.07,71.29,186.57,66.5,256.96,122.65Z"/>
    </g>
  </g>
</svg>