<?xml version="1.0" encoding="UTF-8"?>
<svg id="Ebene_2" data-name="Ebene 2" xmlns="http://www.w3.org/2000/svg" viewBox="0 0 1557.02 1638.86">
  <defs>
    <style>
      .cls-1 {
        fill: none;
        stroke: #505078;
        stroke-miterlimit: 10;
        stroke-width: 3px;
      }
    </style>
  </defs>
  <g id="key_visual_01" data-name="key visual 01">
    <g>
      <path class="cls-1" d="M826.28,1127.19c-31.07,2.85-64.31-1.7-93.18-8.24-29.93-6.77-57.06-25.35-82.86-40.74-26.06-15.54-83.27-6.05-103.29-28.85-19.82-22.57-16.05-72.44-28.15-100.63-11.68-27.2-17.57-61.64-20.42-92.72-2.85-31.07-4.14-66.2,2.39-95.07,6.77-29.93,9.78-69.17,25.16-94.97,15.54-26.06,61.6-32.6,84.4-52.62,22.57-19.82,29.81-76.84,58.01-88.94,27.2-11.68,74.08,29.86,105.15,27.01,31.07-2.85,55.4,10.6,84.27,17.13,29.93,6.77,75.11-23.91,100.91-8.52,26.06,15.54,48.95,45.08,68.97,67.88,19.82,22.57,12.32,63.63,24.42,91.83,11.68,27.2,4.25,53.78,7.1,84.85,2.85,31.07-8.2,50.61-14.74,79.48-6.77,29.93-12.36,48.17-27.75,73.97-15.54,26.06,6.37,80.07-16.43,100.09-22.57,19.82-45.04,56.59-73.24,68.69-27.2,11.68-69.65-2.47-100.72.38Z"/>
      <path class="cls-1" d="M1038.57,625.64c20.11,23.8,13.45,65.49,25.45,95.03,11.58,28.57,3.39,56.09,5.75,88.29,2.34,32.27-7.66,53.55-15.03,83.4-7.61,30.9-14.64,49.93-31.13,76.41-16.63,26.72,3.86,82.04-20.22,102.37-23.8,20.11-48.28,54.19-77.82,66.19-28.57,11.58-72.08-.42-104.29,1.94-32.27,2.34-65.74-4.78-95.59-12.15-30.9-7.61-59.85-25.72-86.33-42.21-26.72-16.63-82.91-9.5-103.24-33.58-20.11-23.8-17.63-74.19-29.63-103.72-11.58-28.57-15.96-63.98-18.32-96.18-2.34-32.27-3.53-68.45,3.85-98.31,7.61-30.9,10.67-71.9,27.17-98.38,16.63-26.72,63.77-34.05,87.85-54.38,23.8-20.11,33.08-76.27,62.61-88.27,28.57-11.58,76.62,28.92,108.82,26.56,32.27-2.34,56.84,13.91,86.69,21.28,30.9,7.61,77.16-22.23,103.65-5.74,26.72,16.63,49.44,47.38,69.77,71.46Z"/>
      <path class="cls-1" d="M1049.51,623.38c20.39,25.02,14.58,67.35,26.47,98.22,11.49,29.93,2.53,58.4,4.4,91.73,1.84,33.47-7.11,56.49-15.33,87.32-8.46,31.87-16.91,51.69-34.51,78.86-17.72,27.38,1.35,84.01-24.01,104.65-25.02,20.39-51.53,51.79-82.4,63.68-29.93,11.49-74.52,1.64-107.85,3.51-33.47,1.84-67.17-7.86-98-16.07-31.87-8.46-62.64-26.08-89.8-43.68-27.38-17.72-82.55-12.95-103.19-38.31-20.39-25.02-19.21-75.94-31.1-106.81-11.49-29.93-14.35-66.31-16.22-99.64-1.84-33.47-2.91-70.71,5.3-101.54,8.46-31.87,11.57-74.63,29.17-101.8,17.72-27.38,65.95-35.5,91.31-56.13,25.02-20.39,36.34-75.7,67.21-87.59,29.93-11.49,79.17,27.98,112.5,26.11,33.47-1.84,58.27,17.21,89.11,25.42,31.87,8.46,79.22-20.56,106.38-2.95,27.38,17.72,49.93,49.67,70.56,75.03Z"/>
      <path class="cls-1" d="M1060.44,621.12c20.67,26.24,15.71,69.21,27.5,101.42,11.39,31.29,1.67,60.71,3.05,95.16,1.33,34.66-6.57,59.43-15.62,91.24-9.3,32.85-19.19,53.46-37.9,81.3-18.81,28.05-1.16,85.99-27.8,106.92-26.24,20.67-54.77,49.39-86.98,61.18-31.29,11.39-76.96,3.7-111.41,5.08-34.66,1.33-68.6-10.93-100.42-19.98-32.85-9.3-65.43-26.45-93.27-45.16-28.05-18.81-82.19-16.4-103.13-43.04-20.67-26.24-20.78-77.69-32.57-109.9-11.39-31.29-12.74-68.65-14.12-103.11-1.33-34.66-2.3-72.96,6.75-104.78,9.3-32.85,12.46-77.37,31.17-105.21,18.81-28.05,68.12-36.95,94.76-57.89,26.24-20.67,39.61-75.13,71.82-86.92,31.29-11.39,81.72,27.04,116.17,25.66,34.66-1.33,59.71,20.52,91.53,29.57,32.85,9.3,81.27-18.88,109.11-.17,28.05,18.81,50.41,51.96,71.35,78.61Z"/>
      <path class="cls-1" d="M1071.38,618.86c20.96,27.46,16.84,71.07,28.53,104.62,11.3,32.65.81,63.01,1.7,98.6.83,35.86-6.02,62.37-15.92,95.17-10.15,33.82-21.46,55.22-41.28,83.75-19.9,28.71-3.67,87.96-31.59,109.2-27.46,20.96-58.01,46.99-91.56,58.67-32.65,11.3-79.39,5.76-114.98,6.65-35.86.83-70.03-14.01-102.83-23.9-33.82-10.15-68.22-26.81-96.74-46.63-28.71-19.9-81.83-19.85-103.08-47.77-20.96-27.46-22.36-79.44-34.05-112.99-11.3-32.65-11.13-70.98-12.02-106.57-.83-35.86-1.69-75.21,8.2-108.01,10.15-33.82,13.36-80.1,33.17-108.62,19.9-28.71,70.3-38.4,98.22-59.64,27.46-20.96,42.87-74.55,76.42-86.24,32.65-11.3,84.26,26.09,119.85,25.21,35.86-.83,61.15,23.83,93.95,33.72,33.82,10.15,83.32-17.21,111.85,2.61,28.71,19.9,50.9,54.26,72.14,82.18Z"/>
      <path class="cls-1" d="M1082.31,616.6c21.24,28.68,17.97,72.93,29.56,107.82,11.21,34.01-.05,65.32.35,102.04.32,37.05-5.48,65.31-16.21,99.09-10.99,34.79-23.74,56.99-44.67,86.19-20.99,29.37-6.18,89.93-35.38,111.48-28.68,21.24-61.25,44.59-96.13,56.17-34.01,11.21-81.83,7.82-118.54,8.22-37.05.32-71.45-17.08-105.24-27.82-34.79-10.99-71.01-27.18-100.22-48.1-29.37-20.99-81.47-23.29-103.02-52.5-21.24-28.68-23.94-81.19-35.52-116.08-11.21-34.01-9.52-73.32-9.92-110.03-.32-37.05-1.07-77.47,9.66-111.25,10.99-34.79,14.25-82.83,35.18-112.04,20.99-29.37,72.47-39.85,101.68-61.4,28.68-21.24,46.14-73.98,81.02-85.56,34.01-11.21,86.81,25.15,123.52,24.75,37.05-.32,62.59,27.13,96.37,37.86,34.79,10.99,85.37-15.53,114.58,5.4,29.37,20.99,51.39,56.55,72.94,85.76Z"/>
      <path class="cls-1" d="M1093.25,614.34c21.52,29.91,19.11,74.79,30.58,111.02,11.11,35.38-.91,67.63-1,105.47-.18,38.25-4.93,68.25-16.5,103.01-11.83,35.76-26.02,58.75-48.05,88.64-22.08,30.03-8.69,91.9-39.17,113.76-29.91,21.52-64.49,42.19-100.71,53.67-35.38,11.11-84.27,9.88-122.11,9.79-38.25-.18-72.88-20.16-107.65-31.73-35.76-11.83-73.8-27.54-103.69-49.58-30.03-22.08-81.11-26.74-102.97-57.23-21.52-29.91-25.51-82.94-36.99-119.17-11.11-35.38-7.92-75.65-7.82-113.49.18-38.25-.46-79.72,11.11-114.49,11.83-35.76,15.15-85.57,37.18-115.45,22.08-30.03,74.65-41.29,105.13-63.15,29.91-21.52,49.4-73.41,85.63-84.89,35.38-11.11,89.36,24.21,127.2,24.3,38.25.18,64.03,30.44,98.79,42.01,35.76,11.83,87.43-13.85,117.31,8.18,30.03,22.08,51.87,58.85,73.73,89.33Z"/>
      <path class="cls-1" d="M1104.19,612.08c21.8,31.13,20.24,76.65,31.61,114.22,11.02,36.74-1.77,69.94-2.35,108.91-.69,39.44-4.39,71.19-16.8,106.93-12.68,36.74-28.29,60.51-51.44,91.08-23.17,30.69-11.2,93.87-42.96,116.04-31.13,21.8-67.73,39.79-105.29,51.16-36.74,11.02-86.71,11.94-125.67,11.35-39.44-.69-74.31-23.24-110.06-35.65-36.74-12.68-76.59-27.9-107.16-51.05-30.69-23.17-80.75-30.19-102.91-61.96-21.8-31.13-27.09-84.7-38.47-122.26-11.02-36.74-6.31-77.99-5.72-116.96.69-39.44.15-81.98,12.56-117.72,12.68-36.74,16.04-88.3,39.18-118.87,23.17-30.69,76.82-42.74,108.59-64.9,31.13-21.8,52.66-72.84,90.23-84.21,36.74-11.02,91.9,23.27,130.87,23.85,39.44.69,65.47,33.75,101.21,46.16,36.74,12.68,89.48-12.18,120.05,10.97,30.69,23.17,52.36,61.14,74.52,92.91Z"/>
      <path class="cls-1" d="M1115.12,609.82c22.09,32.35,21.37,78.51,32.64,117.42,10.93,38.1-2.62,72.25-3.7,112.35-1.2,40.64-3.84,74.12-17.09,110.85-13.52,37.71-30.57,62.28-54.82,93.53-24.26,31.35-13.71,95.85-46.75,118.31-32.35,22.09-70.97,37.39-109.87,48.66-38.1,10.93-89.14,14-129.24,12.92-40.64-1.2-75.74-26.31-112.47-39.56-37.71-13.52-79.38-28.27-110.63-52.52-31.35-24.26-80.39-33.64-102.86-66.69-22.09-32.35-28.67-86.45-39.94-125.35-10.93-38.1-4.7-80.32-3.62-120.42,1.2-40.64.77-84.23,14.02-120.96,13.52-37.71,16.93-91.03,41.19-122.28,24.26-31.35,79-44.19,112.04-66.66,32.35-22.09,55.93-72.27,94.83-83.54,38.1-10.93,94.45,22.33,134.55,23.4,40.64,1.2,66.91,37.05,103.63,50.3,37.71,13.52,91.53-10.5,122.78,13.75,31.35,24.26,52.85,63.44,75.31,96.48Z"/>
      <path class="cls-1" d="M1126.06,607.56c22.37,33.57,22.5,80.37,33.67,120.62,10.83,39.46-3.48,74.56-5.05,115.78-1.7,41.84-3.3,77.06-17.39,114.77-14.37,38.68-32.84,64.04-58.2,95.97-25.35,32.02-16.22,97.82-50.54,120.59-33.57,22.37-74.21,34.99-114.45,46.15-39.46,10.83-91.58,16.05-132.8,14.49-41.84-1.7-77.17-29.39-114.88-43.48-38.68-14.37-82.17-28.63-114.1-54-32.02-25.35-80.03-37.09-102.81-71.42-22.37-33.57-30.25-88.2-41.41-128.44-10.83-39.46-3.09-82.66-1.52-123.88,1.7-41.84,1.38-86.49,15.47-124.19,14.37-38.68,17.83-93.76,43.19-125.69,25.35-32.02,81.17-45.64,115.5-68.41,33.57-22.37,59.19-71.69,99.44-82.86,39.46-10.83,97,21.39,138.22,22.95,41.84,1.7,68.35,40.36,106.05,54.45,38.68,14.37,93.59-8.83,125.51,16.53,32.02,25.35,53.33,65.73,76.11,100.06Z"/>
      <path class="cls-1" d="M1136.99,605.3c22.65,34.79,23.63,82.23,34.7,123.82,10.74,40.83-4.34,76.87-6.4,119.22-2.21,43.03-2.75,80-17.68,118.69-15.21,39.66-35.12,65.81-61.59,98.41-26.44,32.68-18.73,99.79-54.33,122.87-34.79,22.65-77.45,32.59-119.03,43.65-40.83,10.74-94.02,18.11-136.37,16.06-43.03-2.21-78.6-32.47-117.29-47.4-39.66-15.21-84.96-29-117.57-55.47-32.68-26.44-79.67-40.54-102.75-76.14-22.65-34.79-31.82-89.95-42.89-131.53-10.74-40.83-1.48-84.99.57-127.34,2.21-43.03,1.99-88.74,16.92-127.43,15.21-39.66,18.72-96.5,45.19-129.11,26.44-32.68,83.35-47.09,118.96-70.17,34.79-22.65,62.46-71.12,104.04-82.19,40.83-10.74,99.54,20.44,141.89,22.5,43.03,2.21,69.79,43.67,108.48,58.6,39.66,15.21,95.64-7.15,128.25,19.32,32.68,26.44,53.82,68.03,76.9,103.63Z"/>
      <path class="cls-1" d="M1147.93,603.04c22.94,36.02,24.76,84.1,35.72,127.01,10.65,42.19-5.2,79.18-7.75,122.66-2.71,44.23-2.21,82.94-17.98,122.61-16.05,40.63-37.39,67.57-64.97,100.86-27.53,33.34-21.24,101.76-58.13,125.15-36.02,22.94-80.69,30.19-123.61,41.15-42.19,10.65-96.45,20.17-139.93,17.63-44.23-2.71-80.03-35.54-119.7-51.31-40.63-16.05-87.75-29.36-121.04-56.94-33.34-27.53-79.31-43.99-102.7-80.87-22.94-36.02-33.4-91.7-44.36-134.62-10.65-42.19.13-87.33,2.67-130.81,2.71-44.23,2.61-91,18.38-130.67,16.05-40.63,19.62-99.23,47.2-132.52,27.53-33.34,85.52-48.54,122.41-71.92,36.02-22.94,65.72-70.55,108.64-81.51,42.19-10.65,102.09,19.5,145.57,22.05,44.23,2.71,71.23,46.98,110.9,62.74,40.63,16.05,97.69-5.47,130.98,22.1,33.34,27.53,54.3,70.32,77.69,107.21Z"/>
      <path class="cls-1" d="M1158.86,600.78c23.22,37.24,25.9,85.96,36.75,130.21,10.55,43.55-6.06,81.49-9.1,126.1-3.22,45.42-1.66,85.88-18.27,126.53-16.9,41.6-39.67,69.33-68.36,103.3-28.62,34-23.75,103.73-61.92,127.43-37.24,23.22-83.93,27.79-128.19,38.64-43.55,10.55-98.89,22.23-143.5,19.2-45.42-3.22-81.46-38.62-122.11-55.23-41.6-16.9-90.54-29.73-124.51-58.41-34-28.62-78.95-47.43-102.64-85.6-23.22-37.24-34.98-93.45-45.83-137.71-10.55-43.55,1.74-89.66,4.77-134.27,3.22-45.42,3.22-93.25,19.83-133.9,16.9-41.6,20.51-101.96,49.2-135.93,28.62-34,87.7-49.98,125.87-73.68,37.24-23.22,68.99-69.98,113.25-80.83,43.55-10.55,104.64,18.56,149.24,21.59,45.42,3.22,72.67,50.28,113.32,66.89,41.6,16.9,99.74-3.8,133.71,24.89,34,28.62,54.79,72.62,78.48,110.78Z"/>
      <path class="cls-1" d="M1169.8,598.52c23.5,38.46,27.03,87.82,37.78,133.41,10.46,44.91-6.92,83.8-10.45,129.53-3.73,46.62-1.12,88.82-18.57,130.46-17.74,42.58-41.95,71.1-71.74,105.75-29.71,34.66-26.26,105.71-65.71,129.7-38.46,23.5-87.17,25.39-132.77,36.14-44.91,10.46-101.33,24.29-147.06,20.76-46.62-3.73-82.89-41.7-124.52-59.14-42.58-17.74-93.33-30.09-127.98-59.89-34.66-29.71-78.59-50.88-102.59-90.33-23.5-38.46-36.55-95.2-47.31-140.8-10.46-44.91,3.35-92,6.87-137.73,3.73-46.62,3.83-95.51,21.28-137.14,17.74-42.58,21.41-104.7,51.2-139.35,29.71-34.66,89.87-51.43,129.32-75.43,38.46-23.5,72.25-69.41,117.85-80.16,44.91-10.46,107.18,17.62,152.92,21.14,46.62,3.73,74.1,53.59,115.74,71.04,42.58,17.74,101.8-2.12,136.45,27.67,34.66,29.71,55.28,74.91,79.28,114.36Z"/>
      <path class="cls-1" d="M1180.74,596.26c23.79,39.68,28.16,89.68,38.81,136.61,10.36,46.27-7.78,86.11-11.8,132.97-4.23,47.81-.57,91.76-18.86,134.38-18.58,43.55-44.22,72.86-75.13,108.19-30.8,35.32-28.77,107.68-69.5,131.98-39.68,23.79-90.41,22.99-137.35,33.63-46.27,10.36-103.76,26.35-150.63,22.33-47.81-4.23-84.32-44.77-126.93-63.06-43.55-18.58-96.12-30.46-131.45-61.36-35.32-30.8-78.23-54.33-102.54-95.06-23.79-39.68-38.13-96.95-48.78-143.89-10.36-46.27,4.96-94.33,8.97-141.19,4.23-47.81,4.45-97.76,22.74-140.37,18.58-43.55,22.3-107.43,53.21-142.76,30.8-35.32,92.05-52.88,132.78-77.19,39.68-23.79,75.52-68.83,122.45-79.48,46.27-10.36,109.73,16.68,156.59,20.69,47.81,4.23,75.54,56.9,118.16,75.18,43.55,18.58,103.85-.45,139.18,30.46,35.32,30.8,55.76,77.2,80.07,117.94Z"/>
      <path class="cls-1" d="M1191.67,594c24.07,40.91,29.29,91.54,39.83,139.81,10.27,47.64-8.64,88.42-13.15,136.41-4.74,49.01-.03,94.7-19.16,138.3-19.43,44.52-46.5,74.62-78.51,110.64-31.89,35.98-31.28,109.65-73.29,134.26-40.91,24.07-93.65,20.58-141.93,31.13-47.64,10.27-106.2,28.41-154.19,23.9-49.01-4.74-85.75-47.85-129.34-66.97-44.52-19.43-98.91-30.82-134.92-62.83-35.98-31.89-77.87-57.78-102.48-99.79-24.07-40.91-39.71-98.7-50.25-146.98-10.27-47.64,6.56-96.67,11.07-144.66,4.74-49.01,5.06-100.01,24.19-143.61,19.43-44.52,23.2-110.16,55.21-146.18,31.89-35.98,94.22-54.33,136.23-78.94,40.91-24.07,78.78-68.26,127.06-78.81,47.64-10.27,112.28,15.73,160.27,20.24,49.01,4.74,76.98,60.2,120.58,79.33,44.52,19.43,105.9,1.23,141.91,33.24,35.98,31.89,56.25,79.5,80.86,121.51Z"/>
      <path class="cls-1" d="M1202.61,591.74c24.35,42.13,30.42,93.4,40.86,143.01,10.18,49-9.5,90.73-14.5,139.84-5.24,50.21.52,97.64-19.45,142.22-20.27,45.5-48.77,76.39-81.89,113.08-32.98,36.65-33.79,111.62-77.08,136.54-42.13,24.35-96.89,18.18-146.51,28.62-49,10.18-108.64,30.47-157.76,25.47-50.21-5.24-87.18-50.92-131.75-70.89-45.5-20.27-101.7-31.19-138.39-64.31-36.65-32.98-77.51-61.23-102.43-104.52-24.35-42.13-41.29-100.45-51.73-150.07-10.18-49,8.17-99,13.17-148.12,5.24-50.21,5.68-102.27,25.64-146.85,20.27-45.5,24.09-112.9,57.21-149.59,32.98-36.65,96.4-55.78,139.69-80.69,42.13-24.35,82.05-67.69,131.66-78.13,49-10.18,114.82,14.79,163.94,19.79,50.21,5.24,78.42,63.51,123,83.48,45.5,20.27,107.95,2.9,144.65,36.02,36.65,32.98,56.74,81.79,81.65,125.09Z"/>
      <path class="cls-1" d="M1213.54,589.48c24.64,43.35,31.55,95.26,41.89,146.21,10.08,50.36-10.36,93.04-15.85,143.28-5.75,51.4,1.06,100.58-19.74,146.14-21.12,46.47-51.05,78.15-85.28,115.52-34.07,37.31-36.29,113.59-80.87,138.82-43.35,24.64-100.13,15.78-151.08,26.12-50.36,10.08-111.08,32.52-161.32,27.04-51.4-5.75-88.6-54-134.16-74.81-46.47-21.12-104.49-31.55-141.86-65.78-37.31-34.07-77.15-64.68-102.37-109.25-24.64-43.35-42.86-102.21-53.2-153.16-10.08-50.36,9.78-101.34,15.27-151.58,5.75-51.4,6.29-104.52,27.09-150.08,21.12-46.47,24.99-115.63,59.22-153,34.07-37.31,98.57-57.23,143.15-82.45,43.35-24.64,85.31-67.12,136.26-77.45,50.36-10.08,117.37,13.85,167.61,19.34,51.4,5.75,79.86,66.82,125.42,87.62,46.47,21.12,110.01,4.58,147.38,38.81,37.31,34.07,57.22,84.09,82.45,128.66Z"/>
      <path class="cls-1" d="M1224.48,587.22c24.92,44.57,32.69,97.12,42.92,149.41,9.99,51.72-11.22,95.35-17.2,146.72-6.25,52.6,1.61,103.52-20.04,150.06-21.96,47.44-53.33,79.92-88.66,117.97-35.16,37.97-38.8,115.57-84.66,141.09-44.57,24.92-103.37,13.38-155.66,23.62-51.72,9.99-113.51,34.58-164.89,28.61-52.6-6.25-90.03-57.08-136.57-78.72-47.44-21.96-107.28-31.92-145.33-67.25-37.97-35.16-76.79-68.12-102.32-113.98-24.92-44.57-44.44-103.96-54.67-156.24-9.99-51.72,11.39-103.67,17.37-155.04,6.25-52.6,6.9-106.78,28.55-153.32,21.96-47.44,25.88-118.36,61.22-156.42,35.16-37.97,100.75-58.67,146.6-84.2,44.57-24.92,88.58-66.55,140.87-76.78,51.72-9.99,119.92,12.91,171.29,18.89,52.6,6.25,81.3,70.13,127.84,91.77,47.44,21.96,112.06,6.26,150.11,41.59,37.97,35.16,57.71,86.38,83.24,132.24Z"/>
      <path class="cls-1" d="M1235.42,584.96c25.2,45.79,33.82,98.98,43.95,152.6,9.9,53.08-12.08,97.65-18.55,150.15-6.76,53.79,2.15,106.46-20.33,153.98-22.8,48.41-55.6,81.68-92.05,120.41-36.25,38.63-41.31,117.54-88.45,143.37-45.79,25.2-106.62,10.98-160.24,21.11-53.08,9.9-115.95,36.64-168.45,30.17-53.79-6.76-91.46-60.15-138.98-82.64-48.41-22.8-110.07-32.28-148.8-68.73-38.63-36.25-76.43-71.57-102.26-118.71-25.2-45.79-46.02-105.71-56.15-159.33-9.9-53.08,13-106.01,19.47-158.51,6.76-53.79,7.52-109.03,30-156.55,22.8-48.41,26.78-121.1,63.22-159.83,36.25-38.63,102.92-60.12,150.06-85.96,45.79-25.2,91.84-65.97,145.47-76.1,53.08-9.9,122.46,11.97,174.96,18.43,53.79,6.76,82.74,73.43,130.26,95.92,48.41,22.8,114.11,7.93,152.85,44.38,38.63,36.25,58.2,88.68,84.03,135.81Z"/>
      <path class="cls-1" d="M1246.35,582.7c25.49,47.02,34.95,100.84,44.97,155.8,9.8,54.45-12.94,99.96-19.9,153.59-7.27,54.99,2.7,109.4-20.63,157.9-23.65,49.39-57.88,83.44-95.43,122.86-37.34,39.29-43.82,119.51-92.24,145.65-47.02,25.49-109.86,8.58-164.82,18.61-54.45,9.8-118.39,38.7-172.01,31.74-54.99-7.27-92.89-63.23-141.4-86.55-49.39-23.65-112.86-32.65-152.27-70.2-39.29-37.34-76.07-75.02-102.21-123.44-25.49-47.02-47.59-107.46-57.62-162.42-9.8-54.45,14.61-108.34,21.57-161.97,7.27-54.99,8.13-111.29,31.45-159.79,23.65-49.39,27.67-123.83,65.23-163.24,37.34-39.29,105.1-61.57,153.51-87.71,47.02-25.49,95.11-65.4,150.07-75.43,54.45-9.8,125.01,11.03,178.64,17.98,54.99,7.27,84.18,76.74,132.68,100.06,49.39,23.65,116.17,9.61,155.58,47.16,39.29,37.34,58.68,90.97,84.82,139.39Z"/>
      <path class="cls-1" d="M1257.29,580.44c25.77,48.24,36.08,102.7,46,159,9.71,55.81-13.8,102.27-21.25,157.03-7.77,56.18,3.24,112.34-20.92,161.83-24.49,50.36-60.15,85.21-98.82,125.3-38.43,39.95-46.33,121.48-96.03,147.93-48.24,25.77-113.1,6.18-169.4,16.1-55.81,9.71-120.82,40.76-175.58,33.31-56.18-7.77-94.32-66.31-143.81-90.47-50.36-24.49-115.65-33.01-155.74-71.67-39.95-38.43-75.71-78.47-102.16-128.16-25.77-48.24-49.17-109.21-59.09-165.51-9.71-55.81,16.22-110.68,23.67-165.43,7.77-56.18,8.74-113.54,32.91-163.03,24.49-50.36,28.57-126.56,67.23-166.66,38.43-39.95,107.27-63.02,156.97-89.47,48.24-25.77,98.37-64.83,154.68-74.75,55.81-9.71,127.56,10.08,182.31,17.53,56.18,7.77,85.62,80.05,135.1,104.21,50.36,24.49,118.22,11.28,158.31,49.94,39.95,38.43,59.17,93.27,85.62,142.96Z"/>
      <path class="cls-1" d="M1268.22,578.18c26.05,49.46,37.21,104.56,47.03,162.2,9.61,57.17-14.66,104.58-22.6,160.47-8.28,57.38,3.79,115.28-21.22,165.75-25.34,51.33-62.43,86.97-102.2,127.75-39.52,40.62-48.84,123.45-99.82,150.21-49.46,26.05-116.34,3.78-173.98,13.6-57.17,9.61-123.26,42.82-179.14,34.88-57.38-8.28-95.75-69.38-146.22-94.39-51.33-25.34-118.44-33.37-159.21-73.14-40.62-39.52-75.35-81.92-102.1-132.89-26.05-49.46-50.75-110.96-60.57-168.6-9.61-57.17,17.83-113.01,25.77-168.89,8.28-57.38,9.36-115.8,34.36-166.26,25.34-51.33,29.46-129.3,69.23-170.07,39.52-40.62,109.45-64.47,160.43-91.22,49.46-26.05,101.64-64.26,159.28-74.08,57.17-9.61,130.1,9.14,185.99,17.08,57.38,8.28,87.06,83.35,137.52,108.36,51.33,25.34,120.27,12.96,161.05,52.73,40.62,39.52,59.66,95.56,86.41,146.54Z"/>
      <path class="cls-1" d="M1279.16,575.91c26.34,50.68,38.34,106.42,48.06,165.4,9.52,58.53-15.52,106.89-23.95,163.9-8.78,58.58,4.33,118.22-21.51,169.67-26.18,52.31-64.71,88.74-105.58,130.19-40.61,41.28-51.35,125.43-103.61,152.48-50.68,26.34-119.58,1.38-178.56,11.1-58.53,9.52-125.7,44.88-182.71,36.45-58.58-8.78-97.18-72.46-148.63-98.3-52.31-26.18-121.23-33.74-162.68-74.62-41.28-40.61-74.99-85.37-102.05-137.62-26.34-50.68-52.33-112.71-62.04-171.69-9.52-58.53,19.44-115.35,27.86-172.36,8.78-58.58,9.97-118.05,35.81-169.5,26.18-52.31,30.36-132.03,71.24-173.48,40.61-41.28,111.62-65.92,163.88-92.98,50.68-26.34,104.9-63.69,163.88-73.4,58.53-9.52,132.65,8.2,189.66,16.63,58.58,8.78,88.49,86.66,139.94,112.5,52.31,26.18,122.32,14.64,163.78,55.51,41.28,40.61,60.14,97.86,87.2,150.11Z"/>
      <path class="cls-1" d="M1290.09,573.65c26.62,51.9,39.48,108.28,49.08,168.6,9.43,59.89-16.38,109.2-25.3,167.34-9.29,59.77,4.88,121.16-21.81,173.59-27.02,53.28-66.98,90.5-108.97,132.64-41.7,41.94-53.86,127.4-107.4,154.76-51.9,26.62-122.82-1.02-183.14,8.59-59.89,9.43-128.14,46.93-186.27,38.02-59.77-9.29-98.61-75.54-151.04-102.22-53.28-27.02-124.02-34.1-166.15-76.09-41.94-41.7-74.63-88.81-101.99-142.35-26.62-51.9-53.9-114.46-63.51-174.78-9.43-59.89,21.04-117.68,29.96-175.82,9.29-59.77,10.58-120.31,37.27-172.73,27.02-53.28,31.25-134.76,73.24-176.9,41.7-41.94,113.8-67.37,167.34-94.73,51.9-26.62,108.17-63.11,168.49-72.72,59.89-9.43,135.2,7.26,193.33,16.18,59.77,9.29,89.93,89.97,142.36,116.65,53.28,27.02,124.38,16.31,166.51,58.3,41.94,41.7,60.63,100.15,87.99,153.69Z"/>
      <path class="cls-1" d="M1301.03,571.39c26.9,53.13,40.61,110.14,50.11,171.8,9.33,61.26-17.24,111.51-26.65,170.78-9.79,60.97,5.42,124.1-22.1,177.51-27.87,54.25-69.26,92.26-112.35,135.08-42.79,42.6-56.37,129.37-111.19,157.04-53.13,26.9-126.06-3.42-187.72,6.09-61.26,9.33-130.57,48.99-189.84,39.58-60.97-9.79-100.04-78.61-153.45-106.13-54.25-27.87-126.81-34.47-169.62-77.56-42.6-42.79-74.27-92.26-101.94-147.08-26.9-53.13-55.48-116.21-64.99-177.87-9.33-61.26,22.65-120.02,32.06-179.28,9.79-60.97,11.2-122.56,38.72-175.97,27.87-54.25,32.15-137.5,75.24-180.31,42.79-42.6,115.97-68.81,170.79-96.48,53.13-26.9,111.43-62.54,173.09-72.05,61.26-9.33,137.74,6.32,197.01,15.73,60.97,9.79,91.37,93.27,144.78,120.8,54.25,27.87,126.43,17.99,169.25,61.08,42.6,42.79,61.12,102.45,88.79,157.26Z"/>
      <path class="cls-1" d="M1311.97,569.13c27.19,54.35,41.74,112,51.14,175,9.24,62.62-18.1,113.82-28,174.21-10.3,62.16,5.97,127.04-22.4,181.43-28.71,55.23-71.53,94.03-115.74,137.52-43.88,43.26-58.88,131.34-114.98,159.32-54.35,27.19-129.3-5.82-192.3,3.58-62.62,9.24-133.01,51.05-193.4,41.15-62.16-10.3-101.47-81.69-155.86-110.05-55.23-28.71-129.6-34.83-173.09-79.04-43.26-43.88-73.91-95.71-101.88-151.81-27.19-54.35-57.06-117.96-66.46-180.96-9.24-62.62,24.26-122.35,34.16-182.74,10.3-62.16,11.81-124.81,40.17-179.21,28.71-55.23,33.04-140.23,77.24-183.73,43.88-43.26,118.15-70.26,174.25-98.24,54.35-27.19,114.7-61.97,177.69-71.37,62.62-9.24,140.29,5.38,200.68,15.28,62.16,10.3,92.81,96.58,147.2,124.94,55.23,28.71,128.48,19.66,171.98,63.87,43.26,43.88,61.6,104.74,89.58,160.84Z"/>
      <path class="cls-1" d="M1322.9,566.87c27.47,55.57,42.87,113.86,52.17,178.2,9.15,63.98-18.96,116.13-29.35,177.65-10.81,63.36,6.51,129.98-22.69,185.35-29.55,56.2-73.81,95.79-119.12,139.97-44.97,43.92-61.39,133.31-118.77,161.6-55.57,27.47-132.54-8.22-196.88,1.08-63.98,9.15-135.45,53.11-196.97,42.72-63.36-10.81-102.9-84.76-158.27-113.97-56.2-29.55-132.39-35.2-176.56-80.51-43.92-44.97-73.55-99.16-101.83-156.54-27.47-55.57-58.63-119.71-67.93-184.05-9.15-63.98,25.87-124.68,36.26-186.21,10.81-63.36,12.42-127.07,41.62-182.44,29.55-56.2,33.94-142.96,79.25-187.14,44.97-43.92,120.32-71.71,177.71-99.99,55.57-27.47,117.96-61.4,182.3-70.7,63.98-9.15,142.84,4.43,204.36,14.82,63.36,10.81,94.25,99.89,149.62,129.09,56.2,29.55,130.53,21.34,174.71,66.65,43.92,44.97,62.09,107.03,90.37,164.41Z"/>
      <path class="cls-1" d="M1333.84,564.61c27.75,56.79,44,115.72,53.2,181.39,9.05,65.34-19.82,118.44-30.7,181.09-11.31,64.55,7.06,132.92-22.98,189.27-30.4,57.17-76.09,97.55-122.5,142.41-46.06,44.59-63.9,135.29-122.56,163.87-56.79,27.75-135.78-10.62-201.45-1.42-65.34,9.05-137.88,55.17-200.53,44.29-64.55-11.31-104.33-87.84-160.68-117.88-57.17-30.4-135.18-35.56-180.03-81.98-44.59-46.06-73.19-102.61-101.78-161.27-27.75-56.79-60.21-121.47-69.41-187.14-9.05-65.34,27.48-127.02,38.36-189.67,11.31-64.55,13.04-129.32,43.08-185.68,30.4-57.17,34.83-145.69,81.25-190.55,46.06-44.59,122.5-73.16,181.16-101.75,56.79-27.75,121.23-60.83,186.9-70.02,65.34-9.05,145.38,3.49,208.03,14.37,64.55,11.31,95.69,103.2,152.04,133.24,57.17,30.4,132.59,23.01,177.45,69.43,44.59,46.06,62.57,109.33,91.16,167.99Z"/>
      <path class="cls-1" d="M1344.77,562.35c28.04,58.01,45.13,117.58,54.22,184.59,8.96,66.71-20.67,120.75-32.05,184.52-11.82,65.75,7.6,135.86-23.28,193.19-31.24,58.15-78.36,99.32-125.89,144.86-47.15,45.25-66.41,137.26-126.35,166.15-58.01,28.04-139.02-13.02-206.03-3.93-66.71,8.96-140.32,57.23-204.1,45.86-65.75-11.82-105.75-90.92-163.09-121.8-58.15-31.24-137.97-35.93-183.5-83.46-45.25-47.15-72.83-106.06-101.72-166-28.04-58.01-61.79-123.22-70.88-190.23-8.96-66.71,29.09-129.35,40.46-193.13,11.82-65.75,13.65-131.58,44.53-188.91,31.24-58.15,35.73-148.43,83.25-193.97,47.15-45.25,124.67-74.61,184.62-103.5,58.01-28.04,124.49-60.25,191.5-69.34,66.71-8.96,147.93,2.55,211.71,13.92,65.75,11.82,97.13,106.5,154.47,137.38,58.15,31.24,134.64,24.69,180.18,72.22,45.25,47.15,63.06,111.62,91.96,171.57Z"/>
      <path class="cls-1" d="M1355.71,560.09c28.32,59.24,46.26,119.44,55.25,187.79,8.87,68.07-21.53,123.06-33.4,187.96-12.32,66.95,8.15,138.8-23.57,197.12-32.09,59.12-80.64,101.08-129.27,147.3-48.24,45.91-68.92,139.23-130.14,168.43-59.24,28.32-142.26-15.42-210.61-6.43-68.07,8.87-142.76,59.29-207.66,47.43-66.95-12.32-107.18-93.99-165.5-125.71-59.12-32.09-140.76-36.29-186.98-84.93-45.91-48.24-72.47-109.5-101.67-170.73-28.32-59.24-63.37-124.97-72.35-193.32-8.87-68.07,30.7-131.69,42.56-196.59,12.32-66.95,14.26-133.83,45.98-192.15,32.09-59.12,36.62-151.16,85.26-197.38,48.24-45.91,126.85-76.06,188.07-105.26,59.24-28.32,127.75-59.68,196.11-68.67,68.07-8.87,150.48,1.61,215.38,13.47,66.95,12.32,98.57,109.81,156.89,141.53,59.12,32.09,136.69,26.37,182.91,75,45.91,48.24,63.55,113.92,92.75,175.14Z"/>
      <path class="cls-1" d="M1366.65,557.83c28.6,60.46,47.4,121.3,56.28,190.99,8.77,69.43-22.39,125.37-34.75,191.4-12.83,68.14,8.69,141.74-23.87,201.04-32.93,60.09-82.91,102.85-132.66,149.75-49.33,46.57-71.43,141.2-133.93,170.71-60.46,28.6-145.5-17.82-215.19-8.94-69.43,8.77-145.2,61.35-211.23,48.99-68.14-12.83-108.61-97.07-167.91-129.63-60.09-32.93-143.55-36.66-190.45-86.4-46.57-49.33-72.11-112.95-101.61-175.46-28.6-60.46-64.94-126.72-73.83-196.41-8.77-69.43,32.31-134.02,44.66-200.06,12.83-68.14,14.88-136.09,47.44-195.39,32.93-60.09,37.52-153.89,87.26-200.79,49.33-46.57,129.03-77.5,191.53-107.01,60.46-28.6,131.02-59.11,200.71-67.99,69.43-8.77,153.02.67,219.06,13.02,68.14,12.83,100.01,113.12,159.31,145.68,60.09,32.93,138.75,28.04,185.65,77.79,46.57,49.33,64.03,116.21,93.54,178.72Z"/>
      <path class="cls-1" d="M1377.58,555.57c28.88,61.68,48.53,123.16,57.31,194.19,8.68,70.79-23.25,127.68-36.1,194.84-13.33,69.34,9.24,144.68-24.16,204.96-33.77,61.06-85.19,104.61-136.04,152.19-50.42,47.23-73.94,143.17-137.72,172.99-61.68,28.88-148.74-20.22-219.77-11.44-70.79,8.68-147.63,63.4-214.79,50.56-69.34-13.33-110.04-100.15-170.32-133.55-61.06-33.77-146.34-37.02-193.92-87.87-47.23-50.42-71.75-116.4-101.56-180.18-28.88-61.68-66.52-128.47-75.3-199.5-8.68-70.79,33.92-136.36,46.76-203.52,13.33-69.34,15.49-138.34,48.89-198.62,33.77-61.06,38.41-156.63,89.26-204.21,50.42-47.23,131.2-78.95,194.98-108.77,61.68-28.88,134.28-58.54,205.31-67.32,70.79-8.68,155.57-.28,222.73,12.57,69.34,13.33,101.45,116.42,161.73,149.82,61.06,33.77,140.8,29.72,188.38,80.57,47.23,50.42,64.52,118.51,94.33,182.29Z"/>
      <path class="cls-1" d="M1388.52,553.31c29.17,62.9,49.66,125.02,58.33,197.39,8.58,72.15-24.11,129.99-37.45,198.27-13.84,70.53,9.78,147.62-24.46,208.88-34.62,62.04-87.46,106.37-139.43,154.63-51.51,47.89-76.45,145.15-141.51,175.26-62.9,29.17-151.98-22.62-224.35-13.94-72.15,8.58-150.07,65.46-218.36,52.13-70.53-13.84-111.47-103.22-172.73-137.46-62.04-34.62-149.13-37.39-197.39-89.35-47.89-51.51-71.39-119.85-101.51-184.91-29.17-62.9-68.1-130.22-76.77-202.59-8.58-72.15,35.52-138.69,48.86-206.98,13.84-70.53,16.1-140.6,50.34-201.86,34.62-62.04,39.31-159.36,91.27-207.62,51.51-47.89,133.38-80.4,198.44-110.52,62.9-29.17,137.55-57.97,209.92-66.64,72.15-8.58,158.12-1.22,226.4,12.12,70.53,13.84,102.89,119.73,164.15,153.97,62.04,34.62,142.85,31.39,191.11,83.35,47.89,51.51,65.01,120.8,95.13,185.87Z"/>
      <path class="cls-1" d="M1399.45,551.05c29.45,64.12,50.79,126.88,59.36,200.59,8.49,73.52-24.97,132.29-38.8,201.71-14.35,71.73,10.33,150.56-24.75,212.8-35.46,63.01-89.74,108.14-142.81,157.08-52.6,48.55-78.96,147.12-145.3,177.54-64.12,29.45-155.22-25.02-228.93-16.45-73.52,8.49-152.51,67.52-221.92,53.7-71.73-14.35-112.9-106.3-175.14-141.38-63.01-35.46-151.92-37.75-200.86-90.82-48.55-52.6-71.03-123.3-101.45-189.64-29.45-64.12-69.67-131.97-78.25-205.68-8.49-73.52,37.13-141.03,50.96-210.44,14.35-71.73,16.72-142.85,51.8-205.09,35.46-63.01,40.2-162.09,93.27-211.04,52.6-48.55,135.55-81.85,201.9-112.27,64.12-29.45,140.81-57.39,214.52-65.97,73.52-8.49,160.66-2.16,230.08,11.66,71.73,14.35,104.32,123.04,166.57,158.12,63.01,35.46,144.9,33.07,193.85,86.14,48.55,52.6,65.49,123.1,95.92,189.44Z"/>
      <path class="cls-1" d="M1410.39,548.79c29.73,65.35,51.92,128.74,60.39,203.79,8.4,74.88-25.83,134.6-40.15,205.15-14.85,72.92,10.87,153.5-25.05,216.72-36.31,63.98-92.02,109.9-146.19,159.52-53.69,49.22-81.47,149.09-149.09,179.82-65.35,29.73-158.46-27.42-233.51-18.95-74.88,8.4-154.94,69.58-225.49,55.27-72.92-14.85-114.33-109.38-177.55-145.29-63.98-36.31-154.71-38.12-204.33-92.29-49.22-53.69-70.67-126.75-101.4-194.37-29.73-65.35-71.25-133.72-79.72-208.77-8.4-74.88,38.74-143.36,53.06-213.91,14.85-72.92,17.33-145.11,53.25-208.33,36.31-63.98,41.1-164.83,95.27-214.45,53.69-49.22,137.73-83.3,205.35-114.03,65.35-29.73,144.08-56.82,219.12-65.29,74.88-8.4,163.21-3.1,233.75,11.21,72.92,14.85,105.76,126.34,168.99,162.26,63.98,36.31,146.96,34.74,196.58,88.92,49.22,53.69,65.98,125.39,96.71,193.02Z"/>
      <path class="cls-1" d="M1421.32,546.53c30.02,66.57,53.05,130.6,61.42,206.99,8.3,76.24-26.69,136.91-41.5,208.58-15.36,74.12,11.42,156.44-25.34,220.64-37.15,64.96-94.29,111.67-149.58,161.97-54.78,49.88-83.98,151.06-152.89,182.1-66.57,30.02-161.71-29.82-238.09-21.46-76.24,8.3-157.38,71.64-229.05,56.84-74.12-15.36-115.76-112.45-179.96-149.21-64.96-37.15-157.49-38.48-207.8-93.77-49.88-54.78-70.31-130.19-101.34-199.1-30.02-66.57-72.83-135.47-81.19-211.86-8.3-76.24,40.35-145.7,55.16-217.37,15.36-74.12,17.95-147.36,54.7-211.57,37.15-64.96,41.99-167.56,97.28-217.86,54.78-49.88,139.9-84.75,208.81-115.78,66.57-30.02,147.34-56.25,223.72-64.61,76.24-8.3,165.76-4.04,237.43,10.76,74.12,15.36,107.2,129.65,171.41,166.41,64.96,37.15,149.01,36.42,199.31,91.71,49.88,54.78,66.47,127.69,97.5,196.59Z"/>
      <path class="cls-1" d="M1432.26,544.27c30.3,67.79,54.19,132.46,62.45,210.18,8.21,77.6-27.55,139.22-42.85,212.02-15.86,75.31,11.96,159.38-25.64,224.56-37.99,65.93-96.57,113.43-152.96,164.41-55.87,50.54-86.49,153.03-156.68,184.38-67.79,30.3-164.95-32.22-242.67-23.96-77.6,8.21-159.82,73.7-232.62,58.4-75.31-15.86-117.19-115.53-182.38-153.13-65.93-37.99-160.28-38.84-211.27-95.24-50.54-55.87-69.95-133.64-101.29-203.83-30.3-67.79-74.41-137.22-82.67-214.94-8.21-77.6,41.96-148.03,57.25-220.83,15.86-75.31,18.56-149.61,56.16-214.8,37.99-65.93,42.88-170.29,99.28-221.28,55.87-50.54,142.08-86.2,212.26-117.54,67.79-30.3,150.61-55.68,228.33-63.94,77.6-8.21,168.3-4.98,241.1,10.31,75.31,15.86,108.64,132.96,173.83,170.56,65.93,37.99,151.06,38.1,202.05,94.49,50.54,55.87,66.95,129.98,98.3,200.17Z"/>
      <path class="cls-1" d="M1443.2,542.01c30.58,69.01,55.32,134.32,63.47,213.38,8.12,78.96-28.41,141.53-44.2,215.46-16.37,76.51,12.51,162.32-25.93,228.48-38.84,66.9-98.84,115.19-156.35,166.86-56.96,51.2-89,155.01-160.47,186.65-69.01,30.58-168.19-34.62-247.25-26.47-78.96,8.12-162.25,75.76-236.18,59.97-76.51-16.37-118.62-118.61-184.79-157.04-66.9-38.84-163.07-39.21-214.74-96.71-51.2-56.96-69.59-137.09-101.23-208.56-30.58-69.01-75.98-138.98-84.14-218.03-8.12-78.96,43.57-150.37,59.35-224.29,16.37-76.51,19.17-151.87,57.61-218.04,38.84-66.9,43.78-173.03,101.28-224.69,56.96-51.2,144.25-87.64,215.72-119.29,69.01-30.58,153.87-55.11,232.93-63.26,78.96-8.12,170.85-5.93,244.78,9.86,76.51,16.37,110.08,136.27,176.25,174.7,66.9,38.84,153.12,39.77,204.78,97.28,51.2,56.96,67.44,132.27,99.09,203.74Z"/>
      <path class="cls-1" d="M1454.13,539.75c30.87,70.23,56.45,136.18,64.5,216.58,8.02,80.33-29.27,143.84-45.55,218.89-16.88,77.71,13.05,165.26-26.22,232.41-39.68,67.88-101.12,116.96-159.73,169.3-58.05,51.86-91.51,156.98-164.26,188.93-70.23,30.87-171.43-37.02-251.82-28.97-80.33,8.02-164.69,77.82-239.74,61.54-77.71-16.88-120.05-121.68-187.2-160.96-67.88-39.68-165.86-39.57-218.21-98.19-51.86-58.05-69.23-140.54-101.18-213.29-30.87-70.23-77.56-140.73-85.61-221.12-8.02-80.33,45.18-152.7,61.45-227.76,16.88-77.71,19.79-154.12,59.06-221.27,39.68-67.88,44.67-175.76,103.29-228.1,58.05-51.86,146.43-89.09,219.18-121.05,70.23-30.87,157.14-54.53,237.53-62.59,80.33-8.02,173.4-6.87,248.45,9.41,77.71,16.88,111.52,139.57,178.67,178.85,67.88,39.68,155.17,41.45,207.51,100.06,51.86,58.05,67.93,134.57,99.88,207.32Z"/>
      <path class="cls-1" d="M1465.07,537.49c31.15,71.46,57.58,138.04,65.53,219.78,7.93,81.69-30.13,146.15-46.9,222.33-17.38,78.9,13.6,168.2-26.52,236.33-40.53,68.85-103.4,118.72-163.12,171.75-59.14,52.52-94.02,158.95-168.05,191.21-71.46,31.15-174.67-39.42-256.4-31.47-81.69,7.93-167.13,79.87-243.31,63.11-78.9-17.38-121.48-124.76-189.61-164.87-68.85-40.53-168.65-39.94-221.68-99.66-52.52-59.14-68.87-143.99-101.13-218.02-31.15-71.46-79.14-142.48-87.09-224.21-7.93-81.69,46.79-155.04,63.55-231.22,17.38-78.9,20.4-156.38,60.51-224.51,40.53-68.85,45.57-178.49,105.29-231.52,59.14-52.52,148.6-90.54,222.63-122.8,71.46-31.15,160.4-53.96,242.14-61.91,81.69-7.93,175.94-7.81,252.12,8.96,78.9,17.38,112.96,142.88,181.09,183,68.85,40.53,157.22,43.12,210.25,102.84,52.52,59.14,68.41,136.86,100.67,210.89Z"/>
      <path class="cls-1" d="M1476,535.23c31.43,72.68,58.71,139.91,66.56,222.98,7.84,83.05-30.99,148.46-48.24,225.77-17.89,80.1,14.14,171.13-26.81,240.25-41.37,69.82-105.67,120.48-166.5,174.19-60.23,53.19-96.53,160.92-171.84,193.49-72.68,31.43-177.91-41.82-260.98-33.98-83.05,7.84-169.57,81.93-246.87,64.68-80.1-17.89-122.9-127.83-192.02-168.79-69.82-41.37-171.44-40.3-225.15-101.13-53.19-60.23-68.51-147.44-101.07-222.75-31.43-72.68-80.71-144.23-88.56-227.3-7.84-83.05,48.4-157.37,65.65-234.68,17.89-80.1,21.01-158.63,61.97-227.75,41.37-69.82,46.46-181.23,107.29-234.93,60.23-53.19,150.78-91.99,226.09-124.55,72.68-31.43,163.67-53.39,246.74-61.23,83.05-7.84,178.49-8.75,255.8,8.5,80.1,17.89,114.4,146.19,183.51,187.14,69.82,41.37,159.27,44.8,212.98,105.63,53.19,60.23,68.9,139.16,101.47,214.47Z"/>
      <path class="cls-1" d="M866.75,1568.44c-84.41,7.74-172,83.99-250.44,66.25-81.29-18.39-124.33-130.91-194.43-172.71-70.8-42.21-174.23-40.67-228.62-102.6-53.85-61.32-68.15-150.88-101.02-227.48-31.72-73.9-82.29-145.98-90.03-230.39-7.74-84.41,50-159.71,67.75-238.14,18.39-81.29,21.63-160.89,63.42-230.98,42.21-70.8,47.36-183.96,109.3-238.34,61.32-53.85,152.95-93.44,229.54-126.31,73.9-31.72,166.93-52.82,251.34-60.56,84.41-7.74,181.04-9.69,259.47,8.05,81.29,18.39,115.84,149.49,185.93,191.29,70.8,42.21,161.33,46.48,215.71,108.41,53.85,61.32,69.39,141.45,102.26,218.04,31.72,73.9,59.84,141.77,67.58,226.18,7.74,84.41-31.85,150.77-49.59,229.21-18.39,81.29,14.69,174.07-27.11,244.17-42.21,70.8-107.95,122.25-169.88,176.63-61.32,53.85-99.04,162.89-175.63,195.77-73.9,31.72-181.15-44.22-265.56-36.48Z"/>
    </g>
  </g>
</svg>