<?xml version="1.0" encoding="UTF-8"?>
<svg id="Ebene_2" data-name="Ebene 2" xmlns="http://www.w3.org/2000/svg" viewBox="0 0 1081.11 537.43">
  <defs>
    <style>
      .cls-1 {
        fill: none;
        stroke: #1e0032;
        stroke-miterlimit: 10;
        stroke-width: 5px;
      }
    </style>
  </defs>
  <g id="linien">
    <line class="cls-1" x1="1080" y1="439.83" x2="633.81" y2="439.83"/>
    <line class="cls-1" x1="1080" y1="451.72" x2="633.81" y2="451.72"/>
    <line class="cls-1" x1="1080" y1="463.61" x2="591.33" y2="463.61"/>
    <line class="cls-1" x1="1080" y1="475.49" x2="591.33" y2="475.49"/>
    <line class="cls-1" x1="1080" y1="487.38" x2="591.33" y2="487.38"/>
    <line class="cls-1" x1="1080" y1="499.27" x2="591.33" y2="499.27"/>
    <line class="cls-1" x1="1080" y1="511.16" x2="591.33" y2="511.16"/>
    <line class="cls-1" x1="1080" y1="523.04" x2="591.33" y2="523.04"/>
    <line class="cls-1" x1="1080" y1="523.04" x2="681.46" y2="523.04"/>
    <line class="cls-1" x1="1081.11" y1="77.04" x2="615.1" y2="77.04"/>
    <line class="cls-1" x1="1081.11" y1="88.93" x2="615.1" y2="88.93"/>
    <line class="cls-1" x1="1081.11" y1="100.82" x2="615.1" y2="100.82"/>
    <line class="cls-1" x1="1081.11" y1="112.71" x2="615.1" y2="112.71"/>
    <line class="cls-1" x1="1081.11" y1="124.6" x2="615.1" y2="124.6"/>
    <line class="cls-1" x1="1081.11" y1="136.48" x2="615.1" y2="136.48"/>
    <line class="cls-1" x1="813.42" y1="534.93" x2="168.87" y2="534.93"/>
    <line class="cls-1" x1="1081.11" y1="52.63" x2="305.78" y2="52.63"/>
    <line class="cls-1" x1="1081.11" y1="40.09" x2="305.78" y2="40.09"/>
    <line class="cls-1" x1="1081.11" y1="27.56" x2="305.78" y2="27.56"/>
    <line class="cls-1" x1="1081.11" y1="15.03" x2="305.78" y2="15.03"/>
    <line class="cls-1" x1="1081.11" y1="2.5" x2="305.78" y2="2.5"/>
    <line class="cls-1" x1="1081.11" y1="148.37" y2="148.37"/>
    <line class="cls-1" x1="1081.11" y1="160.26" y2="160.26"/>
    <line class="cls-1" x1="1081.11" y1="172.15" y2="172.15"/>
    <line class="cls-1" x1="1081.11" y1="184.03" y2="184.03"/>
    <line class="cls-1" x1="1081.11" y1="195.92" y2="195.92"/>
    <line class="cls-1" x1="1081.11" y1="207.81" y2="207.81"/>
    <line class="cls-1" x1="1081.11" y1="219.7" y2="219.7"/>
    <line class="cls-1" x1="1081.11" y1="231.58" y2="231.58"/>
    <line class="cls-1" x1="1081.11" y1="243.47" y2="243.47"/>
    <line class="cls-1" x1="1081.11" y1="255.36" y2="255.36"/>
    <line class="cls-1" x1="1081.11" y1="267.25" y2="267.25"/>
    <line class="cls-1" x1="1081.11" y1="279.13" y2="279.13"/>
    <line class="cls-1" x1="1081.11" y1="291.02" y2="291.02"/>
    <line class="cls-1" x1="1081.11" y1="302.91" y2="302.91"/>
    <line class="cls-1" x1="1081.11" y1="314.8" y2="314.8"/>
    <line class="cls-1" x1="1081.11" y1="326.68" y2="326.68"/>
    <line class="cls-1" x1="1081.11" y1="338.57" y2="338.57"/>
    <line class="cls-1" x1="1081.11" y1="350.46" y2="350.46"/>
    <line class="cls-1" x1="1081.11" y1="362.35" y2="362.35"/>
  </g>
</svg>