<?xml version="1.0" encoding="UTF-8"?>
<svg id="Ebene_2" data-name="Ebene 2" xmlns="http://www.w3.org/2000/svg" viewBox="0 0 1082.99 302.59">
  <defs>
    <style>
      .cls-1 {
        fill: none;
        stroke: #1e0032;
        stroke-miterlimit: 10;
        stroke-width: 3px;
      }
    </style>
  </defs>
  <g id="linien">
    <line class="cls-1" x1="1082.99" y1="104.91" x2="372.76" y2="104.91"/>
    <line class="cls-1" x1="1082.99" y1="57.9" x2="372.76" y2="57.9"/>
    <line class="cls-1" x1="1082.99" y1="48.5" x2="372.76" y2="48.5"/>
    <line class="cls-1" x1="1082.99" y1="39.1" x2="372.76" y2="39.1"/>
    <line class="cls-1" x1="1082.99" y1="29.7" x2="372.76" y2="29.7"/>
    <line class="cls-1" x1="1082.99" y1="20.3" x2="372.76" y2="20.3"/>
    <line class="cls-1" x1="1082.99" y1="10.9" x2="372.76" y2="10.9"/>
    <line class="cls-1" x1="1082.99" y1="1.5" x2="372.76" y2="1.5"/>
    <line class="cls-1" x1="1082.99" y1="113.82" x2="305.14" y2="113.82"/>
    <line class="cls-1" x1="1082.99" y1="122.74" x2="305.14" y2="122.74"/>
    <line class="cls-1" x1="1082.99" y1="131.66" x2="305.14" y2="131.66"/>
    <line class="cls-1" x1="1082.99" y1="140.58" x2="305.14" y2="140.58"/>
    <line class="cls-1" x1="1082.99" y1="149.49" x2="305.14" y2="149.49"/>
    <line class="cls-1" x1="1082.99" y1="158.41" x2="305.14" y2="158.41"/>
    <line class="cls-1" x1="1082.99" y1="167.33" x2="305.14" y2="167.33"/>
    <line class="cls-1" x1="1082.99" y1="176.25" x2="305.14" y2="176.25"/>
    <line class="cls-1" x1="1082.99" y1="185.16" x2="305.14" y2="185.16"/>
    <line class="cls-1" x1="1082.99" y1="194.08" x2="305.14" y2="194.08"/>
    <line class="cls-1" x1="1082.99" y1="203" x2="305.14" y2="203"/>
    <line class="cls-1" x1="1082.99" y1="211.92" x2="305.14" y2="211.92"/>
    <line class="cls-1" x1="1082.99" y1="220.83" x2="305.14" y2="220.83"/>
    <line class="cls-1" x1="1082.99" y1="229.75" x2="305.14" y2="229.75"/>
    <line class="cls-1" x1="1082.99" y1="238.67" x2="305.14" y2="238.67"/>
    <line class="cls-1" x1="1082.99" y1="247.59" x2="305.14" y2="247.59"/>
    <line class="cls-1" x1="1082.99" y1="256.5" x2="305.14" y2="256.5"/>
    <line class="cls-1" x1="1082.99" y1="265.42" x2="305.14" y2="265.42"/>
    <line class="cls-1" x1="1082.99" y1="274.34" x2="305.14" y2="274.34"/>
    <line class="cls-1" x1="1082.99" y1="283.25" x2="305.14" y2="283.25"/>
    <line class="cls-1" x1="1082.99" y1="292.17" x2="305.14" y2="292.17"/>
    <line class="cls-1" x1="1082.99" y1="301.09" x2="305.14" y2="301.09"/>
    <line class="cls-1" x1="764.86" y1="95.51" y2="95.51"/>
    <line class="cls-1" x1="764.86" y1="86.11" y2="86.11"/>
    <line class="cls-1" x1="764.86" y1="76.7" y2="76.7"/>
    <line class="cls-1" x1="764.86" y1="67.3" y2="67.3"/>
  </g>
</svg>