<?xml version="1.0" encoding="UTF-8"?>
<svg id="Ebene_2" data-name="Ebene 2" xmlns="http://www.w3.org/2000/svg" xmlns:xlink="http://www.w3.org/1999/xlink" viewBox="0 0 1728.25 1328.11">
  <defs>
    <style>
      .cls-1 {
        fill: none;
        stroke: url(#Unbenannter_Verlauf_19);
        stroke-miterlimit: 10;
        stroke-width: 3px;
      }
    </style>
    <linearGradient id="Unbenannter_Verlauf_19" data-name="Unbenannter Verlauf 19" x1="6825.9" y1="1328.11" x2="6825.9" y2="0" gradientTransform="translate(7690.02) rotate(-180) scale(1 -1)" gradientUnits="userSpaceOnUse">
      <stop offset="0" stop-color="#1e0032"/>
      <stop offset=".14" stop-color="#230839" stop-opacity=".9"/>
      <stop offset=".32" stop-color="#311f4d" stop-opacity=".61"/>
      <stop offset=".51" stop-color="#49466f" stop-opacity=".12"/>
      <stop offset=".55" stop-color="#505078" stop-opacity="0"/>
    </linearGradient>
  </defs>
  <g id="key_visual_02" data-name="key visual 02">
    <path class="cls-1" d="M1616.09,499.47C1567.22,226.31,1377.06,25.25,1164.83,3.48c-203.6-20.88-388.34,127.27-476.84,257.22-114.29,167.84-60.02,293.56-168.01,387.83-108.92,95.07-291.38,78.26-476.85,22.67M42.38,674.53c189.27,62.63,372.82,80.24,482.55-13.88,107.68-93.01,55.55-217.59,168.89-383.56C782.17,147.95,964.98.87,1167.27,21.11c211.46,21.03,400.96,220.57,450.84,490.65M41.61,677.86c193.06,69.67,378.03,88.45,488.25-5.09,107.69-91.39,57.39-215.19,169.78-379.3,88.22-128.33,269.08-274.34,470.08-254.75,210.69,20.3,399.52,218.31,450.42,485.32M40.85,681.2c196.86,76.71,383.07,96.47,493.95,3.7,107.52-89.96,59.23-212.79,170.66-375.03,88.09-127.52,267.01-272.46,466.7-253.51,209.92,19.57,398.08,216.05,450,479.99M40.09,684.53c200.66,83.75,388.11,104.48,499.65,12.49,107.35-88.54,61.06-210.39,171.54-370.76,87.95-126.71,264.93-270.59,463.32-252.27,209.14,18.83,396.65,213.79,449.58,474.65M39.32,687.86c204.46,90.79,393.14,112.49,505.35,21.28,107.17-87.12,62.55-208.23,172.43-366.5,87.54-126.09,262.85-268.71,459.94-251.04,208.37,18.1,395.21,211.53,449.16,469.32M38.56,691.19c208.26,97.83,398.16,120.51,511.05,30.07,106.98-85.71,64.33-205.88,173.31-362.23,87.35-125.32,260.77-266.83,456.56-249.8,207.6,17.37,393.78,209.27,448.74,463.99M37.79,694.53c212.05,104.87,403.17,128.51,516.75,38.85,106.78-84.3,66.1-203.52,174.19-357.96,87.17-124.54,258.69-264.95,453.18-248.56,206.83,16.63,392.34,207.01,448.32,458.66M37.03,697.86c215.85,111.91,408.18,136.52,522.45,47.64,106.58-82.9,67.88-201.17,175.08-353.7,86.98-123.77,256.58-262.66,449.8-247.33,206.03,16.34,390.91,204.75,447.9,453.32M36.27,701.19c219.65,118.95,413.18,144.52,528.15,56.43,106.36-81.5,69.66-198.81,175.96-349.43,86.8-122.99,254.5-260.73,446.42-246.09,205.25,15.66,389.47,202.49,447.48,447.99M35.5,704.52c223.45,125.99,418.18,152.52,533.85,65.22,106.14-80.11,71.45-196.45,176.84-345.16,86.62-122.22,252.42-258.81,443.04-244.86,204.48,14.97,388.04,200.23,447.06,442.66M34.74,707.86c227.24,133.03,423.17,160.51,539.55,74.01,105.92-78.73,73.23-194.09,177.73-340.9,86.44-121.44,250.34-256.89,439.66-243.62,203.71,14.28,386.6,197.97,446.64,437.33M33.97,711.19c231.04,140.07,428.15,168.5,545.25,82.8,105.68-77.35,75.02-191.72,178.61-336.63,86.26-120.66,248.26-254.98,436.28-242.38,202.93,13.59,385.16,195.71,446.22,431.99M33.21,714.52c234.84,147.11,433.13,176.49,550.95,91.59,105.44-75.98,76.81-189.36,179.5-332.36,86.08-119.89,246.18-253.06,432.9-241.15,202.16,12.9,383.73,193.45,445.8,426.66M32.45,717.85c238.64,154.15,438.09,184.47,556.65,100.38,105.19-74.61,78.61-186.99,180.38-328.09,85.91-119.11,244.1-251.15,429.52-239.91,201.39,12.21,382.29,191.19,445.38,421.33M31.68,721.19c242.44,161.19,443.06,192.44,562.35,109.17,104.94-73.25,80.4-184.62,181.26-323.83,85.73-118.33,242.02-249.24,426.14-238.67,200.62,11.51,380.86,188.93,444.96,416M30.92,724.52c246.23,168.23,448.01,200.41,568.05,117.95,104.67-71.9,82.2-182.25,182.15-319.56,85.56-117.55,239.95-247.33,422.76-237.44,199.85,10.82,379.42,186.67,444.54,410.66M30.15,727.85c250.03,175.27,452.96,208.37,573.75,126.74,104.4-70.56,84.01-179.88,183.03-315.29,85.39-116.76,237.87-245.42,419.38-236.2,199.08,10.12,377.99,184.41,444.12,405.33M29.39,731.19c253.83,182.31,457.9,216.33,579.45,135.53,104.13-69.22,85.81-177.51,183.91-311.03,85.22-115.98,235.79-243.52,416-234.96,198.31,9.41,376.55,182.15,443.7,400M28.63,734.52c257.63,189.35,462.84,224.28,585.15,144.32,103.84-67.89,87.62-175.14,184.8-306.76,85.05-115.2,233.71-241.62,412.62-233.73,197.54,8.71,375.12,179.89,443.28,394.67M27.86,737.85c261.42,196.39,467.76,232.23,590.85,153.11,103.55-66.56,89.43-172.76,185.68-302.49,84.89-114.41,231.64-239.72,409.24-232.49,196.77,8,373.68,177.63,442.86,389.33M27.1,741.18c265.22,203.43,472.69,240.17,596.55,161.9,103.26-65.25,91.24-170.38,186.56-298.23,84.72-113.63,229.56-237.82,405.86-231.26,196,7.3,372.25,175.37,442.44,384M26.33,744.52c269.02,210.47,477.6,248.1,602.25,170.69,102.96-63.94,93.06-168,187.45-293.96,84.56-112.84,227.48-235.92,402.48-230.02,195.23,6.59,370.81,173.11,442.02,378.67M25.57,747.85c272.82,217.51,482.51,256.02,607.95,179.48,102.65-62.64,94.87-165.62,188.33-289.69,84.4-112.05,225.41-234.03,399.1-228.78,194.47,5.87,369.37,170.85,441.6,373.34M24.8,751.18c276.62,224.55,487.42,263.94,613.65,188.27,102.33-61.34,96.7-163.24,189.22-285.43,84.25-111.26,223.33-232.14,395.72-227.55,193.7,5.16,367.94,168.59,441.18,368M24.04,754.51c280.41,231.59,492.31,271.84,619.35,197.06,102.02-60.06,98.52-160.85,190.1-281.16,84.09-110.47,221.26-230.25,392.34-226.31,192.93,4.44,366.5,166.33,440.76,362.67M23.28,757.85c284.21,238.63,497.2,279.74,625.05,205.84,101.69-58.78,100.35-158.46,190.98-276.89,83.94-109.68,219.18-228.36,388.96-225.07,192.16,3.72,365.07,164.07,440.34,357.34M22.51,761.18c288.01,245.67,502.09,287.63,630.75,214.63,101.36-57.51,102.18-156.08,191.87-272.63,83.79-108.88,217.11-226.48,385.58-223.84,191.39,3,363.63,161.81,439.92,352.01M21.75,764.51c291.81,252.71,506.97,295.51,636.45,223.42,101.03-56.25,104.01-153.68,192.75-268.36,83.64-108.09,215.03-224.6,382.2-222.6,190.63,2.27,362.2,159.55,439.5,346.67M20.98,767.84c295.61,259.75,511.84,303.38,642.15,232.21,100.69-54.99,105.85-151.29,193.63-264.09,83.49-107.29,212.96-222.72,378.82-221.37,189.86,1.55,360.76,157.29,439.08,341.34M20.22,771.18c299.4,266.79,516.71,311.24,647.85,241,100.35-53.74,107.69-148.89,194.52-259.83,83.35-106.49,210.88-220.84,375.44-220.13,189.09.81,359.33,155.03,438.66,336.01M19.46,774.51c303.2,273.83,521.57,319.09,653.55,249.79,100-52.51,109.53-146.49,195.4-255.56,83.21-105.69,208.81-218.96,372.06-218.89,188.33.08,357.89,152.77,438.24,330.67M18.69,777.84c307,280.87,526.42,326.93,659.25,258.58,99.65-51.28,111.38-144.09,196.28-251.29,83.07-104.88,206.73-217.09,368.68-217.66,187.56-.65,356.45,150.51,437.82,325.34M17.93,781.17c310.8,287.91,531.28,334.75,664.95,267.37,99.29-50.05,113.22-141.69,197.17-247.03,82.94-104.08,204.66-215.22,365.3-216.42,186.79-1.39,355.02,148.26,437.4,320.01M17.16,784.51c314.59,294.95,536.12,342.57,670.65,276.16,98.93-48.84,115.08-139.28,198.05-242.76,82.81-103.27,202.58-213.35,361.92-215.18,186.02-2.14,353.58,146,436.98,314.68M16.4,787.84c318.39,301.99,540.96,350.37,676.35,284.95,98.57-47.63,116.93-136.88,198.94-238.49,82.68-102.46,200.51-211.49,358.54-213.95,185.26-2.88,352.15,143.74,436.56,309.34M1688.81,941.98c-85.43-162.54-251.65-307.64-436.14-304.01-156.73,3.08-272.6,111.07-355.16,212.71-81.03,99.76-101.62,187.79-199.82,234.23-136.25,64.43-359.86,15.29-682.05-293.73M1690.83,954.27c-86.45-159.46-252-303.06-435.72-298.68-155.42,3.71-269.34,110.65-351.78,211.47-80.05,97.91-102.87,184.71-200.7,229.96-137.12,63.41-361.76,13.55-687.75-302.52M1692.85,966.57c-87.46-156.39-252.35-298.48-435.3-293.35-154.12,4.33-266.08,110.23-348.4,210.24-79.07,96.06-104.12,181.63-201.59,225.69-138,62.39-363.66,11.8-693.45-311.31M1694.87,978.86c-88.48-153.32-252.7-293.91-434.88-288.01-152.82,4.94-262.82,109.82-345.02,209-78.08,94.21-105.38,178.53-202.47,221.43-138.87,61.35-365.57,10.05-699.15-320.1M1696.89,991.15c-89.49-150.25-253.05-289.34-434.46-282.68-151.51,5.56-259.55,109.41-341.64,207.77-77.09,92.37-106.64,175.43-203.35,217.16-139.76,60.3-367.47,8.3-704.85-328.89M1698.91,1003.44c-90.51-147.17-253.39-284.77-434.04-277.35-150.21,6.17-256.27,109-338.26,206.53-76.1,90.53-107.9,172.32-204.24,212.89-140.64,59.23-369.37,6.55-710.55-337.68M1700.93,1015.73c-91.52-144.1-253.74-280.21-433.62-272.02-148.9,6.78-252.99,108.6-334.88,205.29-75.11,88.69-109.16,169.2-205.12,208.63-141.53,58.15-371.27,4.8-716.25-346.47M1702.95,1028.03c-92.54-141.03-254.09-275.65-433.2-266.68-147.6,7.39-249.71,108.2-331.5,204.06-74.11,86.85-110.42,166.07-206,204.36-142.42,57.05-373.18,3.05-721.95-355.26M1704.97,1040.32c-93.56-137.95-254.44-271.09-432.78-261.35-146.3,7.99-246.42,107.81-328.12,202.82-73.11,85.02-111.69,162.94-206.89,200.09-143.32,55.93-375.08,1.3-727.65-364.05M1706.99,1052.61c-94.57-134.88-254.79-266.54-432.36-256.02-145,8.59-243.13,107.42-324.74,201.58-72.1,83.2-112.95,159.79-207.77,195.83-144.22,54.8-376.98-.45-733.35-372.84M1709.01,1064.9c-95.59-131.81-255.15-261.99-431.94-250.69-143.69,9.19-239.83,107.03-321.36,200.35-71.09,81.37-114.22,156.64-208.66,191.56-145.12,53.66-378.88-2.2-739.05-381.62M1711.03,1077.19c-96.6-128.74-255.5-257.45-431.53-245.35-142.39,9.78-236.53,106.65-317.98,199.11-70.08,79.55-115.48,153.48-209.54,187.29-146.02,52.49-380.79-3.94-744.75-390.41M1713.05,1089.49c-97.62-125.66-255.85-252.91-431.11-240.02-141.09,10.37-233.22,106.28-314.6,197.87-69.06,77.73-116.75,150.31-210.42,183.03-146.93,51.31-382.69-5.69-750.45-399.2M1715.07,1101.78c-98.63-122.59-256.2-248.37-430.69-234.69-139.79,10.96-229.91,105.91-311.22,196.64-68.04,75.92-118.01,147.13-211.31,178.76-147.83,50.11-384.59-7.44-756.15-407.99M1717.09,1114.07c-99.65-119.52-256.56-243.84-430.27-229.36-138.5,11.55-226.59,105.55-307.84,195.4-67.02,74.11-119.27,143.95-212.19,174.49-148.74,48.9-386.49-9.19-761.85-416.78M1719.11,1126.36c-100.67-116.44-256.95-239.65-429.85-224.02-137.22,11.86-223.26,105.2-304.46,194.17-65.99,72.31-120.54,140.75-213.07,170.23-149.65,47.66-388.39-10.94-767.55-425.57M1721.13,1138.65c-101.68-113.37-257.3-235.05-429.43-218.69-135.92,12.5-219.93,104.85-301.08,192.93-64.96,70.51-121.8,137.55-213.96,165.96-150.56,46.41-390.3-12.69-773.25-434.36M1723.15,1150.95c-102.7-110.3-257.65-230.45-429.01-213.36-134.62,13.15-216.59,104.51-297.7,191.69-63.93,68.71-123.05,134.34-214.84,161.69-151.47,45.14-392.2-14.44-778.95-443.15M1725.17,1163.24c-103.71-107.23-258-225.85-428.59-208.03-133.32,13.79-213.13,104.29-294.32,190.46-62.81,67-124.31,131.12-215.72,157.43-152.38,43.84-394.1-16.19-784.65-451.94M1727.19,1175.53c-104.73-104.15-258.35-221.26-428.17-202.69-232.75,25.44-297.19,284.01-507.55,342.38-153.29,42.53-396-17.94-790.35-460.73"/>
  </g>
</svg>