<?xml version="1.0" encoding="UTF-8"?>
<svg id="Ebene_2" data-name="Ebene 2" xmlns="http://www.w3.org/2000/svg" viewBox="0 0 2107.94 1621.98">
  <defs>
    <style>
      .cls-1 {
        fill: none;
        stroke: #1e0032;
        stroke-miterlimit: 10;
        stroke-width: 3px;
      }
    </style>
  </defs>
  <g id="key_visual_02" data-name="key visual 02">
    <g>
      <path class="cls-1" d="M.65,465.14c568.37,272.28,831.16,231.94,964,127.33,182.29-143.56,139.34-423.53,357.1-544,158.88-87.9,357.56-36.14,502.99,22.99"/>
      <path class="cls-1" d="M1829.77,84.87c-144.34-56.43-341.66-104.92-500.51-16.28-216.59,120.57-177.71,397.75-360.57,540.26-135.41,104.71-399.33,145.12-964.15-124.1"/>
      <path class="cls-1" d="M1834.81,98.28c-143.25-53.73-339.21-98.95-498.03-9.56-215.42,120.66-180.08,395.73-364.04,536.53-137.6,105.31-403.04,145.3-964.3-120.87"/>
      <path class="cls-1" d="M1839.84,111.69c-142.16-51.03-336.76-92.98-495.54-2.84-214.25,120.75-182.75,393.35-367.5,532.79-139.99,105.65-406.75,145.47-964.44-117.64"/>
      <path class="cls-1" d="M1844.88,125.1c-141.07-48.33-334.12-86.68-493.06,3.88-212.83,121.27-185.43,390.96-370.97,529.05-142.4,105.99-410.46,145.64-964.59-114.41"/>
      <path class="cls-1" d="M1849.92,138.51c-139.98-45.63-331.63-80.64-490.58,10.6-211.6,121.46-188.13,388.54-374.44,525.31-144.82,106.31-414.17,145.82-964.74-111.18"/>
      <path class="cls-1" d="M1854.96,151.92c-138.89-42.93-329.13-74.59-488.1,17.32-210.38,121.64-190.85,386.11-377.91,521.58-147.25,106.63-417.88,145.99-964.89-107.95"/>
      <path class="cls-1" d="M1859.99,165.33c-137.8-40.24-326.64-68.55-485.62,24.04-209.16,121.82-193.58,383.67-381.37,517.84-149.68,106.95-421.59,146.17-965.04-104.72"/>
      <path class="cls-1" d="M1865.03,178.74c-136.71-37.54-324.15-62.52-483.14,30.76-207.94,122-196.33,381.2-384.84,514.1-152.13,107.25-425.3,146.34-965.19-101.49"/>
      <path class="cls-1" d="M1870.07,192.15c-135.62-34.84-321.66-56.48-480.66,37.48-206.72,122.17-199.1,378.73-388.31,510.36-154.58,107.55-429.01,146.51-965.34-98.26"/>
      <path class="cls-1" d="M1875.11,205.56c-134.53-32.14-319.17-50.45-478.18,44.2-205.5,122.33-201.88,376.23-391.78,506.63-157.05,107.84-432.72,146.69-965.49-95.03"/>
      <path class="cls-1" d="M1880.15,218.97c-133.44-29.44-316.68-44.42-475.7,50.92-204.29,122.49-204.67,373.73-395.24,502.89-159.52,108.12-436.43,146.86-965.64-91.81"/>
      <path class="cls-1" d="M1885.18,232.38c-132.35-26.74-314.2-38.4-473.22,57.64-203.08,122.64-207.47,371.2-398.71,499.15-162,108.39-440.14,147.04-965.79-88.58"/>
      <path class="cls-1" d="M1890.22,245.78c-131.26-24.04-311.71-32.38-470.74,64.36-201.87,122.79-210.29,368.67-402.18,495.41-164.49,108.65-443.85,147.21-965.94-85.35"/>
      <path class="cls-1" d="M1895.26,259.19c-130.17-21.34-309.23-26.36-468.26,71.08-200.66,122.94-213.12,366.12-405.65,491.68-166.99,108.9-447.55,147.38-966.09-82.12"/>
      <path class="cls-1" d="M1900.3,272.6c-129.08-18.64-306.74-20.34-465.78,77.8-199.45,123.08-215.95,363.55-409.11,487.94-169.5,109.15-451.26,147.56-966.24-78.89"/>
      <path class="cls-1" d="M1905.33,286.01c-127.99-15.94-304.26-14.33-463.3,84.52-198.25,123.22-218.8,360.98-412.58,484.2-172.01,109.38-454.97,147.73-966.39-75.66"/>
      <path class="cls-1" d="M1910.37,299.42c-126.9-13.24-301.78-8.32-460.82,91.24-197.05,123.35-221.66,358.39-416.05,480.46-174.53,109.61-458.68,147.9-966.54-72.43"/>
      <path class="cls-1" d="M1915.41,312.83c-125.81-10.54-299.3-2.31-458.34,97.96-195.85,123.48-224.53,355.78-419.52,476.73-177.06,109.82-462.39,148.08-966.69-69.2"/>
      <path class="cls-1" d="M1920.45,326.24c-124.72-7.84-296.83,3.7-455.85,104.68-194.65,123.6-227.41,353.17-422.98,472.99-179.59,110.03-466.1,148.25-966.84-65.97"/>
      <path class="cls-1" d="M1925.48,339.65c-123.62-5.14-294.35,9.7-453.37,111.4-193.46,123.72-230.29,350.54-426.45,469.25-182.14,110.22-469.81,148.43-966.98-62.74"/>
      <path class="cls-1" d="M1930.52,353.06c-122.53-2.44-291.88,15.7-450.89,118.12-192.27,123.84-233.18,347.9-429.92,465.51-184.69,110.41-473.52,148.6-967.13-59.51"/>
      <path class="cls-1" d="M1935.56,366.47c-121.44.26-289.41,21.69-448.41,124.84-191.08,123.95-236.08,345.25-433.39,461.78-187.24,110.59-477.23,148.77-967.28-56.28"/>
      <path class="cls-1" d="M1940.6,379.88c-120.35,2.96-286.94,27.68-445.93,131.56-189.89,124.06-238.99,342.59-436.85,458.04-189.8,110.75-480.94,148.95-967.43-53.05"/>
      <path class="cls-1" d="M1945.63,393.29c-119.26,5.66-284.47,33.67-443.45,138.28-188.71,124.16-241.91,339.91-440.32,454.3-192.37,110.91-484.65,149.12-967.58-49.82"/>
      <path class="cls-1" d="M1950.67,406.7c-118.17,8.36-282,39.66-440.97,145-187.53,124.26-244.83,337.23-443.79,450.56-194.95,111.05-488.36,149.3-967.73-46.59"/>
      <path class="cls-1" d="M1955.71,420.11c-117.08,11.06-279.54,45.64-438.49,151.72-186.35,124.36-247.75,334.53-447.26,446.83-197.53,111.18-492.07,149.47-967.88-43.36"/>
      <path class="cls-1" d="M1960.75,433.51c-115.99,13.76-277.08,51.62-436.01,158.44-185.17,124.45-250.69,331.83-450.72,443.09-200.11,111.31-495.78,149.64-968.03-40.14"/>
      <path class="cls-1" d="M1965.78,446.92c-114.9,16.46-274.62,57.6-433.53,165.16-184,124.54-253.62,329.11-454.19,439.35-202.71,111.42-499.49,149.82-968.18-36.91"/>
      <path class="cls-1" d="M1970.82,460.33c-113.81,19.16-272.16,63.57-431.05,171.88-182.82,124.62-256.57,326.38-457.66,435.61s-503.2,149.99-968.33-33.68"/>
      <path class="cls-1" d="M1975.86,473.74c-112.72,21.86-269.7,69.54-428.57,178.6-181.66,124.7-259.51,323.65-461.13,431.88-207.91,111.61-506.91,150.17-968.48-30.45"/>
      <path class="cls-1" d="M1980.9,487.15c-111.63,24.56-267.25,75.5-426.09,185.31-180.49,124.78-262.46,320.9-464.59,428.14-210.52,111.69-510.62,150.34-968.63-27.22"/>
      <path class="cls-1" d="M1985.94,500.56c-110.54,27.26-264.8,81.47-423.61,192.03-179.32,124.85-265.42,318.15-468.06,424.4-213.13,111.75-514.32,150.51-968.78-23.99"/>
      <path class="cls-1" d="M1990.97,513.97c-109.45,29.96-262.35,87.43-421.13,198.75-178.16,124.92-268.38,315.38-471.53,420.66-215.75,111.81-518.03,150.69-968.93-20.76"/>
      <path class="cls-1" d="M1996.01,527.38c-108.36,32.66-259.91,93.38-418.64,205.47-177,124.99-271.34,312.61-475,416.93-218.37,111.86-521.74,150.86-969.08-17.53"/>
      <path class="cls-1" d="M2001.05,540.79c-107.27,35.36-257.46,99.34-416.16,212.19-175.85,125.05-274.31,309.83-478.46,413.19-221,111.89-525.45,151.04-969.23-14.3"/>
      <path class="cls-1" d="M2006.09,554.2c-106.18,38.06-255.02,105.29-413.68,218.91-174.7,125.11-277.28,307.04-481.93,409.45-223.63,111.91-529.16,151.21-969.38-11.07"/>
      <path class="cls-1" d="M2011.12,567.61c-105.09,40.76-252.58,111.23-411.2,225.63-173.54,125.17-280.25,304.24-485.4,405.71-226.27,111.92-532.87,151.38-969.52-7.84"/>
      <path class="cls-1" d="M2016.16,581.02c-104,43.46-250.15,117.18-408.72,232.35-172.4,125.22-283.22,301.43-488.87,401.98-228.91,111.92-536.58,151.56-969.67-4.61"/>
      <path class="cls-1" d="M2021.2,594.43c-102.91,46.16-247.72,123.12-406.24,239.07-171.25,125.27-286.2,298.61-492.34,398.24-231.55,111.91-540.29,151.73-969.82-1.38"/>
      <path class="cls-1" d="M2026.24,607.84c-101.82,48.86-245.29,129.05-403.76,245.79-170.11,125.31-289.18,295.79-495.8,394.5-234.2,111.89-544,151.9-969.97,1.85"/>
      <path class="cls-1" d="M2031.27,621.25c-100.73,51.56-242.86,134.98-401.28,252.51-168.97,125.35-292.16,292.96-499.27,390.76-236.85,111.85-547.71,152.08-970.12,5.08"/>
      <path class="cls-1" d="M2036.31,634.65c-99.64,54.26-240.44,140.91-398.8,259.23-167.83,125.39-295.14,290.12-502.74,387.03-239.51,111.8-551.42,152.25-970.27,8.31"/>
      <path class="cls-1" d="M2041.35,648.06c-98.55,56.95-238.02,146.84-396.32,265.95-166.7,125.43-298.13,287.27-506.21,383.29-242.17,111.75-555.13,152.43-970.42,11.53"/>
      <path class="cls-1" d="M2046.39,661.47c-97.46,59.65-235.6,152.76-393.84,272.67-165.57,125.46-301.12,284.42-509.67,379.55-244.83,111.68-558.84,152.6-970.57,14.76"/>
      <path class="cls-1" d="M2051.42,674.88c-96.37,62.35-233.18,158.68-391.36,279.39-164.44,125.49-304.1,281.56-513.14,375.81-247.5,111.59-562.55,152.77-970.72,17.99"/>
      <path class="cls-1" d="M2056.46,688.29c-95.28,65.05-230.77,164.59-388.88,286.11-163.31,125.52-307.09,278.69-516.61,372.08-250.17,111.5-566.26,152.95-970.87,21.22"/>
      <path class="cls-1" d="M2061.5,701.7c-94.19,67.75-228.37,170.5-386.4,292.83s-310.08,275.82-520.08,368.34c-252.84,111.4-569.97,153.12-971.02,24.45"/>
      <path class="cls-1" d="M2066.54,715.11c-93.1,70.45-225.96,176.41-383.92,299.55-161.07,125.57-313.07,272.94-523.54,364.6-255.52,111.28-573.68,153.3-971.17,27.68"/>
      <path class="cls-1" d="M2071.57,728.52c-92.01,73.15-223.56,182.32-381.44,306.27-159.95,125.59-316.06,270.05-527.01,360.86-258.2,111.15-577.39,153.47-971.32,30.91"/>
      <path class="cls-1" d="M2076.61,741.93c-90.92,75.85-221.16,188.22-378.95,312.99-158.84,125.6-319.05,267.16-530.48,357.13-260.88,111.01-581.1,153.64-971.47,34.14"/>
      <path class="cls-1" d="M2081.65,755.34c-89.83,78.55-218.77,194.11-376.47,319.71-157.73,125.62-322.04,264.26-533.95,353.39-263.56,110.86-584.8,153.82-971.62,37.37"/>
      <path class="cls-1" d="M2086.69,768.75c-88.74,81.25-216.38,200.01-373.99,326.43-156.62,125.63-325.04,261.35-537.41,349.65-266.25,110.7-588.51,153.99-971.77,40.6"/>
      <path class="cls-1" d="M2091.73,782.16c-87.65,83.95-214.21,205.63-371.51,333.15-155.73,125.37-328.03,258.44-540.88,345.91-268.94,110.52-592.22,154.17-971.92,43.83"/>
      <path class="cls-1" d="M2096.76,795.57c-86.56,86.65-211.76,211.6-369.03,339.87-154.56,125.46-331.02,255.52-544.35,342.18-271.63,110.34-595.93,154.34-972.06,47.06"/>
      <path class="cls-1" d="M2101.8,808.98c-85.47,89.35-209.31,217.57-366.55,346.59-153.39,125.55-334.11,252.36-547.82,338.44-274.45,109.84-599.64,154.51-972.21,50.29"/>
      <path class="cls-1" d="M2106.84,822.38c-271.7,296.41-938.49,1001.77-1887.72,741.52"/>
    </g>
  </g>
</svg>