<?xml version="1.0" encoding="UTF-8"?>
<svg id="Ebene_2" data-name="Ebene 2" xmlns="http://www.w3.org/2000/svg" viewBox="0 0 1728.25 1328.11">
  <defs>
    <style>
      .cls-1 {
        fill: none;
        stroke: #505078;
        stroke-miterlimit: 10;
        stroke-width: 3px;
      }
    </style>
  </defs>
  <g id="key_visual_01" data-name="key visual 01">
    <g>
      <path class="cls-1" d="M43.14,671.2c185.47,55.59,367.93,72.41,476.85-22.67,107.99-94.27,53.72-219.99,168.01-387.83C776.49,130.75,961.24-17.4,1164.83,3.48c212.23,21.77,402.39,222.83,451.26,495.99"/>
      <path class="cls-1" d="M42.45,674.2c188.89,61.94,372.34,79.47,481.99-14.74,107.71-93.13,55.37-217.83,168.8-383.98C781.61,146.25,964.61-.93,1167.03,19.37c211.53,21.1,401.1,220.79,450.88,491.18"/>
      <path class="cls-1" d="M41.76,677.21c192.32,68.28,377.04,86.87,487.13-6.82,107.72-91.67,57.03-215.66,169.6-380.14C786.74,161.76,967.98,15.54,1169.23,35.26c210.84,20.44,399.8,218.75,450.5,486.37"/>
      <path class="cls-1" d="M41.07,680.21c195.74,74.63,381.59,94.1,492.26,1.1,107.57-90.38,58.68-213.5,170.4-376.29,88.13-127.76,267.62-273.02,467.7-253.87,210.14,19.78,398.51,216.72,450.12,481.56"/>
      <path class="cls-1" d="M40.39,683.22c199.17,80.98,386.13,101.33,497.4,9.03s60.34-211.34,171.19-372.44c88.01-127.03,265.74-271.32,464.65-252.76,209.45,19.12,397.21,214.68,449.74,476.75"/>
      <path class="cls-1" d="M39.7,686.22c202.59,87.33,390.66,108.55,502.54,16.95,107.26-87.82,62-209.17,171.99-368.59,87.88-126.3,263.87-269.63,461.6-251.65,208.75,18.46,395.92,212.64,449.36,471.94"/>
      <path class="cls-1" d="M39.01,689.23c206.01,93.67,395.2,115.78,507.68,24.88,107.09-86.54,63.28-207.27,172.79-364.75,87.46-125.78,262-267.94,458.55-250.53,208.06,17.8,394.62,210.6,448.99,467.14"/>
      <path class="cls-1" d="M38.32,692.23c209.44,100.02,399.72,123,512.82,32.8,106.92-85.27,64.88-205.15,173.59-360.9,87.3-125.08,260.12-266.24,455.51-249.42,207.36,17.14,393.33,208.57,448.61,462.33"/>
      <path class="cls-1" d="M37.63,695.24c212.86,106.37,404.24,130.22,517.96,40.73,106.74-84,66.48-203.02,174.38-357.05,87.13-124.38,258.25-264.55,452.46-248.3,206.67,16.48,392.04,206.53,448.23,457.52"/>
      <path class="cls-1" d="M36.94,698.24c216.29,112.72,408.76,137.44,523.1,48.65,106.55-82.74,68.09-200.9,175.18-353.21,86.96-123.68,256.34-262.44,449.41-247.19,205.94,16.27,390.74,204.49,447.85,452.71"/>
      <path class="cls-1" d="M36.25,701.25c219.71,119.06,413.27,144.65,528.24,56.58,106.36-81.48,69.69-198.77,175.98-349.36,86.8-122.98,254.46-260.7,446.36-246.07,205.24,15.65,389.45,202.45,447.47,447.9"/>
      <path class="cls-1" d="M35.56,704.25c223.14,125.41,417.77,151.86,533.38,64.5,106.16-80.22,71.3-196.64,176.77-345.51,86.63-122.28,252.59-258.97,443.32-244.96,204.54,15.03,388.15,200.42,447.09,443.1"/>
      <path class="cls-1" d="M34.87,707.26c226.56,131.76,422.27,159.07,538.52,72.43,105.96-78.97,72.91-194.51,177.57-341.66,86.47-121.58,250.71-257.24,440.27-243.84,203.85,14.41,386.86,198.38,446.71,438.29"/>
      <path class="cls-1" d="M34.19,710.26c229.98,138.11,426.76,166.27,543.66,80.35,105.75-77.73,74.52-192.38,178.37-337.82,86.31-120.88,248.84-255.51,437.22-242.73,203.15,13.79,385.56,196.34,446.34,433.48"/>
      <path class="cls-1" d="M33.5,713.27c233.41,144.45,431.25,173.47,548.8,88.27,105.53-76.49,76.14-190.25,179.16-333.97,86.15-120.18,246.96-253.78,434.17-241.61,202.45,13.16,384.27,194.3,445.96,428.67"/>
      <path class="cls-1" d="M32.81,716.27c236.83,150.8,435.73,180.67,553.94,96.2,105.31-75.26,77.75-188.12,179.96-330.12,85.99-119.48,245.09-252.06,431.13-240.5,201.76,12.54,382.98,192.27,445.58,423.86"/>
      <path class="cls-1" d="M32.12,719.27c240.26,157.15,440.21,187.87,559.08,104.12,105.08-74.03,79.37-185.98,180.76-326.28,85.83-118.77,243.22-250.34,428.08-239.38,201.06,11.91,381.68,190.23,445.2,419.06"/>
      <path class="cls-1" d="M31.43,722.28c243.68,163.5,444.68,195.05,564.22,112.05,104.85-72.81,80.99-183.85,181.55-322.43,85.68-118.07,241.34-248.61,425.03-238.27,200.37,11.28,380.39,188.19,444.82,414.25"/>
      <path class="cls-1" d="M30.74,725.28c247.11,169.84,449.15,202.24,569.36,119.97,104.61-71.59,82.62-181.71,182.35-318.58,85.52-117.37,239.47-246.89,421.98-237.15,199.67,10.66,379.09,186.15,444.44,409.44"/>
      <path class="cls-1" d="M30.05,728.29c250.53,176.19,453.61,209.42,574.5,127.9,104.37-70.38,84.24-179.57,183.15-314.74,85.37-116.66,237.6-245.17,418.94-236.04,198.98,10.02,377.8,184.12,444.06,404.63"/>
      <path class="cls-1" d="M29.36,731.29c253.95,182.54,458.06,216.59,579.64,135.82,104.12-69.17,85.87-177.43,183.94-310.89,85.21-115.96,235.72-243.46,415.89-234.92,198.28,9.39,376.5,182.08,443.69,399.82"/>
      <path class="cls-1" d="M28.68,734.3c257.38,188.89,462.51,223.76,584.77,143.75,103.86-67.98,87.5-175.29,184.74-307.04,85.06-115.25,233.85-241.74,412.84-233.81,197.59,8.76,375.21,180.04,443.31,395.02"/>
      <path class="cls-1" d="M27.99,737.3c260.8,195.24,466.96,230.93,589.91,151.67,103.6-66.78,89.13-173.15,185.54-303.19,84.91-114.54,231.98-240.03,409.79-232.69,196.9,8.12,373.92,178,442.93,390.21"/>
      <path class="cls-1" d="M27.3,740.31c264.23,201.58,471.4,238.09,595.05,159.59,103.34-65.59,90.76-171.01,186.33-299.35,84.77-113.83,230.1-238.32,406.75-231.58,196.2,7.48,372.62,175.97,442.55,385.4"/>
      <path class="cls-1" d="M26.61,743.31c267.65,207.93,475.83,245.24,600.19,167.52,103.06-64.41,92.4-168.86,187.13-295.5,84.62-113.12,228.23-236.61,403.7-230.47,195.51,6.84,371.33,173.93,442.17,380.59"/>
      <path class="cls-1" d="M25.92,746.32c271.08,214.28,480.26,252.39,605.33,175.44,102.79-63.23,94.04-166.72,187.93-291.65,84.48-112.41,226.36-234.9,400.65-229.35,194.82,6.2,370.03,171.89,441.79,375.78"/>
      <path class="cls-1" d="M25.23,749.32c274.5,220.63,484.68,259.53,610.47,183.37,102.51-62.06,95.68-164.57,188.72-287.81,84.33-111.7,224.49-233.19,397.6-228.24,194.13,5.56,368.74,169.85,441.42,370.98"/>
      <path class="cls-1" d="M24.54,752.33c277.92,226.97,489.1,266.66,615.61,191.29,102.23-60.9,97.32-162.42,189.52-283.96,84.19-110.99,222.62-231.49,394.56-227.12,193.43,4.91,367.44,167.82,441.04,366.17"/>
      <path class="cls-1" d="M23.85,755.33c281.35,233.32,493.52,273.79,620.75,199.22,101.94-59.74,98.97-160.27,190.32-280.11,84.05-110.28,220.75-229.78,391.51-226.01,192.74,4.26,366.15,165.78,440.66,361.36"/>
      <path class="cls-1" d="M23.16,758.34c284.77,239.67,497.92,280.91,625.89,207.14,101.64-58.59,100.62-158.11,191.11-276.26,83.92-109.56,218.87-228.08,388.46-224.89,192.05,3.61,364.86,163.74,440.28,356.55"/>
      <path class="cls-1" d="M22.48,761.34c288.2,246.02,502.33,288.02,631.03,215.07,101.35-57.45,102.27-155.96,191.91-272.42,83.78-108.84,217-226.38,385.41-223.78,191.36,2.96,363.56,161.7,439.9,351.74"/>
      <path class="cls-1" d="M21.79,764.35c291.62,252.36,506.73,295.12,636.17,222.99,101.04-56.31,103.92-153.8,192.71-268.57,83.65-108.13,215.13-224.69,382.37-222.66,190.66,2.31,362.27,159.67,439.52,346.93"/>
      <path class="cls-1" d="M21.1,767.35c295.04,258.71,511.12,302.22,641.31,230.91,100.74-55.18,105.58-151.64,193.5-264.72,83.52-107.41,213.26-222.99,379.32-221.55,189.97,1.65,360.97,157.63,439.14,342.13"/>
      <path class="cls-1" d="M20.41,770.36c298.47,265.06,515.51,309.31,646.45,238.84,100.43-54.05,107.23-149.48,194.3-260.88,83.39-106.69,211.39-219.48,376.27-220.43,189.28-1.1,359.68,155.59,438.77,337.32"/>
      <path class="cls-1" d="M19.72,773.36c301.89,271.41,519.9,316.39,651.59,246.76,100.12-52.93,108.89-147.32,195.1-257.03,83.26-105.96,209.53-217.79,373.22-219.32,188.58-1.76,358.38,153.55,438.39,332.51"/>
      <path class="cls-1" d="M19.03,776.37c305.32,277.75,524.28,323.46,656.73,254.69,99.8-51.82,110.56-145.16,195.89-253.18,83.13-105.24,207.66-216.11,370.18-218.2,187.88-2.42,357.09,151.52,438.01,327.7"/>
      <path class="cls-1" d="M18.34,779.37c308.74,284.1,528.65,330.52,661.87,262.61,99.48-50.71,112.22-142.99,196.69-249.34,83.01-104.51,205.8-214.44,367.13-217.09,187.18-3.08,355.8,149.48,437.63,322.89"/>
      <path class="cls-1" d="M17.65,782.38c312.17,290.45,533.02,337.57,667.01,270.54,99.16-49.61,113.89-140.82,197.49-245.49,82.89-103.79,203.91-214.55,364.08-215.97,186.51-1.66,354.5,147.44,437.25,318.09"/>
      <path class="cls-1" d="M16.96,785.38c315.59,296.8,537.39,344.62,672.15,278.46,98.84-48.52,115.56-138.65,198.28-241.64,82.77-103.06,202.04-212.86,361.03-214.86,185.82-2.33,353.21,145.4,436.87,313.28"/>
      <path class="cls-1" d="M16.28,788.39c319.01,303.14,541.75,351.65,677.28,286.39,98.51-47.44,117.24-136.48,199.08-237.79,82.66-102.32,200.17-211.18,357.99-213.74,185.13-3,351.91,143.36,436.49,308.47"/>
      <path class="cls-1" d="M15.59,791.39c322.44,309.49,546.11,358.67,682.42,294.31,98.18-46.36,118.91-134.31,199.88-233.95,82.55-101.59,198.29-209.51,354.94-212.63,184.44-3.68,350.62,141.33,436.12,303.66"/>
      <path class="cls-1" d="M14.9,794.4c325.86,315.84,550.47,365.68,687.56,302.24,97.85-45.28,120.59-132.13,200.67-230.1,82.44-100.85,196.42-207.83,351.89-211.52,183.75-4.36,349.32,139.29,435.74,298.85"/>
      <path class="cls-1" d="M14.21,797.4c329.29,322.19,554.82,372.68,692.7,310.16,97.51-44.22,122.27-129.95,201.47-226.25,82.33-100.11,194.55-206.16,348.84-210.4,183.06-5.04,348.03,137.25,435.36,294.05"/>
      <path class="cls-1" d="M13.52,800.41c332.71,328.53,559.17,379.67,697.84,318.08,97.18-43.16,123.96-127.77,202.27-222.41,82.23-99.37,192.68-204.48,345.8-209.29,182.36-5.72,346.74,135.21,434.98,289.24"/>
      <path class="cls-1" d="M12.83,803.41c336.14,334.88,563.52,386.65,702.98,326.01,96.84-42.11,125.65-125.59,203.06-218.56,82.13-98.63,190.81-202.81,342.75-208.17,181.67-6.41,345.44,133.18,434.6,284.43"/>
      <path class="cls-1" d="M12.14,806.41c339.56,341.23,567.86,393.62,708.12,333.93,96.5-41.06,127.33-123.4,203.86-214.71,82.03-97.88,188.94-201.15,339.7-207.06,180.98-7.09,344.15,131.14,434.22,279.62"/>
      <path class="cls-1" d="M11.45,809.42c342.98,347.58,572.2,400.57,713.26,341.86,96.16-40.03,129.03-121.21,204.66-210.86,81.94-97.13,187.07-199.48,336.65-205.94,180.28-7.79,342.85,129.1,433.84,274.81"/>
      <path class="cls-1" d="M10.76,812.42c346.41,353.92,576.53,407.52,718.4,349.78,95.82-38.99,130.72-119.02,205.45-207.02,81.85-96.38,185.19-197.82,333.61-204.83,179.59-8.48,341.56,127.06,433.47,270.01"/>
      <path class="cls-1" d="M10.08,815.43c349.83,360.27,580.87,414.45,723.54,357.71,95.48-37.97,132.42-116.83,206.25-203.17,81.76-95.62,183.32-196.16,330.56-203.71,178.9-9.18,340.26,125.03,433.09,265.2"/>
      <path class="cls-1" d="M9.39,818.43c353.26,366.62,585.2,421.36,728.68,365.63,95.13-36.95,134.12-114.63,207.05-199.32,81.68-94.86,181.45-194.5,327.51-202.6,178.2-9.88,338.97,122.99,432.71,260.39"/>
      <path class="cls-1" d="M8.7,821.44c356.68,372.97,589.53,428.27,733.82,373.56,94.79-35.94,135.83-112.43,207.84-195.48,81.6-94.1,179.57-192.84,324.46-201.48,177.51-10.58,337.68,120.95,432.33,255.58"/>
      <path class="cls-1" d="M8.01,824.44c360.11,379.31,593.85,435.16,738.96,381.48,94.44-34.94,137.53-110.23,208.64-191.63,81.53-93.33,177.7-191.19,321.42-200.37,176.81-11.29,336.38,118.91,431.95,250.77"/>
      <path class="cls-1" d="M7.32,827.45c363.53,385.66,598.18,442.03,744.1,389.4,94.1-33.94,139.24-108.02,209.44-187.78,81.46-92.56,175.82-189.54,318.37-199.25,176.12-12,335.09,116.88,431.57,245.97"/>
      <path class="cls-1" d="M6.63,830.45c366.95,392.01,602.5,448.89,749.24,397.33,93.76-32.95,140.96-105.81,210.23-183.94,81.39-91.78,173.95-187.89,315.32-198.14,175.42-12.72,333.79,114.84,431.19,241.16"/>
      <path class="cls-1" d="M5.94,833.46c370.38,398.36,606.82,455.74,754.38,405.25,93.41-31.96,142.67-103.6,211.03-180.09,81.33-91,172.07-186.24,312.27-197.02,174.72-13.43,332.5,112.8,430.82,236.35"/>
      <path class="cls-1" d="M5.25,836.46c373.8,404.7,611.15,462.58,759.52,413.18,93.07-30.99,144.39-101.39,211.83-176.24,81.28-90.21,170.2-184.6,309.23-195.91,174.02-14.16,331.2,110.76,430.44,231.54"/>
      <path class="cls-1" d="M4.56,839.47c377.23,411.05,615.47,469.39,764.66,421.1,92.73-30.02,146.11-99.17,212.62-172.39,81.23-89.42,168.32-182.96,306.18-194.79,173.32-14.88,329.91,108.73,430.06,226.73"/>
      <path class="cls-1" d="M3.88,842.47c380.65,417.4,619.78,476.2,769.79,429.03,92.39-29.05,147.83-96.95,213.42-168.55,81.18-88.62,166.42-181.56,303.13-193.68,172.6-15.92,328.62,106.69,429.68,221.92"/>
      <path class="cls-1" d="M3.19,845.48c384.08,423.75,624.1,482.99,774.93,436.95,92.05-28.09,149.56-94.72,214.22-164.7,81.14-87.82,164.55-179.87,300.08-192.56,171.9-16.58,327.32,104.65,429.3,217.12"/>
      <path class="cls-1" d="M2.5,848.48c387.5,430.09,628.42,489.76,780.07,444.88,91.71-27.14,151.29-92.49,215.01-160.85,81.11-87,162.67-178.18,297.04-191.45,171.21-17.24,326.03,102.61,428.92,212.31"/>
      <path class="cls-1" d="M1.81,851.49c390.92,436.44,632.74,496.52,785.21,452.8,91.38-26.2,153.1-90.19,215.81-157.01,81.18-86.09,160.8-176.48,293.99-190.34,170.51-17.9,324.73,100.58,428.55,207.5"/>
      <path class="cls-1" d="M1.12,854.49c394.35,442.79,637.06,503.26,790.35,460.73,210.36-58.37,274.8-316.94,507.55-342.38,169.82-18.56,323.44,98.54,428.17,202.69"/>
    </g>
  </g>
</svg>