<?xml version="1.0" encoding="UTF-8"?>
<svg id="Ebene_2" data-name="Ebene 2" xmlns="http://www.w3.org/2000/svg" viewBox="0 0 2047.71 2157.06">
  <defs>
    <style>
      .cls-1 {
        fill: none;
        stroke: #1e0032;
        stroke-miterlimit: 10;
        stroke-width: 3px;
      }
    </style>
  </defs>
  <g id="key_visual_01" data-name="key visual 01">
    <g>
      <path class="cls-1" d="M1088.3,1483.12c-40.88,3.92-84.65-1.9-122.68-10.34-39.42-8.75-75.23-33.06-109.28-53.17-34.38-20.31-109.63-7.52-136.1-37.42-26.21-29.6-21.51-95.25-37.59-132.3-15.51-35.74-23.45-81.04-27.37-121.92-3.92-40.88-5.8-87.1,2.64-125.14,8.75-39.42,12.5-91.08,32.61-125.13,20.31-34.38,80.89-43.24,110.79-69.71,29.6-26.21,38.82-101.29,75.87-117.37,35.74-15.51,97.65,38.9,138.54,34.99,40.88-3.92,72.97,13.65,111,22.1,39.42,8.75,98.73-31.87,132.77-11.76,34.38,20.31,64.67,59.07,91.14,88.97,26.21,29.6,16.55,83.68,32.63,120.72,15.51,35.74,5.88,70.75,9.8,111.64,3.92,40.88-10.53,66.65-18.97,104.69-8.75,39.42-16.01,63.46-36.12,97.5-20.31,34.38,8.81,105.35-21.09,131.82-29.6,26.21-58.98,74.72-96.02,90.8-35.74,15.51-91.68-2.88-132.56,1.03Z"/>
      <path class="cls-1" d="M1361.42,822.64c26.49,30.81,17.68,85.51,33.66,123.88,15.43,37.09,5.04,73.04,8.48,115.04,3.42,42.06-9.98,69.55-19.25,108.56-9.58,40.39-18.25,65.21-39.45,99.93-21.39,35.04,6.34,107.3-24.82,134.08-30.81,26.49-62.19,72.36-100.55,88.34-37.09,15.43-94.07-.84-136.07,2.6-42.06,3.42-86.07-4.93-125.08-14.2-40.39-9.58-77.99-33.41-112.71-54.61-35.04-21.39-109.29-10.93-136.07-42.09-26.49-30.81-23.08-96.97-39.06-135.34-15.43-37.09-21.87-83.35-25.31-125.34-3.42-42.06-5.21-89.33,4.06-128.34,9.58-40.39,13.37-93.79,34.57-128.5,21.39-35.04,83.04-44.68,114.2-71.46,30.81-26.49,42.05-100.74,80.41-116.72,37.09-15.43,100.16,37.96,142.16,34.53,42.06-3.42,74.4,16.91,113.41,26.18,40.39,9.58,100.76-30.22,135.48-9.02,35.04,21.39,65.16,61.33,91.94,92.5Z"/>
      <path class="cls-1" d="M1372.21,820.37c26.78,32.01,18.8,87.34,34.68,127.03,15.34,38.43,4.21,75.32,7.16,118.43,2.93,43.25-9.43,72.45-19.52,112.43-10.41,41.35-20.49,66.96-42.78,102.36-22.46,35.7,3.87,109.26-28.55,136.35-32.01,26.78-65.4,70.01-105.08,85.89-38.43,15.34-96.47,1.2-139.58,4.16-43.25,2.93-87.49-7.96-127.48-18.05-41.35-10.41-80.74-33.76-116.14-56.05-35.7-22.46-108.95-14.33-136.03-46.76-26.78-32.01-24.64-98.7-40.52-138.38-15.34-38.43-20.29-85.66-23.25-128.77-2.93-43.25-4.61-91.56,5.48-131.54,10.41-41.35,14.24-96.49,36.53-131.88,22.46-35.7,85.18-46.12,117.6-73.2,32.01-26.78,45.27-100.19,84.96-116.07,38.43-15.34,102.67,37.02,145.79,34.07,43.25-2.93,75.83,20.17,115.81,30.26,41.35,10.41,102.79-28.58,138.19-6.28,35.7,22.46,65.65,63.6,92.73,96.02Z"/>
      <path class="cls-1" d="M1382.99,818.09c27.06,33.22,19.92,89.18,35.71,130.18,15.25,39.78,3.37,77.6,5.84,121.83,2.43,44.43-8.88,75.35-19.8,116.3-11.24,42.31-22.73,68.71-46.11,104.78-23.53,36.36,1.4,111.22-32.29,138.61-33.22,27.06-68.61,67.65-109.61,83.44-39.78,15.25-98.87,3.24-143.1,5.72-44.43,2.43-88.92-10.99-129.87-21.91-42.31-11.24-83.5-34.11-119.57-57.49-36.36-23.53-108.6-17.74-136-51.43-27.06-33.22-26.21-100.42-41.99-141.43-15.25-39.78-18.72-87.97-21.19-132.2-2.43-44.43-4.01-93.78,6.9-134.74,11.24-42.31,15.11-99.19,38.5-135.26,23.53-36.36,87.32-47.55,121.01-74.95,33.22-27.06,48.5-99.64,89.51-115.43,39.78-15.25,105.18,36.08,149.41,33.61,44.43-2.43,77.27,23.43,118.22,34.35,42.31,11.24,104.83-26.93,140.9-3.55,36.36,23.53,66.14,65.86,93.53,99.55Z"/>
      <path class="cls-1" d="M1393.78,815.82c27.35,34.43,21.05,91.01,36.74,133.34,15.16,41.12,2.53,79.89,4.53,125.23,1.94,45.61-8.33,78.25-20.07,120.17-12.07,43.28-24.97,70.46-49.44,107.21-24.61,37.01-1.07,113.17-36.02,140.87-34.43,27.35-71.81,65.29-114.14,80.98-41.12,15.16-101.27,5.28-146.61,7.28-45.61,1.94-90.34-14.02-132.27-25.76-43.28-12.07-86.25-34.46-123-58.93-37.01-24.61-108.26-21.14-135.96-56.09-27.35-34.43-27.77-102.14-43.46-144.47-15.16-41.12-17.14-90.28-19.14-135.62-1.94-45.61-3.42-96.01,8.32-137.94,12.07-43.28,15.99-101.89,40.46-138.64,24.61-37.01,89.46-48.99,124.41-76.69,34.43-27.35,51.72-99.09,94.05-114.78,41.12-15.16,107.69,35.14,153.04,33.15,45.61-1.94,78.7,26.69,120.63,38.43,43.28,12.07,106.86-25.28,143.61-.81,37.01,24.61,66.63,68.12,94.33,103.07Z"/>
      <path class="cls-1" d="M1404.57,813.54c27.63,35.63,22.17,92.84,37.77,136.49,15.08,42.47,1.69,82.17,3.21,128.63,1.44,46.79-7.78,81.15-20.35,124.04-12.9,44.24-27.21,72.21-52.77,109.63-25.68,37.67-3.53,115.13-39.75,143.14-35.63,27.63-75.02,62.94-118.67,78.53-42.47,15.08-103.66,7.33-150.12,8.85-46.79,1.44-91.76-17.05-134.66-29.62-44.24-12.9-89.01-34.8-126.43-60.37-37.67-25.68-107.92-24.55-135.93-60.76-27.63-35.63-29.33-103.86-44.93-147.51-15.08-42.47-15.56-92.59-17.08-139.05-1.44-46.79-2.82-98.24,9.75-141.14,12.9-44.24,16.86-104.59,42.43-142.02,25.68-37.67,91.6-50.43,127.82-78.44,35.63-27.63,54.95-98.54,98.6-114.13,42.47-15.08,110.2,34.2,156.66,32.69,46.79-1.44,80.13,29.95,123.03,42.51,44.24,12.9,108.89-23.64,146.32,1.93,37.67,25.68,67.12,70.38,95.12,106.6Z"/>
      <path class="cls-1" d="M1415.35,811.27c27.92,36.84,23.3,94.67,38.79,139.64,14.99,43.81.85,84.45,1.89,132.03.95,47.98-7.23,84.05-20.62,127.92-13.73,45.21-29.45,73.96-56.11,112.06-26.75,38.33-6,117.09-43.48,145.4-36.84,27.92-78.23,60.58-123.2,76.08-43.81,14.99-106.06,9.37-153.63,10.41-47.98.95-93.19-20.08-137.06-33.47-45.21-13.73-91.77-35.15-129.87-61.81-38.33-26.75-107.58-27.95-135.89-65.43-27.92-36.84-30.9-105.58-46.39-150.56-14.99-43.81-13.98-94.9-15.02-142.48-.95-47.98-2.23-100.47,11.17-144.34,13.73-45.21,17.73-107.29,44.39-145.39,26.75-38.33,93.74-51.87,131.22-80.19,36.84-27.92,58.17-97.99,103.15-113.48,43.81-14.99,112.71,33.27,160.29,32.23,47.98-.95,81.57,33.2,125.44,46.6,45.21,13.73,110.92-21.99,149.02,4.67,38.33,26.75,67.61,72.65,95.92,110.13Z"/>
      <path class="cls-1" d="M1426.14,808.99c28.2,38.04,24.42,96.5,39.82,142.8,14.9,45.16,0,86.74.57,135.42.46,49.16-6.68,86.95-20.9,131.79-14.55,46.17-31.69,75.71-59.44,114.49-27.83,38.99-8.47,119.04-47.22,147.67-38.04,28.2-81.44,58.23-127.73,73.62-45.16,14.9-108.46,11.41-157.14,11.97-49.16.46-94.61-23.11-139.45-37.33-46.17-14.55-94.52-35.5-133.3-63.25-38.99-27.83-107.24-31.36-135.86-70.1-28.2-38.04-32.46-107.31-47.86-153.6-14.9-45.16-12.4-97.21-12.96-145.9-.46-49.16-1.63-102.7,12.59-147.54,14.55-46.17,18.6-109.99,46.35-148.77,27.83-38.99,95.88-53.31,134.62-81.93,38.04-28.2,61.4-97.43,107.69-112.83,45.16-14.9,115.22,32.33,163.91,31.76,49.16-.46,83,36.46,127.84,50.68,46.17,14.55,112.96-20.35,151.73,7.4,38.99,27.83,68.1,74.91,96.72,113.65Z"/>
      <path class="cls-1" d="M1436.92,806.72c28.49,39.25,25.55,98.33,40.85,145.95,14.82,46.5-.83,89.02-.75,138.82-.04,50.34-6.13,89.85-21.17,135.66-15.38,47.13-33.92,77.46-62.77,116.91-28.9,39.64-10.94,121-50.95,149.93-39.25,28.49-84.65,55.87-132.26,71.17-46.5,14.82-110.85,13.45-160.66,13.53-50.34-.04-96.03-26.14-141.85-41.19-47.13-15.38-97.28-35.85-136.73-64.69-39.64-28.9-106.9-34.76-135.83-74.77-28.49-39.25-34.02-109.03-49.33-156.65-14.82-46.5-10.82-99.53-10.9-149.33.04-50.34-1.03-104.92,14.01-150.74,15.38-47.13,19.47-112.7,48.32-152.15,28.9-39.64,98.02-54.75,138.03-83.68,39.25-28.49,64.62-96.88,112.24-112.18,46.5-14.82,117.73,31.39,167.54,31.3,50.34.04,84.44,39.72,130.25,54.76,47.13,15.38,114.99-18.7,154.44,10.14,39.64,28.9,68.59,77.17,97.51,117.18Z"/>
      <path class="cls-1" d="M1447.71,804.44c28.77,40.45,26.67,100.17,41.88,149.1,14.73,47.85-1.67,91.3-2.07,142.22-.53,51.52-5.58,92.75-21.45,139.53-16.21,48.1-36.16,79.21-66.1,119.34-29.97,40.3-13.41,122.96-54.68,152.19-40.45,28.77-87.86,53.51-136.79,68.72-47.85,14.73-113.25,15.49-164.17,15.1-51.52-.53-97.46-29.18-144.24-45.04-48.1-16.21-100.03-36.2-140.16-66.13-40.3-29.97-106.55-38.17-135.79-79.44-28.77-40.45-35.59-110.75-50.79-159.69-14.73-47.85-9.24-101.84-8.85-152.75.53-51.52-.44-107.15,15.43-153.94,16.21-48.1,20.35-115.4,50.28-155.53,29.97-40.3,100.17-56.19,141.43-85.42,40.45-28.77,67.85-96.33,116.79-111.53,47.85-14.73,120.24,30.45,171.16,30.84,51.52.53,85.87,42.98,132.66,58.85,48.1,16.21,117.02-17.06,157.15,12.88,40.3,29.97,69.07,79.44,98.31,120.7Z"/>
      <path class="cls-1" d="M1458.49,802.17c29.05,41.66,27.8,102,42.9,152.26,14.64,49.19-2.51,93.58-3.39,145.62-1.03,52.71-5.03,95.64-21.72,143.4-17.04,49.06-38.4,80.96-69.43,121.77-31.05,40.96-15.88,124.91-58.41,154.46-41.66,29.05-91.06,51.16-141.32,66.26-49.19,14.64-115.65,17.54-167.68,16.66-52.71-1.03-98.88-32.21-146.64-48.9-49.06-17.04-102.79-36.55-143.59-67.57-40.96-31.05-106.21-41.57-135.76-84.1-29.05-41.66-37.15-112.47-52.26-162.73-14.64-49.19-7.66-104.15-6.79-156.18,1.03-52.71.16-109.38,16.85-157.14,17.04-49.06,21.22-118.1,52.24-158.9,31.05-40.96,102.31-57.62,144.84-87.17,41.66-29.05,71.07-95.78,121.33-110.89,49.19-14.64,122.75,29.51,174.79,30.38,52.71,1.03,87.3,46.24,135.06,62.93,49.06,17.04,119.06-15.41,159.86,15.62,40.96,31.05,69.56,81.7,99.11,124.23Z"/>
      <path class="cls-1" d="M1469.28,799.89c29.34,42.86,28.92,103.83,43.93,155.41,14.56,50.54-3.35,95.87-4.7,149.02-1.52,53.89-4.48,98.54-22,147.27-17.87,50.03-40.64,82.71-72.76,124.19-32.12,41.61-18.35,126.87-62.14,156.72-42.86,29.34-94.27,48.8-145.85,63.81-50.54,14.56-118.05,19.58-171.19,18.22-53.89-1.52-100.3-35.24-149.03-52.75-50.03-17.87-105.54-36.9-147.02-69.01-41.61-32.12-105.87-44.98-135.72-88.77-29.34-42.86-38.72-114.19-53.73-165.78-14.56-50.54-6.09-106.46-4.73-159.61,1.52-53.89.76-111.61,18.27-160.34,17.87-50.03,22.09-120.8,54.21-162.28,32.12-41.61,104.45-59.06,148.24-88.91,42.86-29.34,74.3-95.23,125.88-110.24,50.54-14.56,125.26,28.57,178.41,29.92,53.89,1.52,88.74,49.5,137.47,67.01,50.03,17.87,121.09-13.76,162.57,18.35,41.61,32.12,70.05,83.96,99.9,127.76Z"/>
      <path class="cls-1" d="M1480.06,797.62c29.62,44.07,30.04,105.66,44.96,158.57,14.47,51.88-4.19,98.15-6.02,152.41-2.02,55.07-3.93,101.44-22.27,151.15-18.7,50.99-42.88,84.46-76.09,126.62-33.19,42.27-20.82,128.83-65.88,158.99-44.07,29.62-97.48,46.44-150.38,61.36-51.88,14.47-120.44,21.62-174.71,19.78-55.07-2.02-101.72-38.27-151.43-56.61-50.99-18.7-108.3-37.25-150.45-70.45-42.27-33.19-105.53-48.38-135.69-93.44-29.62-44.07-40.28-115.92-55.19-168.82-14.47-51.88-4.51-108.77-2.67-163.03,2.02-55.07,1.35-113.83,19.69-163.54,18.7-50.99,22.96-123.5,56.17-165.66,33.19-42.27,106.59-60.5,151.65-90.66,44.07-29.62,77.52-94.68,130.43-109.59,51.88-14.47,127.77,27.63,182.04,29.46,55.07,2.02,90.17,52.76,139.87,71.1,50.99,18.7,123.12-12.12,165.28,21.09,42.27,33.19,70.54,86.23,100.7,131.28Z"/>
      <path class="cls-1" d="M1490.85,795.34c29.91,45.27,31.17,107.49,45.98,161.72,14.38,53.23-5.03,100.43-7.34,155.81-2.51,56.25-3.38,104.34-22.55,155.02-19.53,51.95-45.12,86.21-79.42,129.05-34.27,42.93-23.29,130.78-69.61,161.25-45.27,29.91-100.69,44.09-154.91,58.9-53.23,14.38-122.84,23.66-178.22,21.34-56.25-2.51-103.15-41.3-153.82-60.46-51.95-19.53-111.05-37.59-153.89-71.89-42.93-34.27-105.19-51.79-135.65-98.11-29.91-45.27-41.84-117.64-56.66-171.86-14.38-53.23-2.93-111.08-.61-166.46,2.51-56.25,1.95-116.06,21.12-166.74,19.53-51.95,23.84-126.2,58.13-169.04,34.27-42.93,108.73-61.94,155.05-92.4,45.27-29.91,80.75-94.12,134.97-108.94,53.23-14.38,130.28,26.69,185.66,29,56.25,2.51,91.6,56.01,142.28,75.18,51.95,19.53,125.16-10.47,167.99,23.83,42.93,34.27,71.03,88.49,101.5,134.81Z"/>
      <path class="cls-1" d="M1501.64,793.07c30.19,46.48,32.29,109.33,47.01,164.87,14.29,54.57-5.86,102.72-8.66,159.21-3.01,57.43-2.83,107.24-22.82,158.89-20.36,52.92-47.36,87.96-82.75,131.47-35.34,43.59-25.76,132.74-73.34,163.51-46.48,30.19-103.9,41.73-159.44,56.45-54.57,14.29-125.24,25.7-181.73,22.91-57.43-3.01-104.57-44.33-156.22-64.32-52.92-20.36-113.81-37.94-157.32-73.33-43.59-35.34-104.85-55.19-135.62-102.78-30.19-46.48-43.41-119.36-58.13-174.91-14.29-54.57-1.35-113.39,1.45-169.89,3.01-57.43,2.55-118.29,22.54-169.94,20.36-52.92,24.71-128.9,60.1-172.41,35.34-43.59,110.87-63.38,158.45-94.15,46.48-30.19,83.97-93.57,139.52-108.29,54.57-14.29,132.79,25.75,189.29,28.54,57.43,3.01,93.04,59.27,144.68,79.26,52.92,20.36,127.19-8.83,170.7,26.56,43.59,35.34,71.52,90.75,102.29,138.33Z"/>
      <path class="cls-1" d="M1512.42,790.79c30.48,47.68,33.42,111.16,48.04,168.03,14.21,55.92-6.7,105-9.98,162.61-3.5,58.62-2.28,110.14-23.1,162.76-21.19,53.88-49.6,89.71-86.08,133.9-36.41,44.24-28.23,134.7-77.07,165.78-47.68,30.48-107.11,39.38-163.97,54-55.92,14.21-127.64,27.75-185.24,24.47-58.62-3.5-105.99-47.36-158.61-68.18-53.88-21.19-116.56-38.29-160.75-74.77-44.24-36.41-104.5-58.6-135.58-107.45-30.48-47.68-44.97-121.08-59.59-177.95-14.21-55.92.23-115.7,3.5-173.31,3.5-58.62,3.14-120.52,23.96-173.14,21.19-53.88,25.58-131.61,62.06-175.79,36.41-44.24,113.01-64.82,161.86-95.9,47.68-30.48,87.2-93.02,144.07-107.64,55.92-14.21,135.3,24.81,192.91,28.08,58.62,3.5,94.47,62.53,147.09,83.35,53.88,21.19,129.22-7.18,173.41,29.3,44.24,36.41,72.01,93.01,103.09,141.86Z"/>
      <path class="cls-1" d="M1523.21,788.52c30.76,48.89,34.54,112.99,49.07,171.18,14.12,57.26-7.54,107.28-11.3,166.01-3.99,59.8-1.73,113.04-23.37,166.63-22.02,54.85-51.84,91.46-89.41,136.33-37.49,44.9-30.7,136.65-80.81,168.04-48.89,30.76-110.31,37.02-168.5,51.54-57.26,14.12-130.03,29.79-188.76,26.03-59.8-3.99-107.42-50.39-161.01-72.03-54.85-22.02-119.32-38.64-164.18-76.21-44.9-37.49-104.16-62.01-135.55-112.11-30.76-48.89-46.53-122.8-61.06-180.99-14.12-57.26,1.81-118.01,5.56-176.74,3.99-59.8,3.74-122.75,25.38-176.34,22.02-54.85,26.45-134.31,64.03-179.17,37.49-44.9,115.15-66.26,165.26-97.64,48.89-30.76,90.42-92.47,148.61-106.99,57.26-14.12,137.81,23.87,196.54,27.62,59.8,3.99,95.91,65.79,149.5,87.43,54.85,22.02,131.25-5.53,176.12,32.04,44.9,37.49,72.5,95.28,103.89,145.39Z"/>
      <path class="cls-1" d="M1533.99,786.24c31.05,50.09,35.67,114.82,50.09,174.33,14.03,58.6-8.38,109.57-12.62,169.4-4.49,60.98-1.18,115.94-23.65,170.5-22.84,55.81-54.08,93.21-92.74,138.75-38.56,45.56-33.17,138.61-84.54,170.3-50.09,31.05-113.52,34.66-173.03,49.09-58.6,14.03-132.43,31.83-192.27,27.59-60.98-4.49-108.84-53.42-163.4-75.89-55.81-22.84-122.07-38.99-167.61-77.65-45.56-38.56-103.82-65.41-135.52-116.78-31.05-50.09-48.1-124.53-62.53-184.04-14.03-58.6,3.39-120.33,7.62-180.16,4.49-60.98,4.34-124.97,26.8-179.54,22.84-55.81,27.33-137.01,65.99-182.55,38.56-45.56,117.29-67.69,168.67-99.39,50.09-31.05,93.65-91.92,153.16-106.34,58.6-14.03,140.32,22.93,200.16,27.16,60.98,4.49,97.34,69.05,151.9,91.51,55.81,22.84,133.29-3.89,178.83,34.78,45.56,38.56,72.99,97.54,104.68,148.91Z"/>
      <path class="cls-1" d="M1544.78,783.97c31.33,51.3,36.79,116.65,51.12,177.49,13.95,59.95-9.22,111.85-13.94,172.8-4.98,62.16-.63,118.84-23.92,174.38-23.67,56.77-56.32,94.96-96.07,141.18-39.63,46.22-35.64,140.57-88.27,172.57-51.3,31.33-116.73,32.31-177.56,46.64-59.95,13.95-134.83,33.87-195.78,29.16-62.16-4.98-110.26-56.45-165.8-79.74-56.77-23.67-124.83-39.34-171.04-79.09-46.22-39.63-103.48-68.82-135.48-121.45-31.33-51.3-49.66-126.25-63.99-187.08-13.95-59.95,4.96-122.64,9.68-183.59,4.98-62.16,4.93-127.2,28.22-182.74,23.67-56.77,28.2-139.71,67.95-185.92,39.63-46.22,119.44-69.13,172.07-101.13,51.3-31.33,96.87-91.37,157.71-105.7,59.95-13.95,142.83,21.99,203.79,26.7,62.16,4.98,98.77,72.31,154.31,95.6,56.77,23.67,135.32-2.24,181.53,37.51,46.22,39.63,73.48,99.8,105.48,152.44Z"/>
      <path class="cls-1" d="M1555.56,781.69c31.61,52.5,37.92,118.48,52.15,180.64,13.86,61.29-10.06,114.13-15.25,176.2-5.48,63.35-.08,121.74-24.2,178.25-24.5,57.74-58.56,96.71-99.4,143.6-40.71,46.87-38.11,142.52-92,174.83-52.5,31.61-119.94,29.95-182.1,44.18-61.29,13.86-137.23,35.91-199.29,30.72-63.35-5.48-111.69-59.48-168.19-83.6-57.74-24.5-127.58-39.69-174.47-80.53-46.87-40.71-103.14-72.22-135.45-126.12-31.61-52.5-51.23-127.97-65.46-190.13-13.86-61.29,6.54-124.95,11.74-187.02,5.48-63.35,5.53-129.43,29.64-185.94,24.5-57.74,29.07-142.41,69.92-189.3,40.71-46.87,121.58-70.57,175.47-102.88,52.5-31.61,100.1-90.81,162.25-105.05,61.29-13.86,145.34,21.05,207.41,26.24,63.35,5.48,100.21,75.57,156.71,99.68,57.74,24.5,137.35-.6,184.24,40.25,46.87,40.71,73.97,102.07,106.28,155.96Z"/>
      <path class="cls-1" d="M1566.35,779.42c31.9,53.71,39.04,120.32,53.18,183.79,13.77,62.64-10.9,116.41-16.57,179.6-5.97,64.53.47,124.64-24.47,182.12-25.33,58.7-60.8,98.46-102.74,146.03-41.78,47.53-40.58,144.48-95.74,177.1-53.71,31.9-123.15,27.59-186.63,41.73-62.64,13.77-139.62,37.95-202.81,32.28-64.53-5.97-113.11-62.52-170.59-87.45-58.7-25.33-130.34-40.04-177.91-81.97-47.53-41.78-102.8-75.63-135.41-130.79-31.9-53.71-52.79-129.69-66.93-193.17-13.77-62.64,8.12-127.26,13.8-190.44,5.97-64.53,6.13-131.66,31.07-189.14,25.33-58.7,29.94-145.11,71.88-192.68,41.78-47.53,123.72-72.01,178.88-104.62,53.71-31.9,103.32-90.26,166.8-104.4,62.64-13.77,147.85,20.11,211.04,25.78,64.53,5.97,101.64,78.82,159.12,103.76,58.7,25.33,139.39,1.05,186.95,42.99,47.53,41.78,74.46,104.33,107.07,159.49Z"/>
      <path class="cls-1" d="M1577.13,777.14c32.18,54.91,40.16,122.15,54.2,186.95,13.69,63.98-11.74,118.7-17.89,183-6.47,65.71,1.02,127.54-24.75,185.99-26.16,59.66-63.04,100.21-106.07,148.46-42.85,48.19-43.04,146.44-99.47,179.36-54.91,32.18-126.36,25.24-191.16,39.28-63.98,13.69-142.02,40-206.32,33.84-65.71-6.47-114.53-65.55-172.98-91.31-59.66-26.16-133.09-40.38-181.34-83.41-48.19-42.85-102.45-79.03-135.38-135.46-32.18-54.91-54.35-131.42-68.39-196.21-13.69-63.98,9.7-129.57,15.85-193.87,6.47-65.71,6.72-133.89,32.49-192.34,26.16-59.66,30.81-147.81,73.84-196.06,42.85-48.19,125.86-73.45,182.28-106.37,54.91-32.18,106.55-89.71,171.35-103.75,63.98-13.69,150.36,19.17,214.66,25.32,65.71,6.47,103.07,82.08,161.53,107.85,59.66,26.16,141.42,2.7,189.66,45.72,48.19,42.85,74.95,106.59,107.87,163.02Z"/>
      <path class="cls-1" d="M1587.92,774.87c32.47,56.12,41.29,123.98,55.23,190.1,13.6,65.33-12.58,120.98-19.21,186.39-6.96,66.89,1.57,130.44-25.02,189.86-26.99,60.63-65.28,101.96-109.4,150.88-43.93,48.85-45.51,148.39-103.2,181.62-56.12,32.47-129.57,22.88-195.69,36.82-65.33,13.6-144.42,42.04-209.83,35.41-66.89-6.96-115.96-68.58-175.38-95.17-60.63-26.99-135.85-40.73-184.77-84.85-48.85-43.93-102.11-82.44-135.34-140.12-32.47-56.12-55.92-133.14-69.86-199.26-13.6-65.33,11.28-131.88,17.91-197.3,6.96-66.89,7.32-136.11,33.91-195.54,26.99-60.63,31.69-150.52,75.81-199.44,43.93-48.85,128-74.89,185.69-108.12,56.12-32.47,109.77-89.16,175.89-103.1,65.33-13.6,152.87,18.23,218.29,24.86,66.89,6.96,104.51,85.34,163.93,111.93,60.63,26.99,143.45,4.34,192.37,48.46,48.85,43.93,75.44,108.86,108.67,166.54Z"/>
      <path class="cls-1" d="M1598.71,772.59c32.75,57.32,42.41,125.81,56.26,193.25,13.51,66.67-13.42,123.26-20.53,189.79-7.45,68.07,2.12,133.34-25.3,193.74-27.82,61.59-67.52,103.71-112.73,153.31-45,49.5-47.98,150.35-106.93,183.89-57.32,32.75-132.77,20.52-200.22,34.37-66.67,13.51-146.81,44.08-213.34,36.97-68.07-7.45-117.38-71.61-177.77-99.02-61.59-27.82-138.61-41.08-188.2-86.29-49.5-45-101.77-85.84-135.31-144.79-32.75-57.32-57.48-134.86-71.33-202.3-13.51-66.67,12.86-134.19,19.97-200.72,7.45-68.07,7.92-138.34,35.33-198.74,27.82-61.59,32.56-153.22,77.77-202.81,45-49.5,130.14-76.32,189.09-109.86,57.32-32.75,113-88.61,180.44-102.45,66.67-13.51,155.38,17.29,221.91,24.4,68.07,7.45,105.94,88.6,166.34,116.01,61.59,27.82,145.49,5.99,195.08,51.2,49.5,45,75.93,111.12,109.46,170.07Z"/>
      <path class="cls-1" d="M1609.49,770.32c33.04,58.53,43.54,127.64,57.29,196.41,13.42,68.02-14.26,125.55-21.85,193.19-7.95,69.26,2.67,136.24-25.57,197.61-28.65,62.56-69.76,105.46-116.06,155.74-46.07,50.16-50.45,152.31-110.66,186.15-58.53,33.04-135.98,18.17-204.75,31.92-68.02,13.42-149.21,46.12-216.86,38.53-69.26-7.95-118.8-74.64-180.17-102.88-62.56-28.65-141.36-41.43-191.63-87.73-50.16-46.07-101.43-89.25-135.27-149.46-33.04-58.53-59.05-136.58-72.79-205.34-13.42-68.02,14.44-136.5,22.03-204.15,7.95-69.26,8.51-140.57,36.75-201.94,28.65-62.56,33.43-155.92,79.73-206.19,46.07-50.16,132.28-77.76,192.5-111.61,58.53-33.04,116.22-88.06,184.99-101.8,68.02-13.42,157.89,16.35,225.54,23.94,69.26,7.95,107.38,91.86,168.74,120.1,62.56,28.65,147.52,7.63,197.79,53.94,50.16,46.07,76.42,113.38,110.26,173.59Z"/>
      <path class="cls-1" d="M1620.28,768.04c33.32,59.73,44.66,129.48,58.31,199.56,13.34,69.36-15.1,127.83-23.17,196.59-8.44,70.44,3.22,139.14-25.85,201.48-29.48,63.52-72,107.22-119.39,158.16-47.15,50.82-52.92,154.26-114.4,188.41-59.73,33.32-139.19,15.81-209.28,29.46-69.36,13.34-151.61,48.16-220.37,40.09-70.44-8.44-120.22-77.67-182.56-106.73-63.52-29.48-144.12-41.78-195.06-89.17-50.82-47.15-101.09-92.65-135.24-154.13-33.32-59.73-60.61-138.3-74.26-208.39-13.34-69.36,16.02-138.82,24.09-207.57,8.44-70.44,9.11-142.8,38.17-205.14,29.48-63.52,34.3-158.62,81.7-209.57,47.15-50.82,134.42-79.2,195.9-113.35,59.73-33.32,119.45-87.51,189.53-101.16,69.36-13.34,160.4,15.41,229.16,23.48,70.44,8.44,108.81,95.12,171.15,124.18,63.52,29.48,149.55,9.28,200.5,56.67,50.82,47.15,76.91,115.64,111.06,177.12Z"/>
      <path class="cls-1" d="M1631.06,765.77c33.61,60.94,45.79,131.31,59.34,202.71,13.25,70.71-15.93,130.11-24.49,199.99-8.94,71.62,3.77,142.04-26.12,205.35-30.31,64.48-74.23,108.97-122.72,160.59-48.22,51.48-55.39,156.22-118.13,190.68-60.94,33.61-142.4,13.46-213.81,27.01-70.71,13.25-154.01,50.21-223.88,41.66-71.62-8.94-121.65-80.7-184.96-110.59-64.48-30.31-146.87-42.13-198.5-90.61-51.48-48.22-100.75-96.06-135.2-158.8-33.61-60.94-62.17-140.03-75.73-211.43-13.25-70.71,17.59-141.13,26.15-211,8.94-71.62,9.71-145.03,39.59-208.34,30.31-64.48,35.18-161.32,83.66-212.95,48.22-51.48,136.57-80.64,199.3-115.1,60.94-33.61,122.67-86.95,194.08-100.51,70.71-13.25,162.91,14.47,232.79,23.02,71.62,8.94,110.24,98.38,173.56,128.26,64.48,30.31,151.58,10.93,203.21,59.41,51.48,48.22,77.39,117.91,111.85,180.65Z"/>
      <path class="cls-1" d="M1641.85,763.49c33.89,62.14,46.91,133.14,60.37,205.87,13.16,72.05-16.77,132.39-25.8,203.38-9.43,72.8,4.32,144.94-26.4,209.22-31.14,65.45-76.47,110.72-126.05,163.02-49.29,52.13-57.86,158.18-121.86,192.94-62.14,33.89-145.61,11.1-218.34,24.56-72.05,13.16-156.4,52.25-227.39,43.22-72.8-9.43-123.07-83.73-187.36-114.44-65.45-31.14-149.63-42.48-201.93-92.05-52.13-49.29-100.4-99.46-135.17-163.46-33.89-62.14-63.74-141.75-77.19-214.48-13.16-72.05,19.17-143.44,28.2-214.43,9.43-72.8,10.3-147.25,41.01-211.54,31.14-65.45,36.05-164.02,85.63-216.32,49.29-52.13,138.71-82.08,202.71-116.84,62.14-33.89,125.9-86.4,198.62-99.86,72.05-13.16,165.42,13.53,236.41,22.56,72.8,9.43,111.68,101.63,175.96,132.35,65.45,31.14,153.62,12.57,205.92,62.15,52.13,49.29,77.88,120.17,112.65,184.17Z"/>
      <path class="cls-1" d="M1652.63,761.22c34.17,63.35,48.04,134.97,61.39,209.02,13.08,73.4-17.61,134.68-27.12,206.78-9.93,73.99,4.87,147.84-26.67,213.09-31.96,66.41-78.71,112.47-129.38,165.44-50.37,52.79-60.33,160.13-125.59,195.21-63.35,34.17-148.82,8.74-222.87,22.1-73.4,13.08-158.8,54.29-230.91,44.78-73.99-9.93-124.49-86.76-189.75-118.3-66.41-31.96-152.38-42.83-205.36-93.49-52.79-50.37-100.06-102.87-135.14-168.13-34.17-63.35-65.3-143.47-78.66-217.52-13.08-73.4,20.75-145.75,30.26-217.85,9.93-73.99,10.9-149.48,42.44-214.74,31.96-66.41,36.92-166.72,87.59-219.7,50.37-52.79,140.85-83.52,206.11-118.59,63.35-34.17,129.12-85.85,203.17-99.21,73.4-13.08,167.93,12.59,240.04,22.1,73.99,9.93,113.11,104.89,178.37,136.43,66.41,31.96,155.65,14.22,208.63,64.89,52.79,50.37,78.37,122.43,113.45,187.7Z"/>
      <path class="cls-1" d="M1663.42,758.94c34.46,64.55,49.16,136.8,62.42,212.17,12.99,74.74-18.45,136.96-28.44,210.18-10.42,75.17,5.42,150.74-26.95,216.97-32.79,67.38-80.95,114.22-132.71,167.87-51.44,53.45-62.8,162.09-129.33,197.47-64.55,34.46-152.02,6.39-227.4,19.65-74.74,12.99-161.2,56.33-234.42,46.34-75.17-10.42-125.92-89.79-192.15-122.16-67.38-32.79-155.14-43.17-208.79-94.93-53.45-51.44-99.72-106.27-135.1-172.8-34.46-64.55-66.86-145.19-80.13-220.56-12.99-74.74,22.33-148.06,32.32-221.28,10.42-75.17,11.49-151.71,43.86-217.94,32.79-67.38,37.79-169.43,89.55-223.08,51.44-53.45,142.99-84.96,209.52-120.33,64.55-34.46,132.35-85.3,207.72-98.56,74.74-12.99,170.44,11.65,243.66,21.64,75.17,10.42,114.54,108.15,180.77,140.51,67.38,32.79,157.68,15.86,211.34,67.62,53.45,51.44,78.86,124.7,114.24,191.22Z"/>
      <path class="cls-1" d="M1674.2,756.67c34.74,65.76,50.28,138.63,63.45,215.33,12.9,76.09-19.29,139.24-29.76,213.58-10.92,76.35,5.97,153.64-27.22,220.84-33.62,68.34-83.19,115.97-136.04,170.29-52.51,54.11-65.27,164.05-133.06,199.73-65.76,34.74-155.23,4.03-231.93,17.2-76.09,12.9-163.6,58.37-237.93,47.91-76.35-10.92-127.34-92.82-194.54-126.01-68.34-33.62-157.89-43.52-212.22-96.37-54.11-52.51-99.38-109.68-135.07-177.47-34.74-65.76-68.43-146.91-81.59-223.61-12.9-76.09,23.91-150.37,34.38-224.71,10.92-76.35,12.09-153.94,45.28-221.14,33.62-68.34,38.67-172.13,91.52-226.46,52.51-54.11,145.13-86.39,212.92-122.08,65.76-34.74,135.57-84.75,212.26-97.91,76.09-12.9,172.95,10.71,247.29,21.18,76.35,10.92,115.98,111.41,183.18,144.6,68.34,33.62,159.72,17.51,214.04,70.36,54.11,52.51,79.35,126.96,115.04,194.75Z"/>
      <path class="cls-1" d="M1684.99,754.39c35.03,66.96,51.41,140.47,64.48,218.48,12.82,77.43-20.13,141.53-31.08,216.98-11.41,77.53,6.52,156.54-27.5,224.71-34.45,69.3-85.43,117.72-139.37,172.72-53.59,54.76-67.74,166-136.79,202-66.96,35.03-158.44,1.67-236.46,14.74-77.43,12.82-165.99,60.42-241.44,49.47-77.53-11.41-128.76-95.86-196.94-129.87-69.3-34.45-160.65-43.87-215.65-97.81-54.76-53.59-99.04-113.08-135.03-182.14-35.03-66.96-69.99-148.64-83.06-226.65-12.82-77.43,25.49-152.68,36.44-228.13,11.41-77.53,12.69-156.17,46.7-224.34,34.45-69.3,39.54-174.83,93.48-229.83,53.59-54.76,147.27-87.83,216.32-123.83,66.96-35.03,138.8-84.2,216.81-97.26,77.43-12.82,175.46,9.77,250.91,20.72,77.53,11.41,117.41,114.67,185.59,148.68,69.3,34.45,161.75,19.16,216.75,73.1,54.76,53.59,79.84,129.22,115.84,198.28Z"/>
      <path class="cls-1" d="M1695.78,752.12c35.31,68.17,52.53,142.3,65.5,221.63,12.73,78.78-20.97,143.81-32.4,220.37-11.9,78.72,7.07,159.44-27.77,228.58-35.28,70.27-87.67,119.47-142.7,175.15-54.66,55.42-70.21,167.96-140.52,204.26-68.17,35.31-161.65-.68-240.99,12.29-78.78,12.73-168.39,62.46-244.96,51.03-78.72-11.9-130.19-98.89-199.33-133.72-70.27-35.28-163.4-44.22-219.08-99.25-55.42-54.66-98.7-116.49-135-186.81-35.31-68.17-71.56-150.36-84.53-229.69-12.73-78.78,27.07-154.99,38.49-231.56,11.9-78.72,13.28-158.39,48.12-227.54,35.28-70.27,40.41-177.53,95.44-233.21,54.66-55.42,149.41-89.27,219.73-125.57,68.17-35.31,142.02-83.64,221.36-96.62,78.78-12.73,177.97,8.83,254.54,20.26,78.72,11.9,118.85,117.93,187.99,152.76,70.27,35.28,163.78,20.8,219.46,75.83,55.42,54.66,80.33,131.49,116.63,201.8Z"/>
      <path class="cls-1" d="M1706.56,749.84c35.6,69.37,53.66,144.13,66.53,224.79,12.64,80.12-21.81,146.09-33.72,223.77-12.4,79.9,7.62,162.33-28.05,232.45-36.11,71.23-89.91,121.22-146.04,177.57-55.73,56.08-72.68,169.92-144.26,206.52-69.37,35.6-164.86-3.04-245.52,9.84-80.12,12.64-170.79,64.5-248.47,52.59-79.9-12.4-131.61-101.92-201.73-137.58-71.23-36.11-166.16-44.57-222.52-100.69-56.08-55.73-98.35-119.9-134.96-191.47-35.6-69.37-73.12-152.08-85.99-232.74-12.64-80.12,28.65-157.31,40.55-234.98,12.4-79.9,13.88-160.62,49.54-230.74,36.11-71.23,41.28-180.23,97.41-236.59,55.73-56.08,151.55-90.71,223.13-127.32,69.37-35.6,145.25-83.09,225.9-95.97,80.12-12.64,180.48,7.89,258.16,19.8,79.9,12.4,120.28,121.19,190.4,156.85,71.23,36.11,165.81,22.45,222.17,78.57,56.08,55.73,80.82,133.75,117.43,205.33Z"/>
      <path class="cls-1" d="M1717.35,747.57c35.88,70.58,54.78,145.96,67.56,227.94,12.55,81.47-22.65,148.38-35.03,227.17-12.89,81.08,8.17,165.23-28.32,236.32-36.94,72.2-92.15,122.97-149.37,180-56.81,56.73-75.15,171.87-147.99,208.79-70.58,35.88-168.07-5.39-250.05,7.38-81.47,12.55-173.19,66.54-251.98,54.16-81.08-12.89-133.03-104.95-204.12-141.43-72.2-36.94-168.91-44.92-225.95-102.13-56.73-56.81-98.01-123.3-134.93-196.14-35.88-70.58-74.68-153.8-87.46-235.78-12.55-81.47,30.22-159.62,42.61-238.41,12.89-81.08,14.48-162.85,50.96-233.94,36.94-72.2,42.15-182.93,99.37-239.97,56.81-56.73,153.7-92.15,226.54-129.06,70.58-35.88,148.47-82.54,230.45-95.32,81.47-12.55,182.99,6.95,261.79,19.34,81.08,12.89,121.71,124.44,192.8,160.93,72.2,36.94,167.85,24.09,224.88,81.31,56.73,56.81,81.31,136.01,118.23,208.85Z"/>
      <path class="cls-1" d="M1728.13,745.29c36.17,71.78,55.91,147.79,68.59,231.09,12.47,82.81-23.49,150.66-36.35,230.57-13.39,82.26,8.72,168.13-28.6,240.2-37.77,73.16-94.39,124.72-152.7,182.43-57.88,57.39-77.62,173.83-151.72,211.05-71.78,36.17-171.27-7.75-254.58,4.93-82.81,12.47-175.58,68.58-255.49,55.72-82.26-13.39-134.45-107.98-206.52-145.29-73.16-37.77-171.67-45.27-229.38-103.57-57.39-57.88-97.67-126.71-134.89-200.81-36.17-71.78-76.25-155.52-88.93-238.82-12.47-82.81,31.8-161.93,44.67-241.84,13.39-82.26,15.07-165.08,52.39-237.14,37.77-73.16,43.03-185.64,101.33-243.34,57.88-57.39,155.84-93.59,229.94-130.81,71.78-36.17,151.7-81.99,235-94.67,82.81-12.47,185.5,6.01,265.41,18.88,82.26,13.39,123.15,127.7,195.21,165.01,73.16,37.77,169.88,25.74,227.59,84.05,57.39,57.88,81.8,138.27,119.02,212.38Z"/>
      <path class="cls-1" d="M1738.92,743.02c36.45,72.99,57.03,149.62,69.61,234.25,12.38,84.16-24.33,152.94-37.67,233.97-13.88,83.44,9.27,171.03-28.87,244.07-38.6,74.12-96.63,126.47-156.03,184.85-58.95,58.05-80.08,175.79-155.45,213.32-72.99,36.45-174.48-10.11-259.11,2.48-84.16,12.38-177.98,70.63-259,57.28-83.44-13.88-135.88-111.01-208.91-149.15-74.12-38.6-174.42-45.62-232.81-105.01-58.05-58.95-97.33-130.11-134.86-205.48-36.45-72.99-77.81-157.25-90.39-241.87-12.38-84.16,33.38-164.24,46.73-245.26,13.88-83.44,15.67-167.3,53.81-240.34,38.6-74.12,43.9-188.34,103.3-246.72,58.95-58.05,157.98-95.02,233.35-132.55,72.99-36.45,154.92-81.44,239.54-94.02,84.16-12.38,188.01,5.07,269.04,18.42,83.44,13.88,124.58,130.96,197.61,169.1,74.12,38.6,171.91,27.38,230.3,86.78,58.05,58.95,82.29,140.54,119.82,215.91Z"/>
      <path class="cls-1" d="M1749.7,740.74c36.73,74.19,58.16,151.46,70.64,237.4,12.29,85.5-25.17,155.22-38.99,237.36-14.38,84.63,9.82,173.93-29.15,247.94-39.43,75.09-98.87,128.22-159.36,187.28-60.03,58.71-82.55,177.74-159.18,215.58-74.19,36.73-177.69-12.46-263.64.02-85.5,12.29-180.38,72.67-262.52,58.84-84.63-14.38-137.3-114.04-211.31-153-75.09-39.43-177.18-45.96-236.24-106.45-58.71-60.03-96.99-133.52-134.83-210.15-36.73-74.19-79.37-158.97-91.86-244.91-12.29-85.5,34.96-166.55,48.79-248.69,14.38-84.63,16.27-169.53,55.23-243.54,39.43-75.09,44.77-191.04,105.26-250.1,60.03-58.71,160.12-96.46,236.75-134.3,74.19-36.73,158.15-80.89,244.09-93.37,85.5-12.29,190.52,4.13,272.66,17.96,84.63,14.38,126.01,134.22,200.02,173.18,75.09,39.43,173.95,29.03,233.01,89.52,58.71,60.03,82.78,142.8,120.62,219.43Z"/>
      <path class="cls-1" d="M1760.49,738.47c37.02,75.4,59.28,153.29,71.67,240.55,12.21,86.85-26,157.51-40.31,240.76-14.87,85.81,10.37,176.83-29.42,251.81-40.26,76.05-101.11,129.97-162.69,189.71-61.1,59.36-85.02,179.7-162.92,217.84-75.4,37.02-180.9-14.82-268.17-2.43-86.85,12.21-182.77,74.71-266.03,60.41-85.81-14.87-138.72-117.07-213.7-156.86-76.05-40.26-179.94-46.31-239.67-107.89-59.36-61.1-96.65-136.92-134.79-214.82-37.02-75.4-80.94-160.69-93.33-247.96-12.21-86.85,36.54-168.86,50.84-252.12,14.87-85.81,16.86-171.76,56.65-246.74,40.26-76.05,45.64-193.74,107.22-253.48,61.1-59.36,162.26-97.9,240.15-136.05,75.4-37.02,161.37-80.34,248.64-92.72,86.85-12.21,193.03,3.19,276.29,17.49,85.81,14.87,127.45,137.48,202.43,177.26,76.05,40.26,175.98,30.68,235.72,92.26,59.36,61.1,83.27,145.06,121.41,222.96Z"/>
      <path class="cls-1" d="M1771.28,736.19c37.3,76.6,60.4,155.12,72.7,243.71,12.12,88.19-26.84,159.79-41.63,244.16-15.37,86.99,10.92,179.73-29.7,255.68-41.08,77.02-103.35,131.72-166.02,192.13-62.17,60.02-87.49,181.66-166.65,220.11-76.6,37.3-184.11-17.18-272.7-4.88-88.19,12.12-185.17,76.75-269.54,61.97-86.99-15.37-140.15-120.1-216.1-160.71-77.02-41.08-182.69-46.66-243.11-109.33-60.02-62.17-96.3-140.33-134.76-219.48-37.3-76.6-82.5-162.41-94.79-251-12.12-88.19,38.12-171.17,52.9-255.54,15.37-86.99,17.46-173.99,58.07-249.94,41.08-77.02,46.52-196.44,109.19-256.86,62.17-60.02,164.4-99.34,243.56-137.79,76.6-37.3,164.6-79.78,253.18-92.07,88.19-12.12,195.54,2.25,279.91,17.03,86.99,15.37,128.88,140.74,204.83,181.35,77.02,41.08,178.01,32.32,238.43,95,60.02,62.17,83.76,147.33,122.21,226.48Z"/>
      <path class="cls-1" d="M1782.06,733.92c37.59,77.81,61.53,156.95,73.72,246.86,12.03,89.54-27.68,162.07-42.95,247.56-15.86,88.17,11.47,182.63-29.97,259.55-41.91,77.98-105.59,133.47-169.35,194.56-63.25,60.68-89.96,183.61-170.38,222.37-77.81,37.59-187.32-19.53-277.23-7.34-89.54,12.03-187.57,78.79-273.05,63.53-88.17-15.86-141.57-123.13-218.49-164.57-77.98-41.91-185.45-47.01-246.54-110.78-60.68-63.25-95.96-143.73-134.72-224.15-37.59-77.81-84.07-164.13-96.26-254.04-12.03-89.54,39.7-173.48,54.96-258.97,15.86-88.17,18.06-176.22,59.49-253.14,41.91-77.98,47.39-199.14,111.15-260.23,63.25-60.68,166.54-100.78,246.96-139.54,77.81-37.59,167.82-79.23,257.73-91.43,89.54-12.03,198.05,1.31,283.54,16.57,88.17,15.86,130.32,144,207.24,185.43,77.98,41.91,180.05,33.97,241.14,97.73,60.68,63.25,84.25,149.59,123.01,230.01Z"/>
      <path class="cls-1" d="M1792.85,731.64c37.87,79.01,62.65,158.78,74.75,250.01,11.95,90.88-28.52,164.36-44.27,250.96-16.35,89.36,12.01,185.53-30.25,263.43-42.74,78.94-107.83,135.22-172.68,196.99-64.32,61.34-92.43,185.57-174.11,224.64-79.01,37.87-190.52-21.89-281.76-9.79-90.88,11.95-189.97,80.84-276.57,65.09-89.36-16.35-142.99-126.16-220.89-168.42-78.94-42.74-188.2-47.36-249.97-112.22-61.34-64.32-95.62-147.14-134.69-228.82-37.87-79.01-85.63-165.86-97.73-257.09-11.95-90.88,41.28-175.79,57.02-262.4,16.35-89.36,18.65-178.44,60.91-256.34,42.74-78.94,48.26-201.84,113.12-263.61,64.32-61.34,168.68-102.22,250.37-141.28,79.01-37.87,171.05-78.68,262.28-90.78,90.88-11.95,200.56.37,287.16,16.11,89.36,16.35,131.75,147.25,209.64,189.51,78.94,42.74,182.08,35.61,243.85,100.47,61.34,64.32,84.74,151.85,123.8,233.54Z"/>
      <path class="cls-1" d="M1803.63,729.37c38.16,80.22,63.78,160.62,75.78,253.17,11.86,92.23-29.36,166.64-45.58,254.35-16.85,90.54,12.56,188.43-30.52,267.3-43.57,79.91-110.07,136.97-176.01,199.41-65.39,61.99-94.9,187.53-177.85,226.9-80.22,38.16-193.73-24.24-286.29-12.24-92.23,11.86-192.36,82.88-280.08,66.66-90.54-16.85-144.42-129.2-223.28-172.28-79.91-43.57-190.96-47.71-253.4-113.66-61.99-65.39-95.28-150.54-134.65-233.49-38.16-80.22-87.19-167.58-99.19-260.13-11.86-92.23,42.85-178.11,59.08-265.82,16.85-90.54,19.25-180.67,62.33-259.54,43.57-79.91,49.13-204.55,115.08-266.99,65.39-61.99,170.83-103.66,253.77-143.03,80.22-38.16,174.27-78.13,266.82-90.13,92.23-11.86,203.07-.57,290.79,15.65,90.54,16.85,133.18,150.51,212.05,193.6,79.91,43.57,184.11,37.26,246.55,103.21,61.99,65.39,85.23,154.12,124.6,237.06Z"/>
      <path class="cls-1" d="M1814.42,727.09c38.44,81.42,64.9,162.45,76.81,256.32,11.77,93.57-30.2,168.92-46.9,257.75-17.34,91.72,13.11,191.33-30.79,271.17-44.4,80.87-112.3,138.72-179.34,201.84-66.47,62.65-97.37,189.48-181.58,229.16-81.42,38.44-196.94-26.6-290.82-14.7-93.57,11.77-194.76,84.92-283.59,68.22-91.72-17.34-145.84-132.23-225.68-176.14-80.87-44.4-193.71-48.06-256.83-115.1-62.65-66.47-94.94-153.95-134.62-238.16-38.44-81.42-88.76-169.3-100.66-263.17-11.77-93.57,44.43-180.42,61.14-269.25,17.34-91.72,19.85-182.9,63.76-262.74,44.4-80.87,50.01-207.25,117.04-270.37,66.47-62.65,172.97-105.09,257.18-144.77,81.42-38.44,177.5-77.58,271.37-89.48,93.57-11.77,205.58-1.51,294.41,15.19,91.72,17.34,134.62,153.77,214.46,197.68,80.87,44.4,186.14,38.91,249.26,105.94,62.65,66.47,85.71,156.38,125.4,240.59Z"/>
      <path class="cls-1" d="M1825.2,724.82c38.73,82.63,66.03,164.28,77.83,259.48,11.68,94.92-31.04,171.21-48.22,261.15-17.84,92.9,13.66,194.23-31.07,275.04-45.23,81.83-114.54,140.47-182.67,204.26-67.54,63.31-99.84,191.44-185.31,231.43-82.63,38.73-200.15-28.96-295.35-17.15-94.92,11.68-197.16,86.96-287.1,69.78-92.9-17.84-147.26-135.26-228.07-179.99-81.83-45.23-196.47-48.41-260.26-116.54-63.31-67.54-94.6-157.35-134.58-242.83-38.73-82.63-90.32-171.02-102.13-266.22-11.68-94.92,46.01-182.73,63.19-272.67,17.84-92.9,20.44-185.13,65.18-265.94,45.23-81.83,50.88-209.95,119.01-273.74,67.54-63.31,175.11-106.53,260.58-146.52,82.63-38.73,180.72-77.03,275.92-88.83,94.92-11.68,208.09-2.45,298.04,14.73,92.9,17.84,136.05,157.03,216.86,201.76,81.83,45.23,188.18,40.55,251.97,108.68,63.31,67.54,86.2,158.64,126.19,244.11Z"/>
      <path class="cls-1" d="M1835.99,722.54c39.01,83.84,67.15,166.11,78.86,262.63,11.6,96.26-31.88,173.49-49.54,264.55-18.33,94.09,14.21,197.13-31.34,278.91-46.06,82.8-116.78,142.22-186,206.69-68.61,63.97-102.31,193.4-189.04,233.69-83.84,39.01-203.36-31.31-299.88-19.6-96.26,11.6-199.56,89-290.62,71.34-94.09-18.33-148.69-138.29-230.47-183.85-82.8-46.06-199.22-48.75-263.69-117.98-63.97-68.61-94.25-160.76-134.55-247.49-39.01-83.84-91.89-172.74-103.59-269.26-11.6-96.26,47.59-185.04,65.25-276.1,18.33-94.09,21.04-187.36,66.6-269.14,46.06-82.8,51.75-212.65,120.97-277.12,68.61-63.97,177.25-107.97,263.98-148.27,83.84-39.01,183.95-76.47,280.46-88.18,96.26-11.6,210.6-3.39,301.67,14.27,94.09,18.33,137.48,160.29,219.27,205.85,82.8,46.06,190.21,42.2,254.68,111.42,63.97,68.61,86.69,160.9,126.99,247.64Z"/>
      <path class="cls-1" d="M1846.77,720.27c39.29,85.04,68.28,167.94,79.89,265.78,11.51,97.61-32.72,175.77-50.86,267.95-18.83,95.27,14.76,200.03-31.62,282.78-46.89,83.76-119.02,143.97-189.33,209.12-69.69,64.62-104.78,195.35-192.78,235.95-85.04,39.29-206.57-33.67-304.41-22.06-97.61,11.51-201.95,91.05-294.13,72.9-95.27-18.83-150.11-141.32-232.86-187.7-83.76-46.89-201.98-49.1-267.13-119.42-64.62-69.69-93.91-164.16-134.51-252.16-39.29-85.04-93.45-174.47-105.06-272.3-11.51-97.61,49.17-187.35,67.31-279.53,18.83-95.27,21.64-189.58,68.02-272.34,46.89-83.76,52.62-215.35,122.93-280.5,69.69-64.62,179.39-109.41,267.39-150.01,85.04-39.29,187.17-75.92,285.01-87.53,97.61-11.51,213.11-4.33,305.29,13.81,95.27,18.83,138.92,163.55,221.67,209.93,83.76,46.89,192.24,43.84,257.39,114.16,64.62,69.69,87.18,163.17,127.78,251.17Z"/>
      <path class="cls-1" d="M1857.56,717.99c39.58,86.25,69.4,169.77,80.91,268.94,11.42,98.95-33.56,178.05-52.18,271.34-19.32,96.45,15.31,202.93-31.89,286.66-47.72,84.73-121.26,145.72-192.67,211.54-70.76,65.28-107.25,197.31-196.51,238.22-86.25,39.58-209.78-36.03-308.94-24.51-98.95,11.42-204.35,93.09-297.64,74.47-96.45-19.32-151.53-144.35-235.26-191.56-84.73-47.72-204.73-49.45-270.56-120.86-65.28-70.76-93.57-167.57-134.48-256.83-39.58-86.25-95.01-176.19-106.53-275.35-11.42-98.95,50.75-189.66,69.37-282.95,19.32-96.45,22.23-191.81,69.44-275.54,47.72-84.73,53.49-218.05,124.9-283.88,70.76-65.28,181.53-110.85,270.79-151.76,86.25-39.58,190.4-75.37,289.56-86.89,98.95-11.42,215.62-5.27,308.92,13.35,96.45,19.32,140.35,166.81,224.08,214.01,84.73,47.72,194.28,45.49,260.1,116.89,65.28,70.76,87.67,165.43,128.58,254.69Z"/>
      <path class="cls-1" d="M1868.35,715.72c39.86,87.45,70.52,171.61,81.94,272.09,11.34,100.3-34.4,180.34-53.5,274.74-19.82,97.63,15.86,205.83-32.17,290.53-48.55,85.69-123.5,147.47-196,213.97-71.83,65.94-109.72,199.27-200.24,240.48-87.45,39.86-212.98-38.38-313.47-26.97-100.3,11.34-206.75,95.13-301.15,76.03-97.63-19.82-152.95-147.38-237.65-195.41-85.69-48.55-207.49-49.8-273.99-122.3-65.94-71.83-93.23-170.97-134.45-261.5-39.86-87.45-96.58-177.91-107.99-278.39-11.34-100.3,52.33-191.97,71.43-286.38,19.82-97.63,22.83-194.04,70.86-278.74,48.55-85.69,54.37-220.75,126.86-287.25,71.83-65.94,183.67-112.29,274.2-153.5,87.45-39.86,193.62-74.82,294.1-86.24,100.3-11.34,218.13-6.21,312.54,12.89,97.63,19.82,141.79,170.06,226.49,218.1,85.69,48.55,196.31,47.14,262.81,119.63,65.94,71.83,88.16,167.69,129.38,258.22Z"/>
      <path class="cls-1" d="M1879.13,713.44c40.15,88.66,71.65,173.44,82.97,275.24,11.25,101.64-35.24,182.62-54.81,278.14-20.31,98.81,16.41,208.73-32.44,294.4-49.37,86.65-125.74,149.22-199.33,216.4-72.91,66.6-112.19,201.22-203.97,242.75-88.66,40.15-216.19-40.74-318-29.42-101.64,11.25-209.15,97.17-304.67,77.59-98.81-20.31-154.38-150.41-240.05-199.27-86.65-49.37-210.24-50.15-277.42-123.74-66.6-72.91-92.89-174.38-134.41-266.17-40.15-88.66-98.14-179.63-109.46-281.44-11.25-101.64,53.91-194.28,73.48-289.81,20.31-98.81,23.43-196.27,72.28-281.94,49.37-86.65,55.24-223.46,128.82-290.63,72.91-66.6,185.81-113.72,277.6-155.25,88.66-40.15,196.85-74.27,298.65-85.59,101.64-11.25,220.64-7.15,316.17,12.43,98.81,20.31,143.22,173.32,228.89,222.18,86.65,49.37,198.34,48.78,265.52,122.37,66.6,72.91,88.65,169.96,130.17,261.74Z"/>
      <path class="cls-1" d="M1889.92,711.17c40.43,89.86,72.77,175.27,84,278.4,11.16,102.99-36.07,184.9-56.13,281.54-20.8,100,16.96,211.63-32.72,298.27-50.2,87.62-127.98,150.97-202.66,218.82-73.98,67.25-114.66,203.18-207.7,245.01-89.86,40.43-219.4-43.09-322.53-31.87-102.99,11.16-211.54,99.21-308.18,79.15-100-20.8-155.8-153.44-242.45-203.13-87.62-50.2-213-50.5-280.85-125.18-67.25-73.98-92.55-177.79-134.38-270.84-40.43-89.86-99.7-181.35-110.93-284.48-11.16-102.99,55.48-196.6,75.54-293.23,20.8-100,24.02-198.5,73.7-285.14,50.2-87.62,56.11-226.16,130.79-294.01,73.98-67.25,187.95-115.16,281-156.99,89.86-40.43,200.07-73.72,303.2-84.94,102.99-11.16,223.15-8.09,319.79,11.97,100,20.8,144.65,176.58,231.3,226.26,87.62,50.2,200.38,50.43,268.23,125.11,67.25,73.98,89.14,172.22,130.97,265.27Z"/>
      <path class="cls-1" d="M1900.7,708.89c40.72,91.07,73.9,177.1,85.02,281.55,11.08,104.33-36.91,187.19-57.45,284.94-21.3,101.18,17.51,214.53-32.99,302.14-51.03,88.58-130.22,152.72-205.99,221.25-75.05,67.91-117.12,205.14-211.44,247.27-91.07,40.72-222.61-45.45-327.06-34.33-104.33,11.08-213.94,101.26-311.69,80.72-101.18-21.3-157.22-156.47-244.84-206.98-88.58-51.03-215.75-50.85-284.28-126.62-67.91-75.05-92.2-181.19-134.34-275.5-40.72-91.07-101.27-183.08-112.39-287.52-11.08-104.33,57.06-198.91,77.6-296.66,21.3-101.18,24.62-200.72,75.13-288.34,51.03-88.58,56.98-228.86,132.75-297.39,75.05-67.91,190.1-116.6,284.41-158.74,91.07-40.72,203.3-73.17,307.74-84.29,104.33-11.08,225.66-9.03,323.42,11.51,101.18,21.3,146.09,179.84,233.7,230.35,88.58,51.03,202.41,52.07,270.94,127.84,67.91,75.05,89.63,174.48,131.77,268.8Z"/>
      <path class="cls-1" d="M1911.49,706.62c41,92.27,75.02,178.93,86.05,284.7,10.99,105.68-37.75,189.47-58.77,288.34-21.79,102.36,18.06,217.43-33.27,306.01-51.86,89.55-132.46,154.47-209.32,223.68-76.13,68.57-119.59,207.09-215.17,249.54-92.27,41-225.82-47.81-331.59-36.78-105.68,10.99-216.34,103.3-315.2,82.28-102.36-21.79-158.65-159.5-247.24-210.84-89.55-51.86-218.51-51.2-287.71-128.06-68.57-76.13-91.86-184.6-134.31-280.17-41-92.27-102.83-184.8-113.86-290.57-10.99-105.68,58.64-201.22,79.66-300.08,21.79-102.36,25.21-202.95,76.55-291.54,51.86-89.55,57.86-231.56,134.72-300.77,76.13-68.57,192.24-118.04,287.81-160.48,92.27-41,206.52-72.61,312.29-83.64,105.68-10.99,228.17-9.97,327.04,11.05,102.36,21.79,147.52,183.1,236.11,234.43,89.55,51.86,204.44,53.72,273.65,130.58,68.57,76.13,90.12,176.75,132.56,272.32Z"/>
      <path class="cls-1" d="M1922.27,704.34c41.29,93.48,76.15,180.76,87.08,287.86,10.9,107.02-38.59,191.75-60.09,291.73-22.29,103.54,18.61,220.33-33.54,309.89-52.69,90.51-134.7,156.22-212.65,226.1-77.2,69.23-122.06,209.05-218.9,251.8-93.48,41.29-229.03-50.16-336.12-39.23-107.02,10.9-218.73,105.34-318.72,83.84-103.54-22.29-160.07-162.54-249.63-214.69-90.51-52.69-221.27-51.54-291.15-129.5-69.23-77.2-91.52-188-134.27-284.84-41.29-93.48-104.4-186.52-115.33-293.61-10.9-107.02,60.22-203.53,81.72-303.51,22.29-103.54,25.81-205.18,77.97-294.74,52.69-90.51,58.73-234.26,136.68-304.14,77.2-69.23,194.38-119.48,291.22-162.23,93.48-41.29,209.74-72.06,316.84-82.99,107.02-10.9,230.68-10.91,330.67,10.59,103.54,22.29,148.95,186.36,238.52,238.51,90.51,52.69,206.47,55.37,276.36,133.32,69.23,77.2,90.61,179.01,133.36,275.85Z"/>
      <path class="cls-1" d="M1933.06,702.07c41.57,94.68,77.27,182.6,88.11,291.01,10.81,108.37-39.43,194.03-61.41,295.13-22.78,104.73,19.16,223.23-33.82,313.76-53.52,91.47-136.94,157.97-215.98,228.53-78.27,69.88-124.53,211.01-222.63,254.06-94.68,41.57-232.23-52.52-340.65-41.69-108.37,10.81-221.13,107.38-322.23,85.4-104.73-22.78-161.49-165.57-252.03-218.55-91.47-53.52-224.02-51.89-294.58-130.94-69.88-78.27-91.18-191.41-134.24-289.51-41.57-94.68-105.96-188.24-116.79-296.65-10.81-108.37,61.8-205.84,83.78-306.94,22.78-104.73,26.41-207.41,79.39-297.94,53.52-91.47,59.6-236.96,138.64-307.52,78.27-69.88,196.52-120.92,294.62-163.98,94.68-41.57,212.97-71.51,321.38-82.35,108.37-10.81,233.19-11.85,334.29,10.13,104.73,22.78,150.39,189.61,240.92,242.6,91.47,53.52,208.51,57.01,279.07,136.05,69.88,78.27,91.1,181.27,134.16,279.37Z"/>
      <path class="cls-1" d="M1943.84,699.79c41.85,95.89,78.4,184.43,89.13,294.16,10.73,109.71-40.27,196.32-62.73,298.53-23.28,105.91,19.71,226.12-34.09,317.63-54.35,92.44-139.18,159.72-219.31,230.95-79.35,70.54-127,212.96-226.37,256.33-95.89,41.85-235.44-54.88-345.18-44.14-109.71,10.73-223.53,109.42-325.74,86.97-105.91-23.28-162.92-168.6-254.42-222.4-92.44-54.35-226.78-52.24-298.01-132.38-70.54-79.35-90.84-194.81-134.2-294.18-41.85-95.89-107.52-189.96-118.26-299.7-10.73-109.71,63.38-208.15,85.83-310.36,23.28-105.91,27-209.63,80.81-301.14,54.35-92.44,60.47-239.66,140.61-310.9,79.35-70.54,198.66-122.36,298.03-165.72,95.89-41.85,216.19-70.96,325.93-81.7,109.71-10.73,235.7-12.79,337.92,9.67,105.91,23.28,151.82,192.87,243.33,246.68,92.44,54.35,210.54,58.66,281.77,138.79,70.54,79.35,91.59,183.53,134.95,282.9Z"/>
      <path class="cls-1" d="M1143.93,2063.65c-111.06,10.64-225.93,111.46-329.25,88.53-107.09-23.77-164.34-171.63-256.82-226.26-93.4-55.18-229.53-52.59-301.44-133.82-71.2-80.42-90.5-198.22-134.17-298.84-42.14-97.09-109.09-191.69-119.73-302.74-10.64-111.06,64.96-210.46,87.89-313.79,23.77-107.09,27.6-211.86,82.23-304.34,55.18-93.4,61.34-242.37,142.57-314.28,80.42-71.2,200.8-123.79,301.43-167.47,97.09-42.14,219.42-70.41,330.48-81.05,111.06-10.64,238.21-13.73,341.54,9.21,107.09,23.77,153.26,196.13,245.73,250.76,93.4,55.18,212.57,60.3,284.48,141.53,71.2,80.42,92.08,185.8,135.75,286.43,42.14,97.09,79.52,186.26,90.16,297.32,10.64,111.06-41.11,198.6-64.05,301.93-23.77,107.09,20.26,229.02-34.37,321.5-55.18,93.4-141.42,161.47-222.64,233.38-80.42,71.2-129.47,214.92-230.1,258.59-97.09,42.14-238.65-57.23-349.71-46.59Z"/>
    </g>
  </g>
</svg>