<?xml version="1.0" encoding="UTF-8"?>
<svg id="Ebene_2" data-name="Ebene 2" xmlns="http://www.w3.org/2000/svg" viewBox="0 0 1745.47 1354.41">
  <defs>
    <style>
      .cls-1 {
        fill: none;
        stroke: #1e0032;
        stroke-miterlimit: 10;
        stroke-width: 3px;
      }
    </style>
  </defs>
  <g id="text">
    <g>
      <path class="cls-1" d="M30.94,741.75c188.72,43.28,371.89,48.07,474.33-53.96,101.56-101.16,39.14-223.05,142.15-398.03C727.18,154.27,901.79-5.7,1106.32,1.75c213.2,7.77,416.17,195.9,482.88,465.25"/>
      <path class="cls-1" d="M30.49,744.52c192.21,48.84,376.32,54.22,479.47-47.07,101.38-100.12,40.77-221.18,143.11-394.59C732.76,168.05,905.84,9.06,1109.27,16.06c212.53,7.21,414.87,194.13,482.25,460.91"/>
      <path class="cls-1" d="M30.04,747.29c195.7,54.4,381.03,60.66,484.61-40.18,101.47-98.79,42.41-219.31,144.06-391.14C738.34,181.83,909.89,23.82,1112.22,30.36c211.86,6.65,413.57,192.35,481.62,456.56"/>
      <path class="cls-1" d="M29.6,750.06c199.19,59.96,385.6,66.96,489.75-33.29,101.41-97.61,44.04-217.45,145.02-387.69,79.56-133.47,249.57-290.5,450.8-284.42,211.19,6.09,412.27,190.58,480.99,452.22"/>
      <path class="cls-1" d="M29.15,752.83c202.68,65.53,390.16,73.25,494.9-26.39,101.35-96.43,45.68-215.58,145.97-384.24,79.49-132.8,247.97-288.85,448.09-283.22,210.52,5.53,410.98,188.81,480.35,447.87"/>
      <path class="cls-1" d="M28.71,755.6c206.17,71.09,394.72,79.55,500.04-19.5,101.29-95.25,47.31-213.71,146.92-380.8,79.43-132.13,246.37-287.2,445.39-282.03,209.84,4.97,409.68,187.03,479.72,443.53"/>
      <path class="cls-1" d="M28.26,758.37c209.67,76.65,399.27,85.84,505.18-12.61,101.22-94.08,48.59-212.06,147.88-377.35,79.07-131.63,244.76-285.55,442.69-280.83,209.17,4.42,408.38,185.26,479.09,439.18"/>
      <path class="cls-1" d="M27.81,761.15c213.16,82.21,403.81,92.13,510.33-5.72,101.14-92.91,50.17-210.23,148.83-373.9,78.96-130.99,243.16-283.9,439.99-279.64,208.5,3.86,407.08,183.48,478.46,434.84"/>
      <path class="cls-1" d="M27.37,763.92c216.65,87.77,408.36,98.42,515.47,1.17,101.06-91.75,51.75-208.4,149.79-370.45,78.85-130.34,241.56-282.25,437.29-278.44,207.83,3.3,405.78,181.71,477.83,430.49"/>
      <path class="cls-1" d="M26.92,766.69c220.14,93.33,412.89,104.71,520.61,8.06,100.97-90.58,53.33-206.56,150.74-367.01,78.74-129.7,239.95-280.21,434.58-277.25,207.15,3.15,404.49,179.94,477.2,426.15"/>
      <path class="cls-1" d="M26.48,769.46c223.63,98.9,417.43,110.99,525.76,14.96,100.87-89.43,54.92-204.73,151.69-363.56,78.63-129.05,238.35-278.52,431.88-276.05,206.48,2.64,403.19,178.16,476.56,421.8"/>
      <path class="cls-1" d="M26.03,772.23c227.12,104.46,421.95,117.28,530.9,21.85,100.77-88.27,56.5-202.89,152.65-360.11,78.52-128.41,236.75-276.84,429.18-274.86,205.81,2.12,401.89,176.39,475.93,417.45"/>
      <path class="cls-1" d="M25.58,775c230.61,110.02,426.48,123.56,536.04,28.74,100.67-87.12,58.09-201.05,153.6-356.67,78.42-127.76,235.15-275.15,426.48-273.66,205.14,1.6,400.59,174.62,475.3,413.11"/>
      <path class="cls-1" d="M25.14,777.77c234.1,115.58,431,129.84,541.19,35.63,100.56-85.97,59.68-199.21,154.56-353.22,78.31-127.12,233.55-273.47,423.78-272.47,204.47,1.07,399.3,172.84,474.67,408.76"/>
      <path class="cls-1" d="M24.69,780.54c237.59,121.14,435.51,136.12,546.33,42.52,100.44-84.83,61.27-197.38,155.51-349.77,78.21-126.47,231.95-270.66,421.07-271.27,203.8-.66,398,171.07,474.04,404.42"/>
      <path class="cls-1" d="M24.25,783.31c241.08,126.7,440.02,142.39,551.47,49.41,100.32-83.69,62.87-195.54,156.46-346.32,78.1-125.83,230.36-268.91,418.37-270.08,203.13-1.26,396.7,169.3,473.41,400.07"/>
      <path class="cls-1" d="M23.8,786.08c244.57,132.27,444.53,148.66,556.62,56.31,100.2-82.56,64.46-193.7,157.42-342.88,78-125.18,228.76-267.17,415.67-268.88,202.46-1.85,395.4,167.52,472.77,395.73"/>
      <path class="cls-1" d="M23.35,788.86c248.06,137.83,449.03,154.93,561.76,63.2,100.07-81.43,66.06-191.85,158.37-339.43,77.9-124.53,227.15-266.74,412.97-267.69,201.79-1.03,394.1,165.75,472.14,391.38"/>
      <path class="cls-1" d="M22.91,791.63c251.55,143.39,453.52,161.2,566.9,70.09,99.93-80.3,67.66-190.01,159.33-335.98,77.8-123.88,225.55-265.07,410.27-266.49,201.13-1.55,392.81,163.97,471.51,387.04"/>
      <path class="cls-1" d="M22.46,794.4c255.04,148.95,458.01,167.46,572.05,76.98,99.79-79.17,69.26-188.17,160.28-332.53,77.7-123.23,223.96-263.39,407.57-265.3,200.46-2.08,391.51,162.2,470.88,382.69"/>
      <path class="cls-1" d="M22.02,797.17c258.54,154.51,462.5,173.72,577.19,83.87,99.65-78.06,70.86-186.32,161.23-329.09,77.6-122.58,222.36-261.71,404.86-264.1,199.79-2.61,390.21,160.43,470.25,378.35"/>
      <path class="cls-1" d="M21.57,799.94c262.03,160.07,466.98,179.97,582.33,90.76,99.49-76.94,72.47-184.48,162.19-325.64,77.5-121.93,220.76-260.04,402.16-262.91,199.12-3.15,388.91,158.65,469.62,374"/>
      <path class="cls-1" d="M21.12,802.71c265.52,165.64,471.45,186.22,587.48,97.66,99.34-75.83,74.07-182.63,163.14-322.19,77.41-121.28,219.16-258.37,399.46-261.71,198.45-3.68,387.62,156.88,468.99,369.66"/>
      <path class="cls-1" d="M20.68,805.48c269.01,171.2,475.93,192.47,592.62,104.55,99.18-74.73,75.68-180.79,164.1-318.75,77.31-120.63,217.56-256.7,396.76-260.52,197.78-4.21,386.32,155.11,468.35,365.31"/>
      <path class="cls-1" d="M20.23,808.25c272.5,176.76,480.39,198.71,597.76,111.44,99.01-73.63,77.29-178.94,165.05-315.3,77.22-119.98,215.96-255.03,394.06-259.32,197.11-4.75,385.02,153.33,467.72,360.96"/>
      <path class="cls-1" d="M19.78,811.02c275.99,182.32,484.86,204.95,602.91,118.33,98.85-72.53,78.91-177.09,166-311.85,77.12-119.33,214.36-253.36,391.35-258.13,196.45-5.29,383.72,151.56,467.09,356.62"/>
      <path class="cls-1" d="M19.34,813.8c279.48,187.88,489.31,211.19,608.05,125.22,98.67-71.44,80.52-175.24,166.96-308.4,77.03-118.68,212.76-251.7,388.65-256.93,195.78-5.83,382.42,149.79,466.46,352.27"/>
      <path class="cls-1" d="M18.89,816.57c282.97,193.44,493.77,217.42,613.19,132.11,98.49-70.35,82.14-173.39,167.91-304.96,76.94-118.02,211.17-250.03,385.95-255.74,195.11-6.37,381.13,148.01,465.83,347.93"/>
      <path class="cls-1" d="M18.45,819.34c286.46,199.01,498.22,223.64,618.34,139.01,98.31-69.27,83.75-171.53,168.87-301.51,76.86-117.37,209.57-248.37,383.25-254.54,194.44-6.91,379.83,146.24,465.2,343.58"/>
      <path class="cls-1" d="M18,822.11c289.95,204.57,502.66,229.86,623.48,145.9,98.13-68.19,85.37-169.68,169.82-298.06,76.77-116.71,207.97-246.71,380.55-253.35,193.78-7.45,378.53,144.47,464.56,339.24"/>
      <path class="cls-1" d="M17.55,824.88c293.44,210.13,507.1,236.08,628.62,152.79,97.94-67.12,87-167.82,170.77-294.61,76.69-116.06,206.37-245.05,377.84-252.15,193.11-8,377.23,142.69,463.93,334.89"/>
      <path class="cls-1" d="M17.11,827.65c296.93,215.69,511.53,242.28,633.77,159.68,97.74-66.05,88.62-165.97,171.73-291.17,76.6-115.4,204.77-243.39,375.14-250.96,192.44-8.55,375.94,140.92,463.3,330.55"/>
      <path class="cls-1" d="M16.66,830.42c300.42,221.25,515.96,248.49,638.91,166.57,97.54-64.99,90.25-164.11,172.68-287.72,76.52-114.74,203.17-241.73,372.44-249.76,191.77-9.1,374.64,139.14,462.67,326.2"/>
      <path class="cls-1" d="M16.22,833.19c303.91,226.81,520.39,254.68,644.05,173.46,97.34-63.93,91.88-162.25,173.64-284.27,76.44-114.08,201.58-240.08,369.74-248.57,191.1-9.65,373.34,137.37,462.04,321.86"/>
      <path class="cls-1" d="M15.77,835.96c307.41,232.38,524.81,260.88,649.2,180.36,97.14-62.88,93.51-160.39,174.59-280.83,76.36-113.42,199.98-238.42,367.04-247.37,190.44-10.2,372.04,135.6,461.41,317.51"/>
      <path class="cls-1" d="M15.32,838.73c310.9,237.94,529.23,267.06,654.34,187.25,96.93-61.83,95.14-158.53,175.54-277.38,76.29-112.76,198.38-236.77,364.34-246.18,189.77-10.75,370.74,133.82,460.77,313.17"/>
      <path class="cls-1" d="M14.88,841.51c314.39,243.5,533.64,273.24,659.48,194.14,96.71-60.79,96.78-156.67,176.5-273.93,76.21-112.1,196.78-235.12,361.63-244.98,189.1-11.31,369.45,132.05,460.14,308.82"/>
      <path class="cls-1" d="M14.43,844.28c317.88,249.06,538.05,279.41,664.63,201.03,96.5-59.75,98.41-154.8,177.45-270.48,76.14-111.44,195.18-233.47,358.93-243.79,188.43-11.87,368.15,130.28,459.51,304.47"/>
      <path class="cls-1" d="M13.99,847.05c321.37,254.62,542.45,285.58,669.77,207.92,96.28-58.72,100.05-152.94,178.41-267.04,76.07-110.77,193.58-231.82,356.23-242.59,187.77-12.43,366.85,128.5,458.88,300.13"/>
      <path class="cls-1" d="M13.54,849.82c324.86,260.19,546.85,291.73,674.91,214.81,96.06-57.7,101.69-151.07,179.36-263.59,76-110.1,191.99-230.18,353.53-241.4,187.1-12.99,365.55,126.73,458.25,295.78"/>
      <path class="cls-1" d="M13.09,852.59c328.35,265.75,551.25,297.88,680.06,221.71,95.83-56.67,103.34-149.2,180.31-260.14,75.93-109.44,190.39-228.54,350.83-240.2,186.43-13.55,364.26,124.96,457.62,291.44"/>
      <path class="cls-1" d="M12.65,855.36c331.84,271.31,555.64,304.02,685.2,228.6,95.6-55.66,104.98-147.33,181.27-256.69s188.79-226.89,348.12-239.01c185.76-14.12,362.96,123.18,456.98,287.09"/>
      <path class="cls-1" d="M12.2,858.13c335.33,276.87,560.03,310.16,690.34,235.49,95.37-54.65,106.63-145.46,182.22-253.25,75.81-108.1,187.19-225.25,345.42-237.81,185.09-14.69,361.66,121.41,456.35,282.75"/>
      <path class="cls-1" d="M11.76,860.9c338.82,282.43,564.41,316.28,695.49,242.38,95.14-53.64,108.28-143.58,183.18-249.8s185.59-223.62,342.72-236.62c184.42-15.26,360.36,119.63,455.72,278.4"/>
      <path class="cls-1" d="M11.31,863.67c342.31,287.99,568.79,322.4,700.63,249.27,94.9-52.64,109.94-141.71,184.13-246.35,75.69-106.75,183.99-221.98,340.02-235.42,183.76-15.83,359.06,117.86,455.09,274.06"/>
      <path class="cls-1" d="M10.86,866.45c345.8,293.56,573.17,328.51,705.77,256.17,94.67-51.65,111.59-139.83,185.08-242.9,75.63-106.08,182.39-220.34,337.32-234.23,183.09-16.4,357.77,116.09,454.46,269.71"/>
      <path class="cls-1" d="M10.42,869.22c349.29,299.12,577.54,334.61,710.92,263.06,94.43-50.66,113.25-137.95,186.04-239.46,75.58-105.4,180.79-218.71,334.61-233.03,182.42-16.98,356.47,114.31,453.83,265.37"/>
      <path class="cls-1" d="M9.97,871.99c352.78,304.68,581.91,340.7,716.06,269.95,94.19-49.68,114.91-136.07,186.99-236.01,75.53-104.72,179.19-217.08,331.91-231.84,181.75-17.56,355.17,112.54,453.19,261.02"/>
      <path class="cls-1" d="M9.53,874.76c356.28,310.24,586.28,346.79,721.2,276.84,93.94-48.7,116.57-134.19,187.95-232.56,75.48-104.04,177.59-215.45,329.21-230.64,181.08-18.14,353.87,110.77,452.56,256.68"/>
      <path class="cls-1" d="M9.08,877.53c359.77,315.8,590.64,352.86,726.35,283.73,93.7-47.73,118.24-132.31,188.9-229.12,75.44-103.35,175.99-213.82,326.51-229.45,180.41-18.72,352.58,108.99,451.93,252.33"/>
      <path class="cls-1" d="M8.63,880.3c363.26,321.36,595,358.92,731.49,290.62,93.45-46.76,119.91-130.42,189.85-225.67,75.4-102.67,174.39-212.2,323.81-228.25,179.73-19.31,351.28,107.22,451.3,247.98"/>
      <path class="cls-1" d="M8.19,883.07c366.75,326.93,599.36,364.98,736.63,297.52,93.2-45.8,121.58-128.53,190.81-222.22,75.36-101.98,172.79-210.57,321.1-227.05,179.06-19.9,349.98,105.45,450.67,243.64"/>
      <path class="cls-1" d="M7.74,885.84c370.24,332.49,603.71,371.02,741.78,304.41,92.95-44.85,123.25-126.64,191.76-218.77,75.32-101.29,171.19-208.95,318.4-225.86,178.39-20.49,348.68,103.67,450.04,239.29"/>
      <path class="cls-1" d="M7.3,888.61c373.73,338.05,608.06,377.05,746.92,311.3,92.7-43.9,124.92-124.75,192.72-215.33,75.29-100.6,169.58-207.33,315.7-224.66,177.72-21.08,347.38,101.9,449.41,234.95"/>
      <path class="cls-1" d="M6.85,891.38c377.22,343.61,612.41,383.07,752.06,318.19,92.45-42.95,126.6-122.86,193.67-211.88,75.26-99.9,167.98-205.71,313-223.47,177.05-21.68,346.09,100.12,448.77,230.6"/>
      <path class="cls-1" d="M6.4,894.16c380.71,349.17,616.76,389.09,757.21,325.08,92.2-42.02,128.28-120.96,194.63-208.43,75.24-99.2,166.38-204.1,310.3-222.27,176.37-22.28,344.79,98.35,448.14,226.26"/>
      <path class="cls-1" d="M5.96,896.93c384.2,354.73,621.1,395.09,762.35,331.97,91.95-41.08,129.96-119.06,195.58-204.98,75.22-98.5,164.78-202.48,307.6-221.08,175.7-22.88,343.49,96.58,447.51,221.91"/>
      <path class="cls-1" d="M5.51,899.7c387.69,360.3,625.44,401.07,767.49,338.87,91.7-40.16,131.65-117.16,196.53-201.54,75.2-97.79,163.17-200.87,304.89-219.88,175.02-23.48,342.19,94.8,446.88,217.57"/>
      <path class="cls-1" d="M5.07,902.47c391.18,365.86,629.78,407.05,772.64,345.76,91.44-39.23,133.34-115.26,197.49-198.09,75.19-97.08,161.57-199.26,302.19-218.69,174.35-24.09,340.9,93.03,446.25,213.22"/>
      <path class="cls-1" d="M4.62,905.24c394.67,371.42,634.12,413.02,777.78,352.65,91.19-38.32,135.03-113.35,198.44-194.64,75.18-96.37,159.96-197.65,299.49-217.49,173.67-24.7,339.6,91.26,445.62,208.88"/>
      <path class="cls-1" d="M4.17,908.01c398.16,376.98,638.45,418.97,782.92,359.54,90.94-37.41,136.72-111.44,199.4-191.2,75.17-95.65,158.36-196.04,296.79-216.3,172.99-25.31,338.3,89.48,444.98,204.53"/>
      <path class="cls-1" d="M3.73,910.78c401.65,382.54,642.78,424.91,788.07,366.43,90.68-36.5,138.41-109.53,200.35-187.75,75.17-94.93,156.75-194.44,294.09-215.1,172.32-25.93,337,87.71,444.35,200.19"/>
      <path class="cls-1" d="M3.28,913.55c405.15,388.1,647.12,430.84,793.21,373.32,90.43-35.6,140.11-107.62,201.3-184.3,75.18-94.21,155.14-192.84,291.38-213.91,171.64-26.54,335.7,85.94,443.72,195.84"/>
      <path class="cls-1" d="M2.84,916.32c408.64,393.67,651.45,436.76,798.35,380.22,90.18-34.71,141.81-105.7,202.26-180.85,75.18-93.48,153.5-191.46,288.68-212.71,170.91-27.45,334.41,84.16,443.09,191.49"/>
      <path class="cls-1" d="M2.39,919.09c412.13,399.23,655.78,442.66,803.5,387.11,89.93-33.82,143.51-103.78,203.21-177.41,75.2-92.74,151.9-189.81,285.98-211.52,170.24-28.01,333.11,82.39,442.46,187.15"/>
      <path class="cls-1" d="M1.94,921.87c415.62,404.79,660.11,448.55,808.64,394,89.68-32.94,145.22-101.86,204.17-173.96,75.22-92,150.3-188.16,283.28-210.32,169.57-28.57,331.81,80.61,441.83,182.8"/>
      <path class="cls-1" d="M1.5,924.64c419.11,410.35,664.33,454.14,813.78,400.89,89.37-32.23,147-99.87,205.12-170.51,75.34-91.17,148.7-186.51,280.58-209.13,168.9-29.12,330.51,78.84,441.19,178.46"/>
      <path class="cls-1" d="M1.05,927.41c422.6,415.91,668.76,460.3,818.92,407.78,206.07-72.07,253.37-334.31,483.95-375,168.23-29.68,329.22,77.07,440.56,174.11"/>
    </g>
  </g>
</svg>