<?xml version="1.0" encoding="UTF-8"?>
<svg id="Ebene_2" data-name="Ebene 2" xmlns="http://www.w3.org/2000/svg" xmlns:xlink="http://www.w3.org/1999/xlink" viewBox="0 0 1679.79 1746.5">
  <defs>
    <style>
      .cls-1, .cls-2 {
        fill: none;
      }

      .cls-2 {
        stroke: #1e0032;
        stroke-miterlimit: 10;
        stroke-width: 5px;
      }

      .cls-3 {
        clip-path: url(#clippath);
      }
    </style>
    <clipPath id="clippath">
      <rect class="cls-1" x="377.95" y="491.23" width="1080" height="166.43" transform="translate(343.51 1492.4) rotate(-90)"/>
    </clipPath>
  </defs>
  <g id="key_visual_03" data-name="key visual 03">
    <g class="cls-3">
      <g>
        <path class="cls-2" d="M659.66,1145.18c-26.09-20.2-48.52-47.68-66.15-73.55-18.27-26.81-25.87-60.75-34.74-91.25-8.96-30.81-60.06-64.72-59.11-96.79.94-31.75,39.8-67.61,50.77-98.15,10.58-29.46,30.85-60.35,51.05-86.45,20.2-26.09,44.52-54.2,70.39-71.82,26.81-18.27,57.43-46.46,87.93-55.33s71.16,19.18,103.23,20.13c31.75.94,78.46-37.96,109-26.99,29.46,10.58,35.78,76.5,61.87,96.7,26.09,20.2,35.21,48.14,52.84,74.01,18.27,26.81,75.34,35.65,84.21,66.16,8.96,30.81,5.37,70.17,4.42,102.24-.94,31.75-36.34,58.11-47.31,88.64-10.58,29.46-35.48,44.67-55.68,70.76-20.2,26.09-42.83,33.24-68.7,50.86s-44.29,28.35-74.79,37.22c-30.81,8.96-52.8,66.53-84.87,65.59-31.75-.94-75.64,11.3-106.18.34-29.46-10.58-52.09-52.12-78.19-72.32Z"/>
        <path class="cls-2" d="M1183.22,908.86c-1.45,32.65-36.71,59.86-48.48,91.14-11.4,30.23-37.29,45.58-58.42,72.07-21.17,26.53-44.15,35.31-71.08,53.06-27.87,18.38-46.64,28.14-78.2,36.8-31.84,8.75-55.41,66.31-88.43,64.83-32.65-1.45-76.25,8.04-107.53-3.73-30.23-11.4-54.72-52.25-81.21-73.38-26.53-21.17-47.66-50.33-65.41-77.26-18.38-27.87-27.34-62.53-36-94.09-8.75-31.84-57.91-66.59-56.42-99.6,1.45-32.65,39.84-69.55,51.62-100.83,11.4-30.23,33.13-60.86,54.25-87.35,21.17-26.53,46.15-55.21,73.08-72.96,27.87-18.38,59.5-47.6,91.05-56.26,31.84-8.75,73.28,19.53,106.29,21.02,32.65,1.45,80.1-35.78,111.39-24,30.23,11.4,37.84,77.36,64.34,98.49,26.53,21.17,34.23,50.93,51.97,77.86,18.38,27.87,75.64,37.81,84.3,69.37,8.75,31.84,4.38,71.82,2.89,104.83Z"/>
        <path class="cls-2" d="M1191.07,913.63c-1.97,33.54-37.07,61.61-49.66,93.64-12.22,31-39.1,46.48-61.16,73.38-22.15,26.97-45.47,37.38-73.45,55.25-28.92,18.49-49,27.92-81.6,36.37-32.86,8.53-58.03,66.09-91.98,64.08-33.54-1.97-76.85,4.78-108.88-7.81-31-12.22-57.34-52.38-84.24-74.43-26.97-22.15-46.79-52.98-64.66-80.96-18.49-28.92-28.81-64.32-37.26-96.92-8.53-32.86-55.76-68.46-53.74-102.42,1.97-33.54,39.87-71.49,52.46-103.52,12.22-31,35.4-61.36,57.46-88.26,22.15-26.97,47.79-56.22,75.77-74.09,28.92-18.49,61.57-48.75,94.17-57.19,32.86-8.53,75.4,19.88,109.35,21.9,33.54,1.97,81.75-33.61,113.78-21.01,31,12.22,39.9,78.23,66.8,100.28,26.97,22.15,33.24,53.73,51.1,81.71,18.49,28.92,75.93,39.97,84.38,72.57,8.53,32.86,3.38,73.47,1.37,107.43Z"/>
        <path class="cls-2" d="M1198.92,918.4c-2.48,34.44-37.43,63.37-50.84,96.14-13.04,31.76-40.92,47.39-63.9,74.69-23.12,27.4-46.79,39.46-75.83,57.45-29.97,18.61-51.36,27.71-85.01,35.94-33.89,8.32-60.64,65.87-95.54,63.32-34.44-2.48-77.45,1.52-110.23-11.88-31.76-13.04-59.96-52.51-87.26-75.49-27.4-23.12-45.93-55.64-63.91-84.67-18.61-29.97-30.29-66.1-38.52-99.75-8.32-33.89-53.61-70.33-51.06-105.23,2.48-34.44,39.9-73.43,53.31-106.2,13.04-31.76,37.68-61.86,60.66-89.17,23.12-27.4,49.42-57.23,78.45-75.22,29.97-18.61,63.64-49.89,97.29-58.12,33.89-8.32,77.52,20.23,112.42,22.78,34.44,2.48,83.39-31.43,116.17-18.03,31.76,13.04,41.96,79.09,69.26,102.07,27.4,23.12,32.25,56.53,50.24,85.56,18.61,29.97,76.23,42.13,84.46,75.78,8.32,33.89,2.39,75.13-.16,110.02Z"/>
        <path class="cls-2" d="M1206.77,923.18c-3,35.33-37.79,65.12-52.01,98.65-13.86,32.53-42.73,48.3-66.64,76.01-24.1,27.84-48.11,41.53-78.2,59.64-31.03,18.72-53.72,27.49-88.42,35.51-34.92,8.11-63.26,65.65-99.1,62.57-35.33-3-78.06-1.74-111.58-15.96-32.53-13.86-62.58-52.63-90.29-76.54-27.84-24.1-45.06-58.29-63.17-88.38-18.72-31.03-31.76-67.88-39.78-102.58-8.11-34.92-51.46-72.21-48.37-108.05,3-35.33,39.94-75.36,54.15-108.89,13.86-32.53,39.96-62.36,63.86-90.07,24.1-27.84,51.05-58.25,81.14-76.35,31.03-18.72,65.71-51.03,100.41-59.05,34.92-8.11,79.64,20.58,115.48,23.66,35.33,3,85.03-29.26,118.56-15.04,32.53,13.86,44.02,79.95,71.73,103.86,27.84,24.1,31.26,59.32,49.37,89.41,18.72,31.03,76.52,44.29,84.55,78.99,8.11,34.92,1.4,76.78-1.69,112.62Z"/>
        <path class="cls-2" d="M1214.61,927.95c-3.51,36.22-38.16,66.87-53.19,101.15-14.68,33.3-44.54,49.21-69.37,77.32-25.07,28.27-49.43,43.61-80.58,61.83-32.08,18.83-56.08,27.28-91.83,35.09-35.94,7.89-65.88,65.43-102.66,61.81-36.22-3.51-78.66-5-112.93-20.03-33.3-14.68-65.2-52.76-93.31-77.6-28.27-25.07-44.2-60.94-62.42-92.09-18.83-32.08-33.24-69.67-41.05-105.41-7.89-35.94-49.31-74.08-45.69-110.86,3.51-36.22,39.97-77.3,55-111.57,14.68-33.3,42.23-62.87,67.07-90.98,25.07-28.27,52.69-59.26,83.83-77.48,32.08-18.83,67.78-52.17,103.53-59.98,35.94-7.89,81.76,20.92,118.54,24.54,36.22,3.51,86.68-27.08,120.95-12.05,33.3,14.68,46.08,80.81,74.19,105.64,28.27,25.07,30.27,62.12,48.5,93.27,18.83,32.08,76.82,46.45,84.63,82.2,7.89,35.94.4,78.43-3.22,115.22Z"/>
        <path class="cls-2" d="M1222.46,932.72c-4.03,37.12-38.52,68.63-54.36,103.65-15.5,34.07-46.35,50.11-72.11,78.63-26.05,28.71-50.75,45.68-82.96,64.03-33.13,18.94-58.44,27.06-95.23,34.66-36.97,7.68-68.49,65.21-106.22,61.06-37.12-4.03-79.27-8.26-114.29-24.11-34.07-15.5-67.82-52.89-96.33-78.65-28.71-26.05-43.33-63.59-61.68-95.8-18.94-33.13-34.71-71.45-42.31-108.25-7.68-36.97-47.16-75.95-43-113.68,4.03-37.12,40-79.24,55.84-114.26,15.5-34.07,44.51-63.37,70.27-91.88,26.05-28.71,54.32-60.27,86.52-78.62,33.13-18.94,69.85-53.32,106.65-60.91,36.97-7.68,83.88,21.27,121.61,25.43,37.12,4.03,88.32-24.91,123.34-9.06,34.07,15.5,48.14,81.67,76.66,107.43,28.71,26.05,29.28,64.92,47.63,97.12,18.94,33.13,77.11,48.61,84.71,85.4,7.68,36.97-.59,80.09-4.75,117.81Z"/>
        <path class="cls-2" d="M1230.31,937.49c-4.54,38.01-38.88,70.38-55.54,106.15-16.32,34.83-48.16,51.02-74.85,79.94-27.02,29.14-52.07,47.76-85.33,66.22-34.19,19.06-60.8,26.85-98.64,34.23-38,7.47-71.11,64.99-109.77,60.3-38.01-4.54-79.87-11.52-115.64-28.18-34.83-16.32-70.44-53.02-99.36-79.71-29.14-27.02-42.47-66.25-60.93-99.5-19.06-34.19-36.18-73.23-43.57-111.08-7.47-38-45.01-77.83-40.32-116.49,4.54-38.01,40.03-81.18,56.69-116.94,16.32-34.83,46.79-63.87,73.48-92.79,27.02-29.14,55.95-61.28,89.21-79.75,34.19-19.06,71.92-54.46,109.77-61.85,38-7.47,86,21.62,124.67,26.31,38.01,4.54,89.97-22.73,125.73-6.08,34.83,16.32,50.2,82.53,79.12,109.22,29.14,27.02,28.3,67.71,46.76,100.97,19.06,34.19,77.41,50.77,84.8,88.61,7.47,38-1.59,81.74-6.27,120.41Z"/>
        <path class="cls-2" d="M1238.15,942.26c-5.06,38.91-39.24,72.14-56.71,108.65-17.14,35.6-49.98,51.93-77.59,81.25-28,29.58-53.39,49.83-87.71,68.42-35.24,19.17-63.15,26.63-102.05,33.81-39.02,7.25-73.72,64.77-113.33,59.55-38.91-5.06-80.47-14.79-116.99-32.25-35.6-17.14-73.06-53.15-102.38-80.76-29.58-28-41.6-68.9-60.19-103.21-19.17-35.24-37.66-75.02-44.83-113.91-7.25-39.02-42.86-79.7-37.63-119.31,5.06-38.91,40.07-83.11,57.54-119.63,17.14-35.6,49.07-64.38,76.68-93.7,28-29.58,57.58-62.3,91.9-80.88,35.24-19.17,73.99-55.6,112.89-62.78,39.02-7.25,88.12,21.97,127.73,27.19,38.91,5.06,91.61-20.56,128.12-3.09,35.6,17.14,52.26,83.39,81.58,111.01,29.58,28,27.31,70.51,45.89,104.82,19.17,35.24,77.71,52.93,84.88,91.82,7.25,39.02-2.58,83.39-7.8,123Z"/>
        <path class="cls-2" d="M1246,947.03c-5.57,39.8-39.6,73.89-57.89,111.15-17.96,36.37-51.79,52.84-80.33,82.56-28.97,30.02-54.71,51.9-90.08,70.61-36.29,19.28-65.51,26.42-105.45,33.38-40.05,7.04-76.34,64.55-116.89,58.79-39.8-5.57-81.08-18.05-118.34-36.33-36.37-17.96-75.68-53.27-105.41-81.82-30.02-28.97-40.74-71.55-59.44-106.92-19.28-36.29-39.13-76.8-46.09-116.74-7.04-40.05-40.7-81.57-34.95-122.12,5.57-39.8,40.1-85.05,58.38-122.31,17.96-36.37,51.34-64.88,79.89-94.6,28.97-30.02,59.22-63.31,94.59-82.01,36.29-19.28,76.06-56.75,116.01-63.71,40.05-7.04,90.24,22.32,130.8,28.07,39.8,5.57,93.25-18.38,130.51-.1,36.37,17.96,54.32,84.26,84.05,112.8,30.02,28.97,26.32,73.31,45.02,108.67,19.28,36.29,78,55.09,84.96,95.03,7.04,40.05-3.57,85.05-9.33,125.6Z"/>
        <path class="cls-2" d="M1253.85,951.81c-6.09,40.7-39.97,75.64-59.06,113.65-18.78,37.13-53.6,53.74-83.07,83.87-29.94,30.45-56.03,53.98-92.46,72.8-37.35,19.39-67.87,26.2-108.86,32.95-41.08,6.83-78.95,64.33-120.45,58.04-40.7-6.09-81.68-21.31-119.69-40.4-37.13-18.78-78.3-53.4-108.43-82.87-30.45-29.94-39.87-74.2-58.7-110.63-19.39-37.35-40.61-78.59-47.36-119.57-6.83-41.08-38.55-83.45-32.27-124.94,6.09-40.7,40.13-86.99,59.23-125,18.78-37.13,53.62-65.38,83.09-95.51,29.94-30.45,60.85-64.32,97.28-83.15,37.35-19.39,78.14-57.89,119.13-64.64,41.08-6.83,92.37,22.67,133.86,28.95,40.7,6.09,94.9-16.21,132.9,2.89,37.13,18.78,56.38,85.12,86.51,114.59,30.45,29.94,25.33,76.1,44.16,112.53,19.39,37.35,78.3,57.25,85.05,98.24,6.83,41.08-4.57,86.7-10.86,128.19Z"/>
        <path class="cls-2" d="M1261.7,956.58c-6.6,41.59-40.33,77.4-60.24,116.15-19.6,37.9-55.41,54.65-85.81,85.18-30.92,30.89-57.36,56.05-94.84,75-38.4,19.51-70.23,25.99-112.27,32.53-42.11,6.61-81.57,64.11-124.01,57.28-41.59-6.6-82.29-24.57-121.04-44.48-37.9-19.6-80.92-53.53-111.46-83.93-30.89-30.92-39.01-76.86-57.95-114.34-19.51-38.4-42.08-80.37-48.62-122.41-6.61-42.11-36.4-85.32-29.58-127.75,6.6-41.59,40.17-88.93,60.07-127.68,19.6-37.9,55.9-65.88,86.3-96.42,30.92-30.89,62.48-65.33,99.96-84.28,38.4-19.51,80.21-59.03,122.24-65.57,42.11-6.61,94.49,23.01,136.92,29.84,41.59,6.6,96.54-14.03,135.29,5.88,37.9,19.6,58.44,85.98,88.98,116.38,30.89,30.92,24.34,78.9,43.29,116.38,19.51,38.4,78.59,59.41,85.13,101.44,6.61,42.11-5.56,88.35-12.38,130.79Z"/>
        <path class="cls-2" d="M1269.54,961.35c-7.12,42.48-40.69,79.15-61.41,118.65-20.42,38.67-57.22,55.56-88.55,86.49-31.89,31.32-58.68,58.13-97.21,77.19-39.45,19.62-72.59,25.77-115.67,32.1-43.13,6.4-84.19,63.89-127.56,56.53-42.48-7.12-82.89-27.83-122.39-48.55-38.67-20.42-83.54-53.66-114.48-84.98-31.32-31.89-38.14-79.51-57.21-118.04-19.62-39.45-43.56-82.15-49.88-125.24-6.4-43.13-34.25-87.19-26.9-130.57,7.12-42.48,40.2-90.87,60.92-130.37,20.42-38.67,58.18-66.39,89.5-97.32,31.89-31.32,64.12-66.35,102.65-85.41,39.45-19.62,82.28-60.17,125.36-66.5,43.13-6.4,96.61,23.36,139.98,30.72,42.48,7.12,98.18-11.86,137.69,8.86,38.67,20.42,60.5,86.84,91.44,118.16,31.32,31.89,23.35,81.7,42.42,120.23,19.62,39.45,78.89,61.56,85.21,104.65,6.4,43.13-6.56,90.01-13.91,133.39Z"/>
        <path class="cls-2" d="M1277.39,966.12c-7.63,43.38-41.05,80.91-62.59,121.15-21.24,39.43-59.04,56.47-91.29,87.81-32.87,31.76-60,60.2-99.59,79.39-40.51,19.73-74.95,25.56-119.08,31.67-44.16,6.19-86.8,63.67-131.12,55.78-43.38-7.63-83.49-31.09-123.74-52.63-39.43-21.24-86.16-53.78-117.5-86.04-31.76-32.87-37.28-82.16-56.46-121.75-19.73-40.51-45.03-83.94-51.14-128.07-6.19-44.16-32.1-89.06-24.21-133.38,7.63-43.38,40.23-92.8,61.77-133.05,21.24-39.43,60.45-66.89,92.71-98.23,32.87-31.76,65.75-67.36,105.34-86.54,40.51-19.73,84.35-61.32,128.48-67.43,44.16-6.19,98.73,23.71,143.05,31.6,43.38,7.63,99.83-9.68,140.08,11.85,39.43,21.24,62.56,87.7,93.9,119.95,31.76,32.87,22.36,84.49,41.55,124.08,19.73,40.51,79.18,63.72,85.3,107.86,6.19,44.16-7.55,91.66-15.44,135.98Z"/>
        <path class="cls-2" d="M1285.24,970.89c-8.15,44.27-41.42,82.66-63.76,123.66-22.06,40.2-60.85,57.37-94.03,89.12-33.84,32.2-61.32,62.28-101.96,81.58-41.56,19.84-77.3,25.34-122.49,31.25-45.19,5.97-89.42,63.45-134.68,55.02-44.27-8.15-84.1-34.35-125.09-56.7-40.2-22.06-88.79-53.91-120.53-87.09-32.2-33.84-36.41-84.81-55.72-125.46-19.84-41.56-46.5-85.72-52.41-130.9-5.97-45.19-29.95-90.94-21.53-136.2,8.15-44.27,40.26-94.74,62.61-135.74,22.06-40.2,62.73-67.39,95.91-99.14,33.84-32.2,67.38-68.37,108.03-87.68,41.56-19.84,86.42-62.46,131.6-68.36,45.19-5.97,100.85,24.06,146.11,32.48,44.27,8.15,101.47-7.51,142.47,14.84,40.2,22.06,64.62,88.56,96.37,121.74,32.2,33.84,21.38,87.29,40.68,127.94,19.84,41.56,79.48,65.88,85.38,111.07,5.97,45.19-8.54,93.31-16.97,138.58Z"/>
        <path class="cls-2" d="M1293.09,975.67c-8.66,45.17-41.78,84.41-64.94,126.16-22.88,40.97-62.66,58.28-96.77,90.43-34.82,32.63-62.64,64.35-104.34,83.78-42.61,19.95-79.66,25.13-125.89,30.82-46.21,5.76-92.03,63.23-138.24,54.27-45.17-8.66-84.7-37.61-126.45-60.77-40.97-22.88-91.41-54.04-123.55-88.15-32.63-34.82-35.55-87.46-54.97-129.17-19.95-42.61-47.98-87.5-53.67-133.74-5.76-46.21-27.8-92.81-18.84-139.01,8.66-45.17,40.3-96.68,63.46-138.42,22.88-40.97,65.01-67.89,99.12-100.04,34.82-32.63,69.02-69.38,110.72-88.81,42.61-19.95,88.49-63.6,134.72-69.29,46.21-5.76,102.97,24.41,149.17,33.36,45.17,8.66,103.11-5.33,144.86,17.83,40.97,22.88,66.68,89.42,98.83,123.53,32.63,34.82,20.39,90.09,39.81,131.79,19.95,42.61,79.77,68.04,85.46,114.27,5.76,46.21-9.54,94.97-18.5,141.17Z"/>
        <path class="cls-2" d="M1300.93,980.44c-9.18,46.06-42.14,86.17-66.11,128.66-23.7,41.74-64.47,59.19-99.51,91.74-35.79,33.07-63.96,66.43-106.71,85.97-43.67,20.07-82.02,24.91-129.3,30.39-47.24,5.55-94.65,63-141.8,53.51-46.06-9.18-85.31-40.88-127.8-64.85-41.74-23.7-94.03-54.17-126.58-89.2-33.07-35.79-34.68-90.12-54.23-132.87-20.07-43.67-49.45-89.29-54.93-136.57-5.55-47.24-25.65-94.68-16.16-141.83,9.18-46.06,40.33-98.62,64.3-141.11,23.7-41.74,67.28-68.4,102.32-100.95,35.79-33.07,70.65-70.4,113.41-89.94,43.67-20.07,90.56-64.74,137.84-70.22,47.24-5.55,105.09,24.75,152.24,34.25,46.06,9.18,104.76-3.16,147.25,20.81,41.74,23.7,68.74,90.28,101.3,125.32,33.07,35.79,19.4,92.88,38.94,135.64,20.07,43.67,80.07,70.2,85.55,117.48,5.55,47.24-10.53,96.62-20.02,143.77Z"/>
        <path class="cls-2" d="M1308.78,985.21c-9.69,46.95-42.5,87.92-67.29,131.16-24.52,42.5-66.28,60.1-102.25,93.05-36.77,33.5-65.28,68.5-109.09,88.16-44.72,20.18-84.38,24.7-132.71,29.97-48.27,5.33-97.26,62.78-145.35,52.76-46.95-9.69-85.91-44.14-129.15-68.92-42.5-24.52-96.65-54.3-129.6-90.26-33.5-36.77-33.82-92.77-53.48-136.58-20.18-44.72-50.93-91.07-56.19-139.4-5.33-48.27-23.5-96.56-13.48-144.64,9.69-46.95,40.36-100.56,65.15-143.79,24.52-42.5,69.56-68.9,105.52-101.85,36.77-33.5,72.28-71.41,116.1-91.07,44.72-20.18,92.63-65.89,140.96-71.15,48.27-5.33,107.21,25.1,155.3,35.13,46.95,9.69,106.4-.98,149.64,23.8,42.5,24.52,70.81,91.15,103.76,127.11,33.5,36.77,18.41,95.68,38.08,139.49,20.18,44.72,80.37,72.36,85.63,120.69,5.33,48.27-11.52,98.27-21.55,146.36Z"/>
        <path class="cls-2" d="M1316.63,989.98c-10.21,47.85-42.86,89.67-68.46,133.66-25.34,43.27-68.1,61-104.99,94.36-37.74,33.94-66.6,70.57-111.47,90.36-45.77,20.29-86.74,24.48-136.11,29.54-49.29,5.12-99.88,62.56-148.91,52-47.85-10.21-86.51-47.4-130.5-73-43.27-25.34-99.27-54.42-132.63-91.31-33.94-37.74-32.95-95.42-52.74-140.29-20.29-45.77-52.4-92.86-57.45-142.23-5.12-49.29-21.35-98.43-10.79-147.46,10.21-47.85,40.4-102.49,65.99-146.48,25.34-43.27,71.84-69.4,108.73-102.76,37.74-33.94,73.92-72.42,118.79-92.2,45.77-20.29,94.7-67.03,144.08-72.08,49.29-5.12,109.33,25.45,158.36,36.01,47.85,10.21,108.05,1.19,152.03,26.79,43.27,25.34,72.87,92.01,106.22,128.9,33.94,37.74,17.42,98.48,37.21,143.34,20.29,45.77,80.66,74.52,85.71,123.9,5.12,49.29-12.52,99.93-23.08,148.96Z"/>
        <path class="cls-2" d="M1324.48,994.75c-10.72,48.74-43.23,91.43-69.64,136.16-26.16,44.04-69.91,61.91-107.73,95.67-38.72,34.37-67.92,72.65-113.84,92.55-46.83,20.4-89.1,24.27-139.52,29.11-50.32,4.91-102.5,62.34-152.47,51.25-48.74-10.72-87.12-50.66-131.85-77.07-44.04-26.16-101.89-54.55-135.65-92.37-34.37-38.72-32.09-98.07-51.99-144-20.4-46.83-53.87-94.64-58.72-145.06-4.91-50.32-19.2-100.3-8.11-150.27,10.72-48.74,40.43-104.43,66.84-149.16,26.16-44.04,74.12-69.91,111.93-103.67,38.72-34.37,75.55-73.43,121.48-93.34,46.83-20.4,96.77-68.17,147.2-73.01,50.32-4.91,111.45,25.8,161.43,36.89,48.74,10.72,109.69,3.37,154.42,29.78,44.04,26.16,74.93,92.87,108.69,130.69,34.37,38.72,16.43,101.27,36.34,147.2,20.4,46.83,80.96,76.68,85.8,127.11,4.91,50.32-13.51,101.58-24.61,151.55Z"/>
        <path class="cls-2" d="M1332.32,999.53c-11.24,49.64-43.59,93.18-70.81,138.66-26.98,44.8-71.72,62.82-110.47,96.98-39.69,34.81-69.24,74.72-116.22,94.75-47.88,20.52-91.45,24.06-142.93,28.69-51.35,4.7-105.11,62.12-156.03,50.49-49.64-11.24-87.72-53.92-133.2-81.15-44.8-26.98-104.51-54.68-138.67-93.42-34.81-39.69-31.22-100.73-51.24-147.71-20.52-47.88-55.35-96.42-59.98-147.9-4.7-51.35-17.05-102.17-5.42-153.09,11.24-49.64,40.46-106.37,67.69-151.85,26.98-44.8,76.39-70.41,115.14-104.57,39.69-34.81,77.18-74.45,124.16-94.47,47.88-20.52,98.85-69.32,150.32-73.95,51.35-4.7,113.57,26.15,164.49,37.78,49.64,11.24,111.33,5.54,156.81,32.77,44.8,26.98,76.99,93.73,111.15,132.47,34.81,39.69,15.45,104.07,35.47,151.05,20.52,47.88,81.25,78.84,85.88,130.31,4.7,51.35-14.51,103.23-26.14,154.15Z"/>
        <path class="cls-2" d="M1340.17,1004.3c-11.75,50.53-43.95,94.94-71.99,141.16-27.8,45.57-73.53,63.73-113.2,98.29-40.67,35.25-70.56,76.8-118.59,96.94-48.93,20.63-93.81,23.84-146.34,28.26-52.37,4.48-107.73,61.9-159.59,49.74-50.53-11.75-88.33-57.18-134.55-85.22-45.57-27.8-107.13-54.81-141.7-94.48-35.25-40.67-30.36-103.38-50.5-151.41-20.63-48.93-56.82-98.21-61.24-150.73-4.48-52.37-14.9-104.05-2.74-155.9,11.75-50.53,40.49-108.31,68.53-154.53,27.8-45.57,78.67-70.91,118.34-105.48,40.67-35.25,78.82-75.46,126.85-95.6,48.93-20.63,100.92-70.46,153.44-74.88,52.37-4.48,115.7,26.49,167.55,38.66,50.53,11.75,112.98,7.72,159.2,35.75,45.57,27.8,79.05,94.59,113.62,134.26,35.25,40.67,14.46,106.87,34.6,154.9,20.63,48.93,81.55,81,85.97,133.52,4.48,52.37-15.5,104.89-27.66,156.75Z"/>
        <path class="cls-2" d="M1348.02,1009.07c-12.27,51.42-44.31,96.69-73.16,143.66-28.62,46.34-75.35,64.63-115.94,99.61-41.64,35.68-71.88,78.87-120.97,99.14-49.99,20.74-96.17,23.63-149.74,27.83-53.4,4.27-110.34,61.68-163.14,48.98-51.42-12.27-88.93-60.44-135.9-89.29-46.34-28.62-109.75-54.93-144.72-95.53-35.68-41.64-29.49-106.03-49.75-155.12-20.74-49.99-58.3-99.99-62.5-153.56-4.27-53.4-12.75-105.92-.05-158.72,12.27-51.42,40.53-110.24,69.38-157.22,28.62-46.34,80.95-71.41,121.55-106.39,41.64-35.68,80.45-76.47,129.54-96.73,49.99-20.74,102.99-71.6,156.56-75.81,53.4-4.27,117.82,26.84,170.62,39.54,51.42,12.27,114.62,9.89,161.59,38.74,46.34,28.62,81.11,95.45,116.08,136.05,35.68,41.64,13.47,109.66,33.73,158.75,20.74,49.99,81.84,83.16,86.05,136.73,4.27,53.4-16.49,106.54-29.19,159.34Z"/>
        <path class="cls-2" d="M1355.87,1013.84c-12.78,52.32-44.68,98.44-74.34,146.17-29.44,47.1-77.16,65.54-118.68,100.92-42.62,36.12-73.2,80.95-123.35,101.33-51.04,20.85-98.53,23.41-153.15,27.4-54.43,4.06-112.96,61.46-166.7,48.23-52.32-12.78-89.53-63.7-137.26-93.37-47.1-29.44-112.37-55.06-147.75-96.59-36.12-42.62-28.63-108.68-49.01-158.83-20.85-51.04-59.77-101.77-63.77-156.39-4.06-54.43-10.6-107.79,2.63-161.54,12.78-52.32,40.56-112.18,70.22-159.9,29.44-47.1,83.23-71.92,124.75-107.29,42.62-36.12,82.08-77.48,132.23-97.87,51.04-20.85,105.06-72.74,159.68-76.74,54.43-4.06,119.94,27.19,173.68,40.42,52.32,12.78,116.26,12.07,163.98,41.73,47.1,29.44,83.17,96.31,118.54,137.84,36.12,42.62,12.48,112.46,32.86,162.61,20.85,51.04,82.14,85.32,86.13,139.94,4.06,54.43-17.49,108.19-30.72,161.94Z"/>
        <path class="cls-2" d="M1363.71,1018.61c-13.3,53.21-45.04,100.2-75.51,148.67-30.26,47.87-78.97,66.45-121.42,102.23-43.59,36.55-74.52,83.02-125.72,103.52-52.09,20.97-100.89,23.2-156.56,26.98-55.45,3.84-115.58,61.24-170.26,47.47-53.21-13.3-90.14-66.97-138.61-97.44-47.87-30.26-114.99-55.19-150.77-97.64-36.55-43.59-27.76-111.34-48.26-162.54-20.97-52.09-61.25-103.56-65.03-159.23-3.84-55.45-8.45-109.67,5.31-164.35,13.3-53.21,40.59-114.12,71.07-162.59,30.26-47.87,85.5-72.42,127.96-108.2,43.59-36.55,83.72-78.5,134.92-99,52.09-20.97,107.13-73.89,162.8-77.67,55.45-3.84,122.06,27.54,176.74,41.3,53.21,13.3,117.91,14.24,166.38,44.72,47.87,30.26,85.23,97.18,121.01,139.63,36.55,43.59,11.49,115.26,31.99,166.46,20.97,52.09,82.43,87.48,86.22,143.15,3.84,55.45-18.48,109.85-32.25,164.53Z"/>
        <path class="cls-2" d="M1371.56,1023.39c-13.81,54.11-45.4,101.95-76.69,151.17-31.08,48.64-80.78,67.36-124.16,103.54-44.57,36.99-75.84,85.1-128.1,105.72-53.15,21.08-103.25,22.98-159.96,26.55-56.48,3.63-118.19,61.02-173.82,46.72-54.11-13.81-90.74-70.23-139.96-101.52-48.64-31.08-117.61-55.32-153.8-98.7-36.99-44.57-26.9-113.99-47.52-166.25-21.08-53.15-62.72-105.34-66.29-162.06-3.63-56.48-6.3-111.54,8-167.17,13.81-54.11,40.63-116.06,71.92-165.27,31.08-48.64,87.78-72.92,131.16-109.1,44.57-36.99,85.35-79.51,137.61-100.13,53.15-21.08,109.2-75.03,165.92-78.6,56.48-3.63,124.18,27.89,179.81,42.19,54.11,13.81,119.55,16.42,168.77,47.7,48.64,31.08,87.29,98.04,123.47,141.42,36.99,44.57,10.5,118.05,31.13,170.31,21.08,53.15,82.73,89.64,86.3,146.35,3.63,56.48-19.48,111.5-33.78,167.13Z"/>
        <path class="cls-2" d="M1379.41,1028.16c-14.32,55-45.76,103.71-77.87,153.67-31.9,49.41-82.59,68.26-126.9,104.85-45.54,37.43-77.16,87.17-130.47,107.91-54.2,21.19-105.6,22.77-163.37,26.12-57.51,3.42-120.81,60.8-177.38,45.96-55-14.32-91.35-73.49-141.31-105.59-49.41-31.9-120.23-55.45-156.82-99.75-37.43-45.54-26.03-116.64-46.77-169.95-21.19-54.2-64.19-107.13-67.55-164.89-3.42-57.51-4.15-113.41,10.68-169.98,14.32-55,40.66-118,72.76-167.96,31.9-49.41,90.06-73.43,134.37-110.01,45.54-37.43,86.98-80.52,140.3-101.26,54.2-21.19,111.27-76.17,169.04-79.53,57.51-3.42,126.3,28.23,182.87,43.07,55,14.32,121.19,18.59,171.16,50.69,49.41,31.9,89.35,98.9,125.93,143.21,37.43,45.54,9.52,120.85,30.26,174.16,21.19,54.2,83.02,91.8,86.38,149.56,3.42,57.51-20.47,113.15-35.3,169.72Z"/>
        <path class="cls-2" d="M1387.26,1032.93c-14.84,55.89-46.13,105.46-79.04,156.17-32.72,50.17-84.41,69.17-129.64,106.16-46.52,37.86-78.48,89.24-132.85,110.11-55.25,21.3-107.96,22.55-166.78,25.7-58.53,3.2-123.42,60.58-180.93,45.21-55.89-14.84-91.95-76.75-142.66-109.67-50.17-32.72-122.85-55.57-159.84-100.81-37.86-46.52-25.17-119.29-46.03-173.66-21.3-55.25-65.67-108.91-68.81-167.72-3.2-58.53-2-115.28,13.37-172.8,14.84-55.89,40.69-119.93,73.61-170.64,32.72-50.17,92.33-73.93,137.57-110.92,46.52-37.86,88.62-81.53,142.99-102.4,55.25-21.3,113.34-77.32,172.16-80.46,58.53-3.2,128.42,28.58,185.93,43.95,55.89,14.84,122.84,20.76,173.55,53.68,50.17,32.72,91.41,99.76,128.4,144.99,37.86,46.52,8.53,123.65,29.39,178.01,21.3,55.25,83.32,93.95,86.47,152.77,3.2,58.53-21.46,114.81-36.83,172.32Z"/>
        <path class="cls-2" d="M1395.1,1037.7c-15.35,56.79-46.49,107.21-80.22,158.67-33.54,50.94-86.22,70.08-132.38,107.47-47.49,38.3-79.8,91.32-135.22,112.3-56.31,21.42-110.32,22.34-170.18,25.27-59.56,2.99-126.04,60.36-184.49,44.45-56.79-15.35-92.55-80.01-144.01-113.74-50.94-33.54-125.48-55.7-162.87-101.86-38.3-47.49-24.3-121.95-45.28-177.37-21.42-56.31-67.14-110.69-70.08-170.55-2.99-59.56.15-117.16,16.05-175.61,15.35-56.79,40.72-121.87,74.45-173.33,33.54-50.94,94.61-74.43,140.78-111.82,47.49-38.3,90.25-82.55,145.67-103.53,56.31-21.42,115.41-78.46,175.27-81.39,59.56-2.99,130.54,28.93,188.99,44.83,56.79,15.35,124.48,22.94,175.94,56.67,50.94,33.54,93.47,100.62,130.86,146.78,38.3,47.49,7.54,126.44,28.52,181.87,21.42,56.31,83.62,96.11,86.55,155.98,2.99,59.56-22.46,116.46-38.36,174.91Z"/>
        <path class="cls-2" d="M1402.95,1042.47c-15.87,57.68-46.85,108.97-81.39,161.17-34.36,51.71-88.03,70.99-135.12,108.78-48.47,38.73-81.12,93.39-137.6,114.49-57.36,21.53-112.68,22.12-173.59,24.84-60.59,2.78-128.65,60.14-188.05,43.7-57.68-15.87-93.16-83.27-145.36-117.81-51.71-34.36-128.1-55.83-165.89-102.92-38.73-48.47-23.44-124.6-44.54-181.08-21.53-57.36-68.62-112.48-71.34-173.39-2.78-60.59,2.3-119.03,18.74-178.43,15.87-57.68,40.76-123.81,75.3-176.01,34.36-51.71,96.89-74.93,143.98-112.73,48.47-38.73,91.88-83.56,148.36-104.66,57.36-21.53,117.48-79.6,178.39-82.32,60.59-2.78,132.66,29.28,192.06,45.71,57.68,15.87,126.13,25.11,178.33,59.66,51.71,34.36,95.53,101.48,133.33,148.57,38.73,48.47,6.55,129.24,27.65,185.72,21.53,57.36,83.91,98.27,86.63,159.18,2.78,60.59-23.45,118.12-39.89,177.51Z"/>
        <path class="cls-2" d="M1410.8,1047.24c-16.38,58.58-47.21,110.72-82.57,163.67-35.18,52.47-89.84,71.89-137.86,110.09-49.44,39.17-82.44,95.47-139.98,116.69-58.41,21.64-115.04,21.91-177,24.42-61.62,2.56-131.27,59.92-191.61,42.95-58.58-16.38-93.76-86.53-146.71-121.89-52.47-35.18-130.72-55.96-168.92-103.97-39.17-49.44-22.57-127.25-43.79-184.78-21.64-58.41-70.09-114.26-72.6-176.22-2.56-61.62,4.45-120.9,21.42-181.24,16.38-58.58,40.79-125.75,76.14-178.7,35.18-52.47,99.17-75.44,147.18-113.64,49.44-39.17,93.52-84.57,151.05-105.79,58.41-21.64,119.55-80.74,181.51-83.25,61.62-2.56,134.78,29.63,195.12,46.6,58.58,16.38,127.77,27.29,180.72,62.64,52.47,35.18,97.59,102.34,135.79,150.36,39.17,49.44,5.56,132.04,26.78,189.57,21.64,58.41,84.21,100.43,86.72,162.39,2.56,61.62-24.45,119.77-41.41,180.11Z"/>
        <path class="cls-2" d="M1418.64,1052.02c-16.9,59.47-47.57,112.47-83.74,166.17-36,53.24-91.65,72.8-140.6,111.41-50.41,39.61-83.76,97.54-142.35,118.88-59.47,21.75-117.4,21.69-180.4,23.99-62.64,2.35-133.89,59.69-195.17,42.19-59.47-16.9-94.37-89.8-148.06-125.96-53.24-36-133.34-56.08-171.94-105.03-39.61-50.41-21.71-129.9-43.05-188.49-21.75-59.47-71.56-116.04-73.86-179.05-2.35-62.64,6.6-122.78,24.1-184.06,16.9-59.47,40.82-127.69,76.99-181.38,36-53.24,101.44-75.94,150.39-114.54,50.41-39.61,95.15-85.58,153.74-106.92,59.47-21.75,121.63-81.89,184.63-84.18,62.64-2.35,136.9,29.98,198.18,47.48,59.47,16.9,129.41,29.46,183.11,65.63,53.24,36,99.65,103.2,138.25,152.15,39.61,50.41,4.57,134.83,25.91,193.42,21.75,59.47,84.5,102.59,86.8,165.6,2.35,62.64-25.44,121.42-42.94,182.7Z"/>
        <path class="cls-2" d="M1426.49,1056.79c-17.41,60.37-47.94,114.23-84.92,168.67-36.82,54.01-93.47,73.71-143.34,112.72-51.39,40.04-85.08,99.62-144.73,121.08-60.52,21.86-119.76,21.48-183.81,23.56-63.67,2.14-136.5,59.47-198.72,41.44-60.37-17.41-94.97-93.06-149.42-130.04-54.01-36.82-135.96-56.21-174.97-106.08-40.04-51.39-20.84-132.56-42.3-192.2-21.86-60.52-73.04-117.83-75.12-181.88-2.14-63.67,8.75-124.65,26.79-186.87,17.41-60.37,40.86-129.62,77.84-184.07,36.82-54.01,103.72-76.44,153.59-115.45,51.39-40.04,96.78-86.6,156.43-108.06,60.52-21.86,123.7-83.03,187.75-85.12,63.67-2.14,139.03,30.32,201.25,48.36,60.37,17.41,131.06,31.64,185.5,68.62,54.01,36.82,101.71,104.07,140.72,153.94,40.04,51.39,3.58,137.63,25.05,197.28,21.86,60.52,84.8,104.75,86.88,168.81,2.14,63.67-26.43,123.08-44.47,185.3Z"/>
        <path class="cls-2" d="M1434.34,1061.56c-17.93,61.26-48.3,115.98-86.09,171.18-37.64,54.78-95.28,74.62-146.08,114.03-52.36,40.48-86.4,101.69-147.1,123.27-61.57,21.98-122.11,21.26-187.22,23.14-64.7,1.92-139.12,59.25-202.28,40.68-61.26-17.93-95.57-96.32-150.77-134.11-54.78-37.64-138.58-56.34-177.99-107.14-40.48-52.36-19.98-135.21-41.56-195.91-21.98-61.57-74.51-119.61-76.39-184.72-1.92-64.7,10.9-126.52,29.47-189.69,17.93-61.26,40.89-131.56,78.68-186.75,37.64-54.78,106-76.94,156.8-116.36,52.36-40.48,98.42-87.61,159.12-109.19,61.57-21.98,125.77-84.17,190.87-86.05,64.7-1.92,141.15,30.67,204.31,49.24,61.26,17.93,132.7,33.81,187.89,71.61,54.78,37.64,103.77,104.93,143.18,155.73,40.48,52.36,2.6,140.43,24.18,201.13,21.98,61.57,85.09,106.91,86.97,172.02,1.92,64.7-27.43,124.73-46,187.89Z"/>
        <path class="cls-2" d="M1442.19,1066.33c-18.44,62.15-48.66,117.74-87.27,173.68-38.46,55.54-97.09,75.52-148.82,115.34-53.34,40.91-87.72,103.77-149.48,125.47-62.63,22.09-124.47,21.05-190.63,22.71-65.72,1.71-141.73,59.03-205.84,39.93-62.15-18.44-96.18-99.58-152.12-138.19-55.54-38.46-141.2-56.47-181.01-108.19-40.91-53.34-19.11-137.86-40.81-199.62-22.09-62.63-75.99-121.4-77.65-187.55-1.71-65.72,13.05-128.39,32.16-192.5,18.44-62.15,40.92-133.5,79.53-189.44,38.46-55.54,108.28-77.45,160-117.26,53.34-40.91,100.05-88.62,161.81-110.32,62.63-22.09,127.84-85.31,193.99-86.98,65.72-1.71,143.27,31.02,207.37,50.13,62.15,18.44,134.34,35.99,190.28,74.59,55.54,38.46,105.83,105.79,145.65,157.52,40.91,53.34,1.61,143.22,23.31,204.98,22.09,62.63,85.39,109.07,87.05,175.22,1.71,65.72-28.42,126.38-47.53,190.49Z"/>
        <path class="cls-2" d="M1450.03,1071.1c-18.96,63.05-49.02,119.49-88.44,176.18-39.28,56.31-98.9,76.43-151.56,116.65-54.31,41.35-89.04,105.84-151.86,127.66-63.68,22.2-126.83,20.83-194.03,22.28-66.75,1.5-144.35,58.81-209.4,39.17-63.05-18.96-96.78-102.84-153.47-142.26-56.31-39.28-143.82-56.6-184.04-109.25-41.35-54.31-18.25-140.51-40.07-203.32-22.2-63.68-77.46-123.18-78.91-190.38-1.5-66.75,15.2-130.27,34.84-195.32,18.96-63.05,40.95-135.44,80.37-192.12,39.28-56.31,110.55-77.95,163.21-118.17,54.31-41.35,101.68-89.63,164.5-111.45,63.68-22.2,129.91-86.46,197.11-87.91,66.75-1.5,145.39,31.37,210.44,51.01,63.05,18.96,135.99,38.16,192.67,77.58,56.31,39.28,107.89,106.65,148.11,159.3,41.35,54.31.62,146.02,22.44,208.83,22.2,63.68,85.68,111.23,87.13,178.43,1.5,66.75-29.41,128.04-49.05,193.08Z"/>
        <path class="cls-2" d="M1457.88,1075.88c-19.47,63.94-49.39,121.24-89.62,178.68-40.1,57.08-100.71,77.34-154.3,117.96-55.29,41.78-90.36,107.91-154.23,129.85-64.73,22.31-129.19,20.62-197.44,21.86-67.78,1.28-146.96,58.59-212.96,38.42-63.94-19.47-97.39-106.1-154.82-146.33-57.08-40.1-146.44-56.72-187.06-110.31-41.78-55.29-17.38-143.17-39.32-207.03-22.31-64.73-78.94-124.96-80.17-193.21-1.28-67.78,17.35-132.14,37.53-198.13,19.47-63.94,40.99-137.37,81.22-194.81,40.1-57.08,112.83-78.45,166.41-119.07,55.29-41.78,103.32-90.65,167.18-112.59,64.73-22.31,131.98-87.6,200.23-88.84,67.78-1.28,147.51,31.72,213.5,51.89,63.94,19.47,137.63,40.34,195.07,80.57,57.08,40.1,109.95,107.51,150.57,161.09,41.78,55.29-.37,148.82,21.57,212.68,22.31,64.73,85.98,113.39,87.22,181.64,1.28,67.78-30.41,129.69-50.58,195.68Z"/>
        <path class="cls-2" d="M1465.73,1080.65c-19.99,64.84-49.75,123-90.79,181.18-40.92,57.84-102.53,78.25-157.04,119.27-56.26,42.22-91.69,109.99-156.61,132.05-65.79,22.43-131.55,20.4-200.85,21.43-68.8,1.07-149.58,58.37-216.51,37.66-64.84-19.99-97.99-109.36-156.17-150.41-57.84-40.92-149.06-56.85-190.09-111.36-42.22-56.26-16.52-145.82-38.57-210.74-22.43-65.79-80.41-126.75-81.44-196.04-1.07-68.8,19.5-134.01,40.21-200.95,19.99-64.84,41.02-139.31,82.06-197.49,40.92-57.84,115.11-78.96,169.62-119.98,56.26-42.22,104.95-91.66,169.87-113.72,65.79-22.43,134.05-88.74,203.35-89.77,68.8-1.07,149.63,32.06,216.56,52.77,64.84,19.99,139.27,42.51,197.46,83.56,57.84,40.92,112.01,108.37,153.04,162.88,42.22,56.26-1.36,151.61,20.7,216.54,22.43,65.79,86.28,115.55,87.3,184.85,1.07,68.8-31.4,131.34-52.11,198.28Z"/>
        <path class="cls-2" d="M1473.58,1085.42c-20.5,65.73-50.11,124.75-91.97,183.68-41.74,58.61-104.34,79.16-159.77,120.58-57.24,42.66-93.01,112.06-158.98,134.24-66.84,22.54-133.91,20.19-204.25,21-69.83.86-152.2,58.15-220.07,36.91-65.73-20.5-98.59-112.62-157.52-154.48-58.61-41.74-151.68-56.98-193.11-112.42-42.66-57.24-15.65-148.47-37.83-214.45-22.54-66.84-81.88-128.53-82.7-198.88-.86-69.83,21.65-135.89,42.89-203.76,20.5-65.73,41.05-141.25,82.91-200.18,41.74-58.61,117.38-79.46,172.82-120.89,57.24-42.66,106.58-92.67,172.56-114.85,66.84-22.54,136.12-89.89,206.47-90.7,69.83-.86,151.75,32.41,219.63,53.65,65.73,20.5,140.92,44.69,199.85,86.55,58.61,41.74,114.07,109.23,155.5,164.67,42.66,57.24-2.35,154.41,19.83,220.39,22.54,66.84,86.57,117.71,87.38,188.05.86,69.83-32.4,133-53.64,200.87Z"/>
        <path class="cls-2" d="M1481.42,1090.19c-21.02,66.62-50.47,126.51-93.14,186.18-42.56,59.38-106.15,80.06-162.51,121.89-58.21,43.09-94.33,114.14-161.36,136.44-67.89,22.65-136.26,19.97-207.66,20.58-70.86.64-154.81,57.93-223.63,36.15-66.62-21.02-99.2-115.89-158.87-158.56-59.38-42.56-154.3-57.11-196.14-113.47-43.09-58.21-14.79-151.12-37.08-218.16-22.65-67.89-83.36-130.31-83.96-201.71-.64-70.86,23.8-137.76,45.58-206.58,21.02-66.62,41.09-143.19,83.76-202.86,42.56-59.38,119.66-79.96,176.03-121.79,58.21-43.09,108.22-93.68,175.25-115.98,67.89-22.65,138.19-91.03,209.59-91.63,70.86-.64,153.87,32.76,222.69,54.54,66.62,21.02,142.56,46.86,202.24,89.53,59.38,42.56,116.13,110.09,157.97,166.46,43.09,58.21-3.33,157.21,18.96,224.24,22.65,67.89,86.87,119.87,87.47,191.26.64,70.86-33.39,134.65-55.17,203.47Z"/>
        <path class="cls-2" d="M1489.27,1094.96c-21.53,67.52-50.83,128.26-94.32,188.68-43.38,60.14-107.96,80.97-165.25,123.21-59.19,43.53-95.65,116.21-163.74,138.63-68.95,22.76-138.62,19.76-211.07,20.15-71.88.43-157.43,57.71-227.19,35.4-67.52-21.53-99.8-119.15-160.22-162.63-60.14-43.38-156.92-57.23-199.16-114.53-43.53-59.19-13.92-153.77-36.34-221.86-22.76-68.95-84.83-132.1-85.22-204.54-.43-71.88,25.95-139.63,48.26-209.39,21.53-67.52,41.12-145.13,84.6-205.55,43.38-60.14,121.94-80.46,179.23-122.7,59.19-43.53,109.85-94.7,177.94-117.12,68.95-22.76,140.26-92.17,212.71-92.56,71.88-.43,155.99,33.11,225.75,55.42,67.52,21.53,144.21,49.04,204.63,92.52,60.14,43.38,118.19,110.96,160.43,168.25,43.53,59.19-4.32,160,18.1,228.09,22.76,68.95,87.16,122.03,87.55,194.47.43,71.88-34.38,136.3-56.69,206.06Z"/>
        <path class="cls-2" d="M1497.12,1099.74c-22.05,68.41-51.2,130.01-95.49,191.18-44.2,60.91-109.77,81.88-167.99,124.52-60.16,43.96-96.97,118.29-166.11,140.82-70,22.88-140.98,19.54-214.47,19.72-72.91.22-160.04,57.49-230.75,34.64-68.41-22.05-100.41-122.41-161.58-166.71-60.91-44.2-159.55-57.36-202.18-115.58-43.96-60.16-13.06-156.43-35.59-225.57-22.88-70-86.31-133.88-86.48-207.37-.22-72.91,28.1-141.51,50.95-212.21,22.05-68.41,41.15-147.06,85.45-208.23,44.2-60.91,124.22-80.97,182.43-123.61,60.16-43.96,111.48-95.71,180.63-118.25,70-22.88,142.33-93.31,215.83-93.49,72.91-.22,158.11,33.46,228.81,56.3,68.41,22.05,145.85,51.21,207.02,95.51,60.91,44.2,120.25,111.82,162.89,170.04,43.96,60.16-5.31,162.8,17.23,231.95,22.88,70,87.46,124.19,87.64,197.68.22,72.91-35.38,137.96-58.22,208.66Z"/>
        <path class="cls-2" d="M1504.97,1104.51c-22.56,69.31-51.56,131.77-96.67,193.68-45.02,61.68-111.59,82.79-170.73,125.83-61.14,44.4-98.29,120.36-168.49,143.02-71.05,22.99-143.34,19.33-217.88,19.29-73.94,0-162.66,57.27-234.3,33.89-69.31-22.56-101.01-125.67-162.93-170.78-61.68-45.02-162.17-57.49-205.21-116.64-44.4-61.14-12.19-159.08-34.85-229.28-22.99-71.05-87.78-135.67-87.75-210.21,0-73.94,30.25-143.38,53.63-215.02,22.56-69.31,41.18-149,86.29-210.92,45.02-61.68,126.49-81.47,185.64-124.51,61.14-44.4,113.12-96.72,183.32-119.38,71.05-22.99,144.41-94.46,218.95-94.42,73.94,0,160.23,33.8,231.88,57.18,69.31,22.56,147.49,53.39,209.41,98.5,61.68,45.02,122.32,112.68,165.36,171.82,44.4,61.14-6.3,165.6,16.36,235.8,22.99,71.05,87.75,126.34,87.72,200.89,0,73.94-36.37,139.61-59.75,211.25Z"/>
        <path class="cls-2" d="M1512.81,1109.28c-23.08,70.2-51.92,133.52-97.84,196.19-45.84,62.45-113.4,83.69-173.47,127.14-62.11,44.84-99.61,122.44-170.86,145.21-72.11,23.1-145.7,19.11-221.29,18.87-74.96-.21-165.28,57.05-237.86,33.13-70.2-23.08-101.61-128.93-164.28-174.85-62.45-45.84-164.79-57.62-208.23-117.69-44.84-62.11-11.33-161.73-34.1-232.99-23.1-72.11-89.25-137.45-89.01-213.04.21-74.96,32.4-145.25,56.32-217.84,23.08-70.2,41.22-150.94,87.14-213.6,45.84-62.45,128.77-81.97,188.84-125.42,62.11-44.84,114.75-97.74,186.01-120.51,72.11-23.1,146.48-95.6,222.07-95.35,74.96.21,162.36,34.15,234.94,58.06,70.2,23.08,149.14,55.56,211.8,101.48,62.45,45.84,124.38,113.54,167.82,173.61,44.84,62.11-7.29,168.39,15.49,239.65,23.1,72.11,88.05,128.5,87.8,204.09-.21,74.96-37.37,141.26-61.28,213.85Z"/>
        <path class="cls-2" d="M1520.66,1114.05c-23.59,71.09-52.28,135.28-99.02,198.69-46.66,63.21-115.21,84.6-176.21,128.45-63.09,45.27-100.93,124.51-173.24,147.41-73.16,23.21-148.06,18.9-224.69,18.44-75.99-.42-167.89,56.83-241.42,32.38-71.09-23.59-102.22-132.19-165.63-178.93-63.21-46.66-167.41-57.75-211.26-118.75-45.27-63.09-10.46-164.38-33.36-236.69-23.21-73.16-90.73-139.23-90.27-215.87.42-75.99,34.55-147.12,59-220.65,23.59-71.09,41.25-152.88,87.99-216.29,46.66-63.21,131.05-82.47,192.05-126.32,63.09-45.27,116.38-98.75,188.69-121.65,73.16-23.21,148.55-96.74,225.19-96.28,75.99.42,164.48,34.5,238,58.95,71.09,23.59,150.78,57.74,214.19,104.47,63.21,46.66,126.44,114.4,170.29,175.4,45.27,63.09-8.28,171.19,14.62,243.5,23.21,73.16,88.34,130.66,87.89,207.3-.42,75.99-38.36,142.92-62.81,216.44Z"/>
        <path class="cls-2" d="M1528.51,1118.82c-24.11,71.99-52.65,137.03-100.19,201.19-47.48,63.98-117.02,85.51-178.95,129.76-64.06,45.71-102.25,126.58-175.61,149.6-74.21,23.33-150.41,18.68-228.1,18.01-77.02-.63-170.51,56.61-244.98,31.63-71.99-24.11-102.82-135.45-166.98-183-63.98-47.48-170.03-57.87-214.28-119.8-45.71-64.06-9.6-167.04-32.61-240.4-23.33-74.21-92.2-141.02-91.53-218.7.63-77.02,36.7-149,61.68-223.47,24.11-71.99,41.28-154.82,88.83-218.97,47.48-63.98,133.33-82.98,195.25-127.23,64.06-45.71,118.02-99.76,191.38-122.78,74.21-23.33,150.62-97.89,228.3-97.22,77.02.63,166.6,34.85,241.07,59.83,71.99,24.11,152.42,59.91,216.58,107.46,63.98,47.48,128.5,115.26,172.75,177.19,45.71,64.06-9.26,173.99,13.75,247.35,23.33,74.21,88.64,132.82,87.97,210.51-.63,77.02-39.35,144.57-64.33,219.04Z"/>
        <path class="cls-2" d="M1536.36,1123.59c-24.62,72.88-53.01,138.78-101.37,203.69-48.3,64.75-118.83,86.42-181.69,131.07-65.04,46.14-103.57,128.66-177.99,151.8-75.27,23.44-152.77,18.47-231.51,17.59-78.04-.85-173.12,56.38-248.53,30.87-72.88-24.62-103.43-138.71-168.33-187.08-64.75-48.3-172.65-58-217.31-120.86-46.14-65.04-8.73-169.69-31.87-244.11-23.44-75.27-93.68-142.8-92.8-221.53.85-78.04,38.85-150.87,64.37-226.28,24.62-72.88,41.32-156.75,89.68-221.66,48.3-64.75,135.6-83.48,198.46-128.14,65.04-46.14,119.65-100.77,194.07-123.91,75.27-23.44,152.69-99.03,231.42-98.15,78.04.85,168.72,35.2,244.13,60.71,72.88,24.62,154.07,62.09,218.97,110.45,64.75,48.3,130.56,116.12,175.21,178.98,46.14,65.04-10.25,176.79,12.88,251.21,23.44,75.27,88.93,134.98,88.05,213.72-.85,78.04-40.35,146.22-65.86,221.64Z"/>
        <path class="cls-2" d="M1544.2,1128.37c-25.14,73.78-53.37,140.54-102.55,206.19-49.12,65.51-120.65,87.32-184.43,132.38-66.01,46.58-104.89,130.73-180.37,153.99-76.32,23.55-155.13,18.25-234.91,17.16-79.07-1.06-175.74,56.16-252.09,30.12-73.78-25.14-104.03-141.98-169.68-191.15-65.51-49.12-175.27-58.13-220.33-121.91-46.58-66.01-7.87-172.34-31.12-247.82-23.55-76.32-95.15-144.58-94.06-224.37,1.06-79.07,41-152.74,67.05-229.1,25.14-73.78,41.35-158.69,90.52-224.34,49.12-65.51,137.88-83.98,201.66-129.04,66.01-46.58,121.28-101.79,196.76-125.04,76.32-23.55,154.76-100.17,234.54-99.08,79.07,1.06,170.84,35.54,247.19,61.59,73.78,25.14,155.71,64.26,221.36,113.44,65.51,49.12,132.62,116.99,177.68,180.77,46.58,66.01-11.24,179.58,12.02,255.06,23.55,76.32,89.23,137.14,88.14,216.92-1.06,79.07-41.34,147.88-67.39,224.23Z"/>
        <path class="cls-2" d="M1552.05,1133.14c-25.65,74.67-53.73,142.29-103.72,208.69-49.95,66.28-122.46,88.23-187.17,133.69-66.99,47.01-106.21,132.81-182.74,156.18-77.37,23.66-157.49,18.04-238.32,16.73-80.1-1.27-178.35,55.94-255.65,29.36-74.67-25.65-104.63-145.24-171.03-195.23-66.28-49.95-177.89-58.26-223.35-122.97-47.01-66.99-7-174.99-30.38-251.53-23.66-77.37-96.63-146.37-95.32-227.2,1.27-80.1,43.16-154.62,69.74-231.91,25.65-74.67,41.38-160.63,91.37-227.03,49.95-66.28,140.16-84.49,204.87-129.95,66.99-47.01,122.92-102.8,199.45-126.17,77.37-23.66,156.83-101.31,237.66-100.01,80.1,1.27,172.96,35.89,250.26,62.47,74.67,25.65,157.35,66.44,223.76,116.42,66.28,49.95,134.68,117.85,180.14,182.56,47.01,66.99-12.23,182.38,11.15,258.91,23.66,77.37,89.53,139.3,88.22,220.13-1.27,80.1-42.34,149.53-68.92,226.83Z"/>
        <path class="cls-2" d="M1559.9,1137.91c-26.17,75.56-54.09,144.04-104.9,211.19-50.77,67.05-124.27,89.14-189.91,135.01-67.96,47.45-107.53,134.88-185.12,158.38-78.43,23.77-159.85,17.83-241.73,16.31-81.13-1.49-180.97,55.72-259.21,28.61-75.56-26.17-105.24-148.5-172.39-199.3-67.05-50.77-180.51-58.38-226.38-124.02-47.45-67.96-6.14-177.65-29.63-255.23-23.77-78.43-98.1-148.15-96.58-230.03,1.49-81.13,45.31-156.49,72.42-234.73,26.17-75.56,41.41-162.57,92.21-229.71,50.77-67.05,142.43-84.99,208.07-130.86,67.96-47.45,124.55-103.81,202.14-127.31,78.43-23.77,158.9-102.46,240.78-100.94,81.13,1.49,175.08,36.24,253.32,63.36,75.56,26.17,159,68.61,226.15,119.41,67.05,50.77,136.74,118.71,182.61,184.35,47.45,67.96-13.22,185.18,10.28,262.76,23.77,78.43,89.82,141.46,88.3,223.34-1.49,81.13-43.33,151.18-70.45,229.42Z"/>
        <path class="cls-2" d="M1567.75,1142.68c-26.68,76.46-54.46,145.8-106.07,213.69-51.59,67.82-126.08,90.05-192.65,136.32-68.94,47.89-108.85,136.96-187.49,160.57-79.48,23.89-162.21,17.61-245.14,15.88-82.15-1.7-183.59,55.5-262.77,27.85-76.46-26.68-105.84-151.76-173.74-203.37-67.82-51.59-183.13-58.51-229.4-125.08-47.89-68.94-5.27-180.3-28.89-258.94-23.89-79.48-99.57-149.93-97.84-232.86,1.7-82.15,47.46-158.36,75.11-237.54,26.68-76.46,41.45-164.5,93.06-232.4,51.59-67.82,144.71-85.49,211.28-131.76,68.94-47.89,126.18-104.82,204.83-128.44,79.48-23.89,160.97-103.6,243.9-101.87,82.15,1.7,177.2,36.59,256.38,64.24,76.46,26.68,160.64,70.79,228.54,122.4,67.82,51.59,138.8,119.57,185.07,186.13,47.89,68.94-14.21,187.97,9.41,266.62,23.89,79.48,90.12,143.62,88.39,226.55-1.7,82.15-44.32,152.84-71.97,232.02Z"/>
        <path class="cls-2" d="M1575.59,1147.45c-27.2,77.35-54.82,147.55-107.25,216.19-52.41,68.58-127.89,90.95-195.39,137.63-69.91,48.32-110.17,139.03-189.87,162.77-80.53,24-164.57,17.4-248.54,15.45-83.18-1.91-186.2,55.28-266.32,27.1-77.35-27.2-106.45-155.02-175.09-207.45-68.58-52.41-185.75-58.64-232.43-126.13-48.32-69.91-4.41-182.95-28.14-262.65-24-80.53-101.05-151.72-99.11-235.7,1.91-83.18,49.61-160.23,77.79-240.36,27.2-77.35,41.48-166.44,93.91-235.08,52.41-68.58,146.99-85.99,214.48-132.67,69.91-48.32,127.82-105.84,207.52-129.57,80.53-24,163.04-104.74,247.02-102.8,83.18,1.91,179.32,36.94,259.45,65.12,77.35,27.2,162.29,72.96,230.93,125.39,68.58,52.41,140.86,120.43,187.53,187.92,48.32,69.91-15.2,190.77,8.54,270.47,24,80.53,90.41,145.78,88.47,229.76-1.91,83.18-45.32,154.49-73.5,234.61Z"/>
        <path class="cls-2" d="M1583.44,1152.23c-27.71,78.25-55.18,149.31-108.42,218.7-53.23,69.35-129.71,91.86-198.13,138.94-70.88,48.76-111.49,141.11-192.25,164.96-81.59,24.11-166.92,17.18-251.95,15.03-84.21-2.13-188.82,55.06-269.88,26.34-78.25-27.71-107.05-158.28-176.44-211.52-69.35-53.23-188.37-58.77-235.45-127.19-48.76-70.88-3.54-185.6-27.4-266.36-24.11-81.59-102.52-153.5-100.37-238.53,2.13-84.21,51.76-162.11,80.47-243.17,27.71-78.25,41.51-168.38,94.75-237.77,53.23-69.35,149.27-86.5,217.69-133.58,70.88-48.76,129.45-106.85,210.2-130.7,81.59-24.11,165.12-105.89,250.14-103.73,84.21,2.13,181.44,37.29,262.51,66,78.25,27.71,163.93,75.14,233.32,128.38,69.35,53.23,142.92,121.29,190,189.71,48.76,70.88-16.18,193.57,7.67,274.32,24.11,81.59,90.71,147.94,88.55,232.96-2.13,84.21-46.31,156.14-75.03,237.21Z"/>
        <path class="cls-2" d="M1591.29,1157c-28.22,79.14-55.54,151.06-109.6,221.2-54.05,70.12-131.52,92.77-200.87,140.25-71.86,49.19-112.81,143.18-194.62,167.16-82.64,24.22-169.28,16.97-255.36,14.6-85.23-2.34-191.43,54.84-273.44,25.59-79.14-28.22-107.65-161.54-177.79-215.6-70.12-54.05-190.99-58.9-238.48-128.24-49.19-71.86-2.67-188.26-26.65-270.07-24.22-82.64-104-155.29-101.63-241.36,2.34-85.23,53.91-163.98,83.16-245.99,28.22-79.14,41.54-170.32,95.6-240.45,54.05-70.12,151.54-87,220.89-134.48,71.86-49.19,131.08-107.86,212.89-131.84,82.64-24.22,167.19-107.03,253.26-104.66,85.23,2.34,183.56,37.63,265.57,66.89,79.14,28.22,165.57,77.31,235.71,131.36,70.12,54.05,144.98,122.15,192.46,191.5,49.19,71.86-17.17,196.36,6.8,278.17,24.22,82.64,91,150.1,88.64,236.17-2.34,85.23-47.3,157.8-76.56,239.81Z"/>
        <path class="cls-2" d="M372.86,1515.71c-70.88-54.87-193.61-59.02-241.5-129.3-49.63-72.83-1.81-190.91-25.91-273.77C81.12,1028.95-.02,955.57,2.56,868.45c2.55-86.26,56.06-165.85,85.84-248.8,28.74-80.04,41.58-172.26,96.44-243.14,54.87-70.88,153.82-87.5,224.09-135.39,72.83-49.63,132.72-108.87,215.58-132.97C708.22,83.81,793.78-.02,880.9,2.56c86.26,2.55,185.69,37.98,268.64,67.77,80.04,28.74,167.22,79.48,238.1,134.35,70.88,54.87,147.04,123.01,194.93,193.29,49.63,72.83-18.16,199.16,5.93,282.02,24.34,83.69,91.3,152.26,88.72,239.38-2.55,86.26-48.3,159.45-78.08,242.4-28.74,80.04-55.91,152.81-110.77,223.7-54.87,70.88-133.33,93.68-203.61,141.56-72.83,49.63-114.13,145.25-197,169.35-83.69,24.34-171.64,16.75-258.76,14.17-86.26-2.55-194.05,54.62-277,24.83-80.04-28.74-108.26-164.8-179.14-219.67Z"/>
      </g>
    </g>
  </g>
</svg>